{"glyphs":{"0":{"ha":786,"x_min":69,"x_max":717,"o":"m 393 0 q 218 65 290 0 q 108 253 146 131 q 69 544 69 375 q 108 835 69 713 q 218 1023 146 957 q 393 1089 290 1089 q 569 1022 497 1089 q 679 834 642 956 q 717 544 717 713 q 679 254 717 376 q 569 66 642 132 q 393 0 497 0 m 393 83 q 528 143 475 83 q 606 307 581 203 q 632 544 632 411 q 606 782 632 678 q 526 945 579 886 q 393 1004 474 1004 q 260 945 313 1004 q 181 783 207 886 q 154 544 154 679 q 180 307 154 411 q 259 143 206 203 q 393 83 313 83 z "},"1":{"ha":511,"x_min":63,"x_max":372,"o":"m 331 0 q 300 12 313 0 q 288 42 288 24 l 288 985 l 122 931 q 104 926 113 926 q 74 938 86 926 q 63 968 63 950 q 69 992 63 981 q 89 1008 75 1003 l 301 1079 q 317 1084 308 1082 q 331 1086 325 1086 q 360 1074 349 1086 q 372 1044 372 1063 l 372 42 q 360 12 372 24 q 331 0 349 0 z "},"2":{"ha":800,"x_min":90,"x_max":738,"o":"m 147 0 q 117 12 129 0 q 104 42 104 24 q 117 72 104 58 l 556 594 q 605 673 585 625 q 625 763 625 721 q 595 885 625 831 q 515 970 565 939 q 400 1001 464 1001 q 285 970 336 1001 q 205 885 235 939 q 175 763 175 831 q 163 733 175 744 q 133 721 151 721 q 103 733 115 721 q 90 763 90 744 q 131 928 90 856 q 242 1044 172 1001 q 400 1086 313 1086 q 558 1044 489 1086 q 669 928 628 1001 q 710 763 710 856 q 697 678 710 718 q 663 603 685 639 q 611 533 640 568 l 229 85 l 696 85 q 726 72 714 85 q 738 42 738 60 q 726 12 738 24 q 696 0 714 0 l 147 0 z "},"3":{"ha":800,"x_min":76,"x_max":738,"o":"m 404 -12 q 238 29 313 -12 q 120 144 164 71 q 76 307 76 217 q 88 340 76 326 q 119 353 99 353 q 150 340 139 353 q 161 307 161 326 q 194 187 161 240 q 281 102 226 133 q 404 71 336 71 q 588 138 524 71 q 653 306 653 206 q 621 434 653 381 q 534 516 589 488 q 411 544 479 544 q 381 556 393 544 q 369 586 369 568 q 381 616 369 604 q 411 628 393 628 q 510 655 467 628 q 580 726 554 682 q 606 822 606 771 q 553 959 606 904 q 407 1014 500 1014 q 297 990 344 1014 q 224 926 250 967 q 197 832 197 885 q 185 802 197 814 q 154 790 174 790 q 124 803 135 790 q 113 832 113 815 q 150 967 113 907 q 254 1061 188 1026 q 407 1096 321 1096 q 551 1060 488 1096 q 653 962 615 1024 q 690 822 690 900 q 669 734 690 781 q 610 649 647 688 q 525 590 572 611 q 643 528 596 572 q 714 426 690 485 q 738 306 738 368 q 694 143 738 215 q 576 29 651 71 q 404 -12 501 -12 z "},"4":{"ha":893,"x_min":13,"x_max":831,"o":"m 619 0 q 590 12 601 0 q 578 42 578 24 l 578 269 l 57 269 q 28 281 40 269 q 15 307 17 292 q 22 336 13 322 l 585 1069 q 599 1082 592 1078 q 619 1086 606 1086 q 649 1074 638 1086 q 661 1043 661 1063 l 661 344 l 789 344 q 819 337 807 344 q 831 306 831 329 q 819 281 831 293 q 789 269 807 269 l 661 269 l 661 42 q 649 12 661 24 q 619 0 638 0 m 97 303 l 90 344 l 578 344 l 578 958 l 594 947 l 97 303 z "},"5":{"ha":869,"x_min":90,"x_max":793,"o":"m 442 0 q 263 47 342 0 q 137 172 183 93 q 90 351 90 251 q 102 383 90 371 q 132 394 114 394 q 163 383 150 394 q 175 351 175 371 q 210 216 175 276 q 306 120 246 156 q 442 85 367 85 q 578 120 518 85 q 673 216 638 156 q 708 351 708 276 q 673 488 708 428 q 578 584 638 549 q 442 619 518 619 l 189 619 q 159 631 171 619 q 147 661 147 643 l 147 1044 q 159 1074 147 1063 q 189 1086 171 1086 l 694 1086 q 725 1074 713 1086 q 738 1044 738 1063 q 725 1014 738 1026 q 694 1001 713 1001 l 231 1001 l 231 703 l 442 703 q 621 657 542 703 q 747 531 700 611 q 793 351 793 451 q 747 172 793 251 q 621 47 700 93 q 442 0 542 0 z "},"6":{"ha":801,"x_min":90,"x_max":739,"o":"m 415 0 q 250 42 324 0 q 133 158 176 85 q 90 324 90 232 q 133 490 90 417 q 250 606 176 563 q 415 649 324 649 q 581 606 508 649 q 697 490 654 563 q 739 324 739 417 q 697 158 739 232 q 581 42 654 85 q 415 0 508 0 m 415 82 q 539 114 485 82 q 625 201 593 146 q 657 324 657 256 q 625 448 657 393 q 539 535 593 503 q 415 567 485 567 q 292 535 347 567 q 204 448 236 503 q 172 324 172 393 q 204 201 172 256 q 292 114 236 146 q 415 82 347 82 m 128 481 l 483 1063 q 522 1086 499 1086 q 550 1076 539 1086 q 565 1051 561 1067 q 558 1021 568 1036 l 308 617 l 128 481 z "},"7":{"ha":810,"x_min":76,"x_max":751,"o":"m 244 0 q 214 12 226 0 q 201 42 201 24 q 204 55 201 49 q 211 71 207 61 l 638 1001 l 119 1001 q 89 1014 101 1001 q 76 1044 76 1026 q 89 1074 76 1063 q 119 1086 101 1086 l 710 1086 q 740 1074 728 1086 q 751 1044 751 1063 q 749 1033 751 1039 q 744 1021 747 1026 l 283 25 q 244 0 272 0 z "},"8":{"ha":835,"x_min":90,"x_max":746,"o":"m 418 -10 q 251 33 325 -10 q 133 151 176 76 q 90 321 90 226 q 133 484 90 413 q 251 597 176 556 q 418 639 325 639 q 586 597 513 639 q 703 484 660 556 q 744 321 746 413 q 701 151 744 226 q 585 33 658 76 q 418 -10 511 -10 m 418 65 q 540 99 486 65 q 626 190 594 132 q 657 321 657 249 q 627 445 658 390 q 542 532 596 500 q 418 564 488 564 q 295 532 350 564 q 209 445 240 500 q 178 321 178 390 q 208 190 178 249 q 294 99 239 132 q 418 65 349 65 m 418 564 q 283 599 343 564 q 189 694 224 633 q 154 831 154 754 q 189 960 154 903 q 283 1051 224 1017 q 418 1085 343 1085 q 553 1053 494 1086 q 647 962 613 1019 q 681 831 682 904 q 646 694 681 754 q 552 599 611 633 q 418 564 493 564 m 418 642 q 510 667 469 642 q 576 734 551 692 q 601 831 601 776 q 578 921 603 881 q 513 984 554 961 q 418 1007 471 1007 q 288 956 340 1007 q 233 831 235 906 q 285 696 232 750 q 418 642 338 642 z "},"9":{"ha":801,"x_min":63,"x_max":711,"o":"m 386 1086 q 551 1044 478 1086 q 668 928 625 1001 q 711 763 711 854 q 668 597 711 669 q 551 481 625 524 q 386 438 478 438 q 220 481 293 438 q 105 597 147 524 q 63 763 63 669 q 105 928 63 854 q 220 1044 147 1001 q 386 1086 293 1086 m 386 1004 q 263 972 317 1004 q 176 885 208 940 q 144 763 144 831 q 176 638 144 693 q 263 551 208 583 q 386 519 317 519 q 510 551 454 519 q 597 638 565 583 q 629 763 629 693 q 597 885 629 831 q 510 972 565 940 q 386 1004 454 1004 m 674 606 l 318 24 q 279 0 303 0 q 251 10 263 0 q 237 35 240 19 q 243 65 233 50 l 493 469 l 674 606 z "},"A":{"ha":976,"x_min":21,"x_max":965,"o":"m 68 0 q 31 21 42 0 q 31 60 21 42 l 451 1056 q 492 1085 463 1085 q 532 1056 519 1085 l 954 60 q 953 20 965 40 q 917 0 940 0 q 894 6 903 0 q 878 26 885 13 l 469 1000 l 514 1000 l 107 26 q 92 6 101 13 q 68 0 82 0 m 171 272 l 204 347 l 782 347 l 814 272 l 171 272 z "},"Á":{"ha":976,"x_min":21,"x_max":965,"o":"m 68 0 q 31 21 42 0 q 31 60 21 42 l 451 1056 q 492 1085 463 1085 q 532 1056 519 1085 l 954 60 q 953 20 965 40 q 917 0 940 0 q 894 6 903 0 q 878 26 885 13 l 469 1000 l 514 1000 l 107 26 q 92 6 101 13 q 68 0 82 0 m 171 272 l 204 347 l 782 347 l 814 272 l 171 272 m 468 1197 q 438 1210 450 1197 q 425 1240 425 1222 q 435 1268 425 1256 l 606 1439 q 636 1451 618 1451 q 667 1440 654 1451 q 679 1408 679 1428 q 676 1394 679 1401 q 667 1379 674 1386 l 496 1208 q 468 1197 485 1197 z "},"Ă":{"ha":976,"x_min":21,"x_max":965,"o":"m 68 0 q 31 21 42 0 q 31 60 21 42 l 451 1056 q 492 1085 463 1085 q 532 1056 519 1085 l 954 60 q 953 20 965 40 q 917 0 940 0 q 894 6 903 0 q 878 26 885 13 l 469 1000 l 514 1000 l 107 26 q 92 6 101 13 q 68 0 82 0 m 171 272 l 204 347 l 782 347 l 814 272 l 171 272 m 488 1225 q 382 1246 431 1225 q 305 1302 333 1267 q 276 1379 276 1338 q 289 1410 276 1397 q 319 1422 301 1422 q 349 1410 338 1422 q 361 1379 361 1397 q 394 1324 361 1349 q 488 1300 428 1300 q 581 1324 547 1300 q 615 1379 615 1347 q 627 1410 615 1397 q 657 1422 639 1422 q 687 1410 675 1422 q 700 1381 699 1397 q 667 1298 697 1333 q 589 1244 636 1263 q 488 1225 542 1225 z "},"Ắ":{"ha":976,"x_min":21,"x_max":965,"o":"m 68 0 q 31 21 42 0 q 31 60 21 42 l 451 1056 q 492 1085 463 1085 q 532 1056 519 1085 l 954 60 q 953 20 965 40 q 917 0 940 0 q 894 6 903 0 q 878 26 885 13 l 469 1000 l 514 1000 l 107 26 q 92 6 101 13 q 68 0 82 0 m 171 272 l 204 347 l 782 347 l 814 272 l 171 272 m 488 1225 q 382 1246 431 1225 q 305 1302 333 1267 q 276 1379 276 1338 q 289 1410 276 1397 q 319 1422 301 1422 q 349 1410 338 1422 q 361 1379 361 1397 q 394 1324 361 1349 q 488 1300 428 1300 q 581 1324 547 1300 q 615 1379 615 1347 q 627 1410 615 1397 q 657 1422 639 1422 q 687 1410 675 1422 q 700 1381 699 1397 q 667 1298 697 1333 q 589 1244 636 1263 q 488 1225 542 1225 m 468 1424 q 438 1436 450 1424 q 425 1467 425 1449 q 435 1494 425 1482 l 606 1665 q 636 1678 618 1678 q 667 1666 654 1678 q 679 1635 679 1654 q 676 1620 679 1628 q 667 1606 674 1613 l 496 1435 q 468 1424 485 1424 z "},"Ặ":{"ha":976,"x_min":21,"x_max":965,"o":"m 68 0 q 31 21 42 0 q 31 60 21 42 l 451 1056 q 492 1085 463 1085 q 532 1056 519 1085 l 954 60 q 953 20 965 40 q 917 0 940 0 q 894 6 903 0 q 878 26 885 13 l 469 1000 l 514 1000 l 107 26 q 92 6 101 13 q 68 0 82 0 m 171 272 l 204 347 l 782 347 l 814 272 l 171 272 m 488 1225 q 382 1246 431 1225 q 305 1302 333 1267 q 276 1379 276 1338 q 289 1410 276 1397 q 319 1422 301 1422 q 349 1410 338 1422 q 361 1379 361 1397 q 394 1324 361 1349 q 488 1300 428 1300 q 581 1324 547 1300 q 615 1379 615 1347 q 627 1410 615 1397 q 657 1422 639 1422 q 687 1410 675 1422 q 700 1381 699 1397 q 667 1298 697 1333 q 589 1244 636 1263 q 488 1225 542 1225 m 488 -275 q 442 -256 461 -275 q 424 -210 424 -237 q 444 -162 424 -178 q 489 -146 464 -146 q 533 -162 513 -146 q 553 -210 553 -178 q 534 -256 553 -237 q 488 -275 515 -275 z "},"Ằ":{"ha":976,"x_min":21,"x_max":965,"o":"m 68 0 q 31 21 42 0 q 31 60 21 42 l 451 1056 q 492 1085 463 1085 q 532 1056 519 1085 l 954 60 q 953 20 965 40 q 917 0 940 0 q 894 6 903 0 q 878 26 885 13 l 469 1000 l 514 1000 l 107 26 q 92 6 101 13 q 68 0 82 0 m 171 272 l 204 347 l 782 347 l 814 272 l 171 272 m 488 1225 q 382 1246 431 1225 q 305 1302 333 1267 q 276 1379 276 1338 q 289 1410 276 1397 q 319 1422 301 1422 q 349 1410 338 1422 q 361 1379 361 1397 q 394 1324 361 1349 q 488 1300 428 1300 q 581 1324 547 1300 q 615 1379 615 1347 q 627 1410 615 1397 q 657 1422 639 1422 q 687 1410 675 1422 q 700 1381 699 1397 q 667 1298 697 1333 q 589 1244 636 1263 q 488 1225 542 1225 m 490 1439 q 461 1450 476 1439 l 290 1621 q 279 1650 279 1632 q 292 1681 279 1669 q 322 1693 304 1693 q 351 1681 339 1693 l 522 1510 q 532 1482 532 1500 q 520 1451 532 1464 q 490 1439 508 1439 z "},"Ẳ":{"ha":976,"x_min":21,"x_max":965,"o":"m 68 0 q 31 21 42 0 q 31 60 21 42 l 451 1056 q 492 1085 463 1085 q 532 1056 519 1085 l 954 60 q 953 20 965 40 q 917 0 940 0 q 894 6 903 0 q 878 26 885 13 l 469 1000 l 514 1000 l 107 26 q 92 6 101 13 q 68 0 82 0 m 171 272 l 204 347 l 782 347 l 814 272 l 171 272 m 488 1225 q 382 1246 431 1225 q 305 1302 333 1267 q 276 1379 276 1338 q 289 1410 276 1397 q 319 1422 301 1422 q 349 1410 338 1422 q 361 1379 361 1397 q 394 1324 361 1349 q 488 1300 428 1300 q 581 1324 547 1300 q 615 1379 615 1347 q 627 1410 615 1397 q 657 1422 639 1422 q 687 1410 675 1422 q 700 1381 699 1397 q 667 1298 697 1333 q 589 1244 636 1263 q 488 1225 542 1225 m 486 1379 q 458 1391 469 1379 q 446 1419 446 1403 l 446 1465 q 482 1510 446 1501 l 515 1517 q 561 1539 549 1524 q 574 1581 574 1554 q 551 1633 574 1614 q 497 1651 529 1651 q 467 1646 481 1651 q 439 1629 453 1640 q 426 1622 433 1625 q 413 1619 419 1619 q 384 1631 396 1619 q 372 1660 372 1643 q 386 1690 372 1679 q 438 1721 410 1710 q 497 1732 467 1732 q 608 1694 563 1732 q 654 1589 654 1656 q 616 1494 654 1528 q 526 1453 578 1461 l 526 1419 q 515 1391 526 1403 q 486 1379 503 1379 z "},"Ẵ":{"ha":976,"x_min":21,"x_max":965,"o":"m 68 0 q 31 21 42 0 q 31 60 21 42 l 451 1056 q 492 1085 463 1085 q 532 1056 519 1085 l 954 60 q 953 20 965 40 q 917 0 940 0 q 894 6 903 0 q 878 26 885 13 l 469 1000 l 514 1000 l 107 26 q 92 6 101 13 q 68 0 82 0 m 171 272 l 204 347 l 782 347 l 814 272 l 171 272 m 488 1225 q 382 1246 431 1225 q 305 1302 333 1267 q 276 1379 276 1338 q 289 1410 276 1397 q 319 1422 301 1422 q 349 1410 338 1422 q 361 1379 361 1397 q 394 1324 361 1349 q 488 1300 428 1300 q 581 1324 547 1300 q 615 1379 615 1347 q 627 1410 615 1397 q 657 1422 639 1422 q 687 1410 675 1422 q 700 1381 699 1397 q 667 1298 697 1333 q 589 1244 636 1263 q 488 1225 542 1225 m 574 1457 q 514 1474 540 1457 q 472 1504 488 1490 q 437 1535 451 1525 q 404 1544 422 1544 q 374 1528 386 1544 q 346 1485 361 1513 q 324 1463 338 1469 q 296 1461 310 1457 q 275 1481 281 1467 q 276 1513 269 1496 q 331 1592 300 1568 q 403 1615 361 1615 q 460 1602 439 1615 q 503 1569 481 1589 q 544 1539 531 1547 q 568 1531 557 1531 q 604 1572 589 1531 q 626 1597 611 1589 q 654 1601 640 1606 q 681 1582 674 1596 q 681 1550 688 1568 q 633 1478 660 1499 q 574 1457 607 1457 z "},"Â":{"ha":976,"x_min":21,"x_max":965,"o":"m 68 0 q 31 21 42 0 q 31 60 21 42 l 451 1056 q 492 1085 463 1085 q 532 1056 519 1085 l 954 60 q 953 20 965 40 q 917 0 940 0 q 894 6 903 0 q 878 26 885 13 l 469 1000 l 514 1000 l 107 26 q 92 6 101 13 q 68 0 82 0 m 171 272 l 204 347 l 782 347 l 814 272 l 171 272 m 322 1225 q 291 1237 304 1225 q 278 1267 278 1249 q 300 1304 278 1290 l 468 1417 q 489 1422 479 1422 q 501 1421 496 1422 q 510 1417 506 1419 l 678 1304 q 700 1267 700 1290 q 688 1237 700 1249 q 657 1225 676 1225 q 643 1227 649 1225 q 631 1233 638 1229 l 489 1328 l 347 1233 q 322 1225 335 1225 z "},"Ấ":{"ha":976,"x_min":21,"x_max":965,"o":"m 68 0 q 31 21 42 0 q 31 60 21 42 l 451 1056 q 492 1085 463 1085 q 532 1056 519 1085 l 954 60 q 953 20 965 40 q 917 0 940 0 q 894 6 903 0 q 878 26 885 13 l 469 1000 l 514 1000 l 107 26 q 92 6 101 13 q 68 0 82 0 m 171 272 l 204 347 l 782 347 l 814 272 l 171 272 m 322 1225 q 291 1237 304 1225 q 278 1267 278 1249 q 300 1304 278 1290 l 468 1417 q 489 1422 479 1422 q 501 1421 496 1422 q 510 1417 506 1419 l 678 1304 q 700 1267 700 1290 q 688 1237 700 1249 q 657 1225 676 1225 q 643 1227 649 1225 q 631 1233 638 1229 l 489 1328 l 347 1233 q 322 1225 335 1225 m 594 1456 q 564 1468 576 1456 q 551 1499 551 1481 q 561 1526 551 1514 l 732 1697 q 763 1710 744 1710 q 793 1698 781 1710 q 806 1667 806 1686 q 803 1652 806 1660 q 793 1638 800 1644 l 622 1467 q 594 1456 611 1456 z "},"Ậ":{"ha":976,"x_min":21,"x_max":965,"o":"m 68 0 q 31 21 42 0 q 31 60 21 42 l 451 1056 q 492 1085 463 1085 q 532 1056 519 1085 l 954 60 q 953 20 965 40 q 917 0 940 0 q 894 6 903 0 q 878 26 885 13 l 469 1000 l 514 1000 l 107 26 q 92 6 101 13 q 68 0 82 0 m 171 272 l 204 347 l 782 347 l 814 272 l 171 272 m 322 1225 q 291 1237 304 1225 q 278 1267 278 1249 q 300 1304 278 1290 l 468 1417 q 489 1422 479 1422 q 501 1421 496 1422 q 510 1417 506 1419 l 678 1304 q 700 1267 700 1290 q 688 1237 700 1249 q 657 1225 676 1225 q 643 1227 649 1225 q 631 1233 638 1229 l 489 1328 l 347 1233 q 322 1225 335 1225 m 488 -275 q 442 -256 461 -275 q 424 -210 424 -237 q 444 -162 424 -178 q 489 -146 464 -146 q 533 -162 513 -146 q 553 -210 553 -178 q 534 -256 553 -237 q 488 -275 515 -275 z "},"Ầ":{"ha":976,"x_min":21,"x_max":965,"o":"m 68 0 q 31 21 42 0 q 31 60 21 42 l 451 1056 q 492 1085 463 1085 q 532 1056 519 1085 l 954 60 q 953 20 965 40 q 917 0 940 0 q 894 6 903 0 q 878 26 885 13 l 469 1000 l 514 1000 l 107 26 q 92 6 101 13 q 68 0 82 0 m 171 272 l 204 347 l 782 347 l 814 272 l 171 272 m 322 1225 q 291 1237 304 1225 q 278 1267 278 1249 q 300 1304 278 1290 l 468 1417 q 489 1422 479 1422 q 501 1421 496 1422 q 510 1417 506 1419 l 678 1304 q 700 1267 700 1290 q 688 1237 700 1249 q 657 1225 676 1225 q 643 1227 649 1225 q 631 1233 638 1229 l 489 1328 l 347 1233 q 322 1225 335 1225 m 617 1471 q 588 1482 603 1471 l 417 1653 q 406 1682 406 1664 q 418 1713 406 1701 q 449 1725 431 1725 q 478 1713 465 1725 l 649 1542 q 658 1514 658 1532 q 647 1483 658 1496 q 617 1471 635 1471 z "},"Ẩ":{"ha":976,"x_min":21,"x_max":965,"o":"m 68 0 q 31 21 42 0 q 31 60 21 42 l 451 1056 q 492 1085 463 1085 q 532 1056 519 1085 l 954 60 q 953 20 965 40 q 917 0 940 0 q 894 6 903 0 q 878 26 885 13 l 469 1000 l 514 1000 l 107 26 q 92 6 101 13 q 68 0 82 0 m 171 272 l 204 347 l 782 347 l 814 272 l 171 272 m 324 1225 q 292 1237 306 1225 q 279 1267 279 1249 q 301 1304 279 1290 l 469 1417 q 490 1422 481 1422 q 502 1421 497 1422 q 511 1417 507 1419 l 679 1304 q 701 1267 701 1290 q 690 1237 701 1249 q 658 1225 678 1225 q 644 1227 650 1225 q 632 1233 639 1229 l 490 1328 l 349 1233 q 324 1225 336 1225 m 614 1411 q 585 1423 597 1411 q 574 1451 574 1435 l 574 1497 q 610 1542 574 1533 l 643 1549 q 689 1571 676 1556 q 701 1613 701 1586 q 679 1665 701 1646 q 625 1683 657 1683 q 594 1678 608 1683 q 567 1661 581 1672 q 554 1654 561 1657 q 540 1651 547 1651 q 512 1663 524 1651 q 500 1692 500 1675 q 514 1722 500 1711 q 566 1753 538 1742 q 625 1764 594 1764 q 736 1726 690 1764 q 782 1621 782 1688 q 744 1526 782 1560 q 654 1485 706 1493 l 654 1451 q 642 1423 654 1435 q 614 1411 631 1411 z "},"Ẫ":{"ha":976,"x_min":21,"x_max":965,"o":"m 68 0 q 31 21 42 0 q 31 60 21 42 l 451 1056 q 492 1085 463 1085 q 532 1056 519 1085 l 954 60 q 953 20 965 40 q 917 0 940 0 q 894 6 903 0 q 878 26 885 13 l 469 1000 l 514 1000 l 107 26 q 92 6 101 13 q 68 0 82 0 m 171 272 l 204 347 l 782 347 l 814 272 l 171 272 m 322 1225 q 291 1237 304 1225 q 278 1267 278 1249 q 300 1304 278 1290 l 468 1417 q 489 1422 479 1422 q 501 1421 496 1422 q 510 1417 506 1419 l 678 1304 q 700 1267 700 1290 q 688 1237 700 1249 q 657 1225 676 1225 q 643 1227 649 1225 q 631 1233 638 1229 l 489 1328 l 347 1233 q 322 1225 335 1225 m 572 1461 q 513 1478 539 1461 q 471 1508 486 1494 q 435 1539 450 1529 q 403 1549 421 1549 q 372 1533 385 1549 q 344 1489 360 1517 q 322 1467 336 1474 q 294 1465 308 1461 q 274 1485 279 1471 q 275 1517 268 1500 q 329 1596 299 1572 q 401 1619 360 1619 q 458 1606 438 1619 q 501 1574 479 1593 q 542 1543 529 1551 q 567 1535 556 1535 q 603 1576 588 1535 q 624 1601 610 1593 q 653 1606 639 1610 q 679 1586 672 1600 q 679 1554 686 1572 q 632 1482 658 1503 q 572 1461 606 1461 z "},"Ȁ":{"ha":976,"x_min":21,"x_max":965,"o":"m 68 0 q 31 21 42 0 q 31 60 21 42 l 451 1056 q 492 1085 463 1085 q 532 1056 519 1085 l 954 60 q 953 20 965 40 q 917 0 940 0 q 894 6 903 0 q 878 26 885 13 l 469 1000 l 514 1000 l 107 26 q 92 6 101 13 q 68 0 82 0 m 171 272 l 204 347 l 782 347 l 814 272 l 171 272 m 646 1199 q 617 1218 626 1199 l 526 1408 q 524 1424 524 1417 q 535 1452 524 1439 q 567 1465 547 1465 q 590 1458 579 1465 q 606 1439 600 1451 l 669 1239 q 671 1226 671 1236 q 663 1206 671 1213 q 646 1199 656 1199 m 426 1199 q 399 1218 407 1199 l 308 1408 q 306 1415 307 1411 q 306 1424 306 1419 q 317 1452 306 1439 q 349 1465 329 1465 q 372 1458 361 1465 q 386 1439 382 1451 l 451 1239 q 453 1234 453 1238 q 453 1226 453 1231 q 445 1206 453 1213 q 426 1199 438 1199 z "},"Ä":{"ha":976,"x_min":21,"x_max":965,"o":"m 68 0 q 31 21 42 0 q 31 60 21 42 l 451 1056 q 492 1085 463 1085 q 532 1056 519 1085 l 954 60 q 953 20 965 40 q 917 0 940 0 q 894 6 903 0 q 878 26 885 13 l 469 1000 l 514 1000 l 107 26 q 92 6 101 13 q 68 0 82 0 m 171 272 l 204 347 l 782 347 l 814 272 l 171 272 m 350 1238 q 299 1258 319 1238 q 278 1310 278 1279 q 299 1360 278 1339 q 350 1381 319 1381 q 401 1360 381 1381 q 421 1310 421 1339 q 401 1258 421 1279 q 350 1238 381 1238 m 628 1238 q 576 1258 597 1238 q 556 1310 556 1279 q 576 1360 556 1339 q 628 1381 597 1381 q 678 1360 658 1381 q 699 1310 699 1339 q 678 1258 699 1279 q 628 1238 658 1238 z "},"Ạ":{"ha":976,"x_min":21,"x_max":965,"o":"m 68 0 q 31 21 42 0 q 31 60 21 42 l 451 1056 q 492 1085 463 1085 q 532 1056 519 1085 l 954 60 q 953 20 965 40 q 917 0 940 0 q 894 6 903 0 q 878 26 885 13 l 469 1000 l 514 1000 l 107 26 q 92 6 101 13 q 68 0 82 0 m 171 272 l 204 347 l 782 347 l 814 272 l 171 272 m 488 -275 q 442 -256 461 -275 q 424 -210 424 -237 q 444 -162 424 -178 q 489 -146 464 -146 q 533 -162 513 -146 q 553 -210 553 -178 q 534 -256 553 -237 q 488 -275 515 -275 z "},"À":{"ha":976,"x_min":21,"x_max":965,"o":"m 68 0 q 31 21 42 0 q 31 60 21 42 l 451 1056 q 492 1085 463 1085 q 532 1056 519 1085 l 954 60 q 953 20 965 40 q 917 0 940 0 q 894 6 903 0 q 878 26 885 13 l 469 1000 l 514 1000 l 107 26 q 92 6 101 13 q 68 0 82 0 m 171 272 l 204 347 l 782 347 l 814 272 l 171 272 m 490 1213 q 461 1224 476 1213 l 290 1394 q 279 1424 279 1406 q 292 1455 279 1443 q 322 1467 304 1467 q 351 1454 339 1467 l 522 1283 q 532 1256 532 1274 q 520 1225 532 1238 q 490 1213 508 1213 z "},"Ả":{"ha":976,"x_min":21,"x_max":965,"o":"m 68 0 q 31 21 42 0 q 31 60 21 42 l 451 1056 q 492 1085 463 1085 q 532 1056 519 1085 l 954 60 q 953 20 965 40 q 917 0 940 0 q 894 6 903 0 q 878 26 885 13 l 469 1000 l 514 1000 l 107 26 q 92 6 101 13 q 68 0 82 0 m 171 272 l 204 347 l 782 347 l 814 272 l 171 272 m 486 1153 q 458 1165 469 1153 q 446 1193 446 1176 l 446 1239 q 482 1283 446 1275 l 515 1290 q 561 1313 549 1297 q 574 1354 574 1328 q 551 1406 574 1388 q 497 1425 529 1425 q 467 1419 481 1425 q 439 1403 453 1414 q 426 1396 433 1399 q 413 1393 419 1393 q 384 1405 396 1393 q 372 1433 372 1417 q 386 1464 372 1453 q 438 1494 410 1483 q 497 1506 467 1506 q 608 1467 563 1506 q 654 1363 654 1429 q 616 1268 654 1301 q 526 1226 578 1235 l 526 1193 q 515 1165 526 1176 q 486 1153 503 1153 z "},"Ȃ":{"ha":976,"x_min":21,"x_max":965,"o":"m 68 0 q 31 21 42 0 q 31 60 21 42 l 451 1056 q 492 1085 463 1085 q 532 1056 519 1085 l 954 60 q 953 20 965 40 q 917 0 940 0 q 894 6 903 0 q 878 26 885 13 l 469 1000 l 514 1000 l 107 26 q 92 6 101 13 q 68 0 82 0 m 171 272 l 204 347 l 782 347 l 814 272 l 171 272 m 319 1225 q 289 1238 301 1225 q 276 1268 276 1250 q 305 1346 276 1311 q 382 1401 333 1381 q 488 1422 431 1422 q 589 1403 542 1422 q 667 1350 636 1385 q 700 1267 697 1315 q 687 1238 699 1250 q 657 1225 675 1225 q 627 1238 639 1225 q 615 1268 615 1250 q 581 1324 615 1300 q 488 1347 547 1347 q 394 1324 428 1347 q 361 1268 361 1300 q 349 1238 361 1250 q 319 1225 338 1225 z "},"Ā":{"ha":976,"x_min":21,"x_max":965,"o":"m 68 0 q 31 21 42 0 q 31 60 21 42 l 451 1056 q 492 1085 463 1085 q 532 1056 519 1085 l 954 60 q 953 20 965 40 q 917 0 940 0 q 894 6 903 0 q 878 26 885 13 l 469 1000 l 514 1000 l 107 26 q 92 6 101 13 q 68 0 82 0 m 171 272 l 204 347 l 782 347 l 814 272 l 171 272 m 304 1243 q 274 1255 286 1243 q 263 1285 263 1267 q 274 1315 263 1303 q 304 1328 286 1328 l 672 1328 q 702 1315 690 1328 q 714 1285 714 1303 q 702 1255 714 1267 q 672 1243 690 1243 l 304 1243 z "},"Ą":{"ha":976,"x_min":21,"x_max":1069,"o":"m 68 0 q 31 21 42 0 q 31 60 21 42 l 451 1056 q 492 1085 463 1085 q 532 1056 519 1085 l 954 60 q 953 20 965 40 q 917 0 940 0 q 894 6 903 0 q 878 26 885 13 l 469 1000 l 514 1000 l 107 26 q 92 6 101 13 q 68 0 82 0 m 171 272 l 204 347 l 782 347 l 814 272 l 171 272 m 914 -322 q 838 -301 872 -322 q 781 -246 803 -281 q 760 -168 760 -211 q 825 -42 760 -94 q 859 -10 846 -25 q 878 19 872 6 q 914 40 889 40 q 945 29 933 40 q 957 0 957 18 q 935 -53 957 -26 q 874 -111 914 -81 q 852 -137 860 -122 q 844 -168 844 -153 q 865 -217 844 -197 q 914 -237 885 -237 q 933 -235 924 -237 q 953 -226 943 -232 l 1001 -190 q 1026 -182 1014 -182 q 1057 -194 1044 -182 q 1069 -225 1069 -207 q 1056 -257 1069 -246 l 999 -296 q 914 -322 960 -322 z "},"Å":{"ha":976,"x_min":21,"x_max":965,"o":"m 68 0 q 31 21 42 0 q 31 60 21 42 l 451 1056 q 492 1085 463 1085 q 532 1056 519 1085 l 954 60 q 953 20 965 40 q 917 0 940 0 q 894 6 903 0 q 878 26 885 13 l 469 1000 l 514 1000 l 107 26 q 92 6 101 13 q 68 0 82 0 m 171 272 l 204 347 l 782 347 l 814 272 l 171 272 m 489 1154 q 399 1192 438 1154 q 361 1282 361 1231 q 399 1373 361 1336 q 489 1410 438 1410 q 579 1372 542 1410 q 617 1282 617 1335 q 580 1192 617 1231 q 489 1154 543 1154 m 489 1208 q 542 1230 521 1208 q 564 1282 564 1251 q 542 1335 564 1314 q 489 1357 521 1357 q 437 1335 458 1357 q 415 1282 415 1314 q 437 1230 415 1251 q 489 1208 458 1208 z "},"Ǻ":{"ha":976,"x_min":21,"x_max":965,"o":"m 68 0 q 31 21 42 0 q 31 60 21 42 l 451 1056 q 492 1085 463 1085 q 532 1056 519 1085 l 954 60 q 953 20 965 40 q 917 0 940 0 q 894 6 903 0 q 878 26 885 13 l 469 1000 l 514 1000 l 107 26 q 92 6 101 13 q 68 0 82 0 m 171 272 l 204 347 l 782 347 l 814 272 l 171 272 m 489 1154 q 399 1192 438 1154 q 361 1282 361 1231 q 399 1373 361 1336 q 489 1410 438 1410 q 579 1372 542 1410 q 617 1282 617 1335 q 580 1192 617 1231 q 489 1154 543 1154 m 489 1208 q 542 1230 521 1208 q 564 1282 564 1251 q 542 1335 564 1314 q 489 1357 521 1357 q 437 1335 458 1357 q 415 1282 415 1314 q 437 1230 415 1251 q 489 1208 458 1208 m 468 1467 q 438 1479 450 1467 q 425 1510 425 1492 q 435 1538 425 1525 l 606 1708 q 636 1721 618 1721 q 667 1709 654 1721 q 679 1678 679 1697 q 676 1663 679 1671 q 667 1649 674 1656 l 496 1478 q 468 1467 485 1467 z "},"Ã":{"ha":976,"x_min":21,"x_max":965,"o":"m 68 0 q 31 21 42 0 q 31 60 21 42 l 451 1056 q 492 1085 463 1085 q 532 1056 519 1085 l 954 60 q 953 20 965 40 q 917 0 940 0 q 894 6 903 0 q 878 26 885 13 l 469 1000 l 514 1000 l 107 26 q 92 6 101 13 q 68 0 82 0 m 171 272 l 204 347 l 782 347 l 814 272 l 171 272 m 574 1231 q 514 1247 540 1231 q 472 1278 488 1264 q 437 1308 451 1299 q 404 1318 422 1318 q 374 1302 386 1318 q 346 1258 361 1286 q 324 1237 338 1243 q 296 1235 310 1231 q 275 1255 281 1240 q 276 1286 269 1269 q 331 1365 300 1342 q 403 1389 361 1389 q 460 1376 439 1389 q 503 1343 481 1363 q 544 1313 531 1321 q 568 1304 557 1304 q 604 1346 589 1304 q 626 1371 611 1363 q 654 1375 640 1379 q 681 1356 674 1369 q 681 1324 688 1342 q 633 1251 660 1272 q 574 1231 607 1231 z "},"Æ":{"ha":1294,"x_min":25,"x_max":1232,"o":"m 69 0 q 42 10 53 0 q 28 34 31 19 q 32 60 25 49 l 613 1046 q 642 1076 625 1067 q 686 1085 658 1085 l 1190 1085 q 1219 1073 1207 1085 q 1232 1043 1232 1061 q 1219 1014 1232 1026 q 1190 1001 1207 1001 l 703 1001 l 703 585 l 1024 585 q 1053 573 1042 585 q 1065 543 1065 561 q 1053 513 1065 525 q 1024 500 1042 500 l 703 500 l 703 83 l 1190 83 q 1219 71 1207 83 q 1232 42 1232 58 q 1219 12 1232 24 q 1190 0 1207 0 l 661 0 q 631 12 643 0 q 619 42 619 24 l 619 272 l 253 272 l 108 26 q 69 0 99 0 m 297 347 l 619 347 l 619 957 l 651 949 l 297 347 z "},"Ǽ":{"ha":1294,"x_min":25,"x_max":1232,"o":"m 69 0 q 42 10 53 0 q 28 34 31 19 q 32 60 25 49 l 613 1046 q 642 1076 625 1067 q 686 1085 658 1085 l 1190 1085 q 1219 1073 1207 1085 q 1232 1043 1232 1061 q 1219 1014 1232 1026 q 1190 1001 1207 1001 l 703 1001 l 703 585 l 1024 585 q 1053 573 1042 585 q 1065 543 1065 561 q 1053 513 1065 525 q 1024 500 1042 500 l 703 500 l 703 83 l 1190 83 q 1219 71 1207 83 q 1232 42 1232 58 q 1219 12 1232 24 q 1190 0 1207 0 l 661 0 q 631 12 643 0 q 619 42 619 24 l 619 272 l 253 272 l 108 26 q 69 0 99 0 m 297 347 l 619 347 l 619 957 l 651 949 l 297 347 m 767 1197 q 736 1210 749 1197 q 724 1240 724 1222 q 733 1268 724 1256 l 904 1439 q 935 1451 917 1451 q 965 1440 953 1451 q 978 1408 978 1428 q 975 1394 978 1401 q 965 1379 972 1386 l 794 1208 q 767 1197 783 1197 z "},"B":{"ha":938,"x_min":139,"x_max":861,"o":"m 193 0 q 154 10 169 0 q 139 42 139 21 l 139 1043 q 151 1074 139 1063 q 181 1085 163 1085 l 521 1085 q 663 1051 599 1085 q 765 958 726 1017 q 804 822 804 899 q 762 681 804 742 q 651 590 719 621 q 803 493 746 564 q 861 315 861 422 q 820 152 861 224 q 707 40 779 81 q 542 0 635 0 l 193 0 m 222 83 l 542 83 q 664 113 611 83 q 747 195 717 143 q 778 315 778 247 q 747 433 778 382 q 664 514 717 485 q 542 543 611 543 l 222 543 l 222 83 m 222 626 l 521 626 q 665 680 608 626 q 721 822 721 733 q 665 955 721 908 q 521 1001 608 1001 l 222 1001 l 222 626 z "},"C":{"ha":1065,"x_min":83,"x_max":982,"o":"m 626 -14 q 417 30 515 -14 q 244 151 319 74 q 126 328 169 228 q 83 543 83 429 q 125 756 83 656 q 241 934 167 857 q 414 1055 315 1011 q 626 1099 513 1099 q 808 1068 722 1099 q 969 975 894 1038 q 982 948 982 965 q 971 917 982 931 q 940 904 960 904 q 929 906 935 904 q 918 912 924 908 q 906 921 913 915 q 779 993 850 971 q 626 1015 708 1015 q 450 977 533 1015 q 303 873 367 939 q 203 722 239 807 q 167 543 167 638 q 203 360 167 446 q 302 208 239 274 q 449 106 365 143 q 626 69 532 69 q 780 94 708 69 q 914 171 851 119 q 940 178 925 181 q 967 164 956 175 q 978 135 978 153 q 976 119 978 126 q 968 106 975 113 q 810 12 900 38 q 626 -14 721 -14 z "},"Ć":{"ha":1065,"x_min":83,"x_max":982,"o":"m 626 -14 q 417 30 515 -14 q 244 151 319 74 q 126 328 169 228 q 83 543 83 429 q 125 756 83 656 q 241 934 167 857 q 414 1055 315 1011 q 626 1099 513 1099 q 808 1068 722 1099 q 969 975 894 1038 q 982 948 982 965 q 971 917 982 931 q 940 904 960 904 q 929 906 935 904 q 918 912 924 908 q 906 921 913 915 q 779 993 850 971 q 626 1015 708 1015 q 450 977 533 1015 q 303 873 367 939 q 203 722 239 807 q 167 543 167 638 q 203 360 167 446 q 302 208 239 274 q 449 106 365 143 q 626 69 532 69 q 780 94 708 69 q 914 171 851 119 q 940 178 925 181 q 967 164 956 175 q 978 135 978 153 q 976 119 978 126 q 968 106 975 113 q 810 12 900 38 q 626 -14 721 -14 m 596 1197 q 565 1210 578 1197 q 553 1240 553 1222 q 563 1268 553 1256 l 733 1439 q 764 1451 746 1451 q 794 1440 782 1451 q 807 1408 807 1428 q 804 1394 807 1401 q 794 1379 801 1386 l 624 1208 q 596 1197 613 1197 z "},"Č":{"ha":1065,"x_min":83,"x_max":982,"o":"m 626 -14 q 417 30 515 -14 q 244 151 319 74 q 126 328 169 228 q 83 543 83 429 q 125 756 83 656 q 241 934 167 857 q 414 1055 315 1011 q 626 1099 513 1099 q 808 1068 722 1099 q 969 975 894 1038 q 982 948 982 965 q 971 917 982 931 q 940 904 960 904 q 929 906 935 904 q 918 912 924 908 q 906 921 913 915 q 779 993 850 971 q 626 1015 708 1015 q 450 977 533 1015 q 303 873 367 939 q 203 722 239 807 q 167 543 167 638 q 203 360 167 446 q 302 208 239 274 q 449 106 365 143 q 626 69 532 69 q 780 94 708 69 q 914 171 851 119 q 940 178 925 181 q 967 164 956 175 q 978 135 978 153 q 976 119 978 126 q 968 106 975 113 q 810 12 900 38 q 626 -14 721 -14 m 617 1225 q 596 1231 603 1225 l 428 1342 q 406 1379 406 1356 q 426 1414 406 1403 q 475 1406 447 1425 l 617 1308 l 758 1403 q 808 1413 788 1422 q 828 1379 828 1403 q 806 1342 828 1358 l 638 1231 q 617 1225 631 1225 z "},"Ç":{"ha":1065,"x_min":83,"x_max":982,"o":"m 626 -14 q 417 30 515 -14 q 244 151 319 74 q 126 328 169 228 q 83 543 83 429 q 125 756 83 656 q 241 934 167 857 q 414 1055 315 1011 q 626 1099 513 1099 q 808 1068 722 1099 q 969 975 894 1038 q 982 948 982 965 q 971 917 982 931 q 940 904 960 904 q 929 906 935 904 q 918 912 924 908 q 906 921 913 915 q 779 993 850 971 q 626 1015 708 1015 q 450 977 533 1015 q 303 873 367 939 q 203 722 239 807 q 167 543 167 638 q 203 360 167 446 q 302 208 239 274 q 449 106 365 143 q 626 69 532 69 q 780 94 708 69 q 914 171 851 119 q 940 178 925 181 q 967 164 956 175 q 978 135 978 153 q 976 119 978 126 q 968 106 975 113 q 810 12 900 38 q 626 -14 721 -14 m 608 -322 q 497 -294 540 -322 q 454 -231 454 -265 q 466 -200 454 -212 q 496 -187 478 -187 q 522 -196 511 -187 q 544 -214 532 -204 q 569 -230 556 -222 q 608 -237 582 -237 q 667 -222 643 -237 q 690 -181 690 -207 q 672 -137 690 -153 q 611 -110 654 -122 q 572 -90 585 -103 q 574 -46 560 -78 l 601 22 q 619 44 607 36 q 650 53 631 53 q 681 37 671 53 q 683 0 692 21 l 663 -50 q 760 -104 736 -72 q 785 -178 785 -136 q 760 -251 785 -218 q 695 -303 735 -285 q 608 -322 656 -322 z "},"Ĉ":{"ha":1065,"x_min":83,"x_max":982,"o":"m 626 -14 q 417 30 515 -14 q 244 151 319 74 q 126 328 169 228 q 83 543 83 429 q 125 756 83 656 q 241 934 167 857 q 414 1055 315 1011 q 626 1099 513 1099 q 808 1068 722 1099 q 969 975 894 1038 q 982 948 982 965 q 971 917 982 931 q 940 904 960 904 q 929 906 935 904 q 918 912 924 908 q 906 921 913 915 q 779 993 850 971 q 626 1015 708 1015 q 450 977 533 1015 q 303 873 367 939 q 203 722 239 807 q 167 543 167 638 q 203 360 167 446 q 302 208 239 274 q 449 106 365 143 q 626 69 532 69 q 780 94 708 69 q 914 171 851 119 q 940 178 925 181 q 967 164 956 175 q 978 135 978 153 q 976 119 978 126 q 968 106 975 113 q 810 12 900 38 q 626 -14 721 -14 m 450 1225 q 419 1237 432 1225 q 406 1267 406 1249 q 428 1304 406 1290 l 596 1417 q 617 1422 607 1422 q 628 1421 624 1422 q 638 1417 633 1419 l 806 1304 q 828 1267 828 1290 q 816 1237 828 1249 q 785 1225 804 1225 q 771 1227 776 1225 q 758 1233 765 1229 l 617 1328 l 475 1233 q 450 1225 463 1225 z "},"Ċ":{"ha":1065,"x_min":83,"x_max":982,"o":"m 626 -14 q 417 30 515 -14 q 244 151 319 74 q 126 328 169 228 q 83 543 83 429 q 125 756 83 656 q 241 934 167 857 q 414 1055 315 1011 q 626 1099 513 1099 q 808 1068 722 1099 q 969 975 894 1038 q 982 948 982 965 q 971 917 982 931 q 940 904 960 904 q 929 906 935 904 q 918 912 924 908 q 906 921 913 915 q 779 993 850 971 q 626 1015 708 1015 q 450 977 533 1015 q 303 873 367 939 q 203 722 239 807 q 167 543 167 638 q 203 360 167 446 q 302 208 239 274 q 449 106 365 143 q 626 69 532 69 q 780 94 708 69 q 914 171 851 119 q 940 178 925 181 q 967 164 956 175 q 978 135 978 153 q 976 119 978 126 q 968 106 975 113 q 810 12 900 38 q 626 -14 721 -14 m 615 1244 q 570 1263 589 1244 q 551 1310 551 1282 q 572 1358 551 1342 q 617 1374 592 1374 q 660 1358 640 1374 q 681 1310 681 1342 q 662 1263 681 1282 q 615 1244 643 1244 z "},"D":{"ha":1057,"x_min":139,"x_max":974,"o":"m 181 0 q 151 12 163 0 q 139 42 139 24 l 139 1043 q 151 1074 139 1063 q 181 1085 163 1085 l 431 1085 q 649 1045 550 1085 q 822 933 749 1006 q 934 761 894 860 q 974 543 974 663 q 934 324 974 424 q 822 152 894 225 q 649 40 749 79 q 431 0 550 0 l 181 0 m 222 75 l 431 75 q 669 136 565 75 q 831 303 772 197 q 890 543 890 408 q 831 783 890 678 q 669 949 772 888 q 431 1010 565 1010 l 222 1010 l 222 75 z "},"Ð":{"ha":1057,"x_min":0,"x_max":974,"o":"m 38 506 q 10 516 21 506 q 0 543 0 526 q 10 570 0 560 q 38 581 21 581 l 451 581 q 478 570 468 581 q 489 543 489 560 q 478 516 489 526 q 451 506 468 506 l 38 506 m 181 0 q 151 12 163 0 q 139 42 139 24 l 139 1043 q 151 1074 139 1063 q 181 1085 163 1085 l 431 1085 q 649 1045 550 1085 q 822 933 749 1006 q 934 761 894 860 q 974 543 974 663 q 934 324 974 424 q 822 152 894 225 q 649 40 749 79 q 431 0 550 0 l 181 0 m 222 75 l 431 75 q 669 136 565 75 q 831 303 772 197 q 890 543 890 408 q 831 783 890 678 q 669 949 772 888 q 431 1010 565 1010 l 222 1010 l 222 75 z "},"Ď":{"ha":1057,"x_min":139,"x_max":974,"o":"m 181 0 q 151 12 163 0 q 139 42 139 24 l 139 1043 q 151 1074 139 1063 q 181 1085 163 1085 l 431 1085 q 649 1045 550 1085 q 822 933 749 1006 q 934 761 894 860 q 974 543 974 663 q 934 324 974 424 q 822 152 894 225 q 649 40 749 79 q 431 0 550 0 l 181 0 m 222 75 l 431 75 q 669 136 565 75 q 831 303 772 197 q 890 543 890 408 q 831 783 890 678 q 669 949 772 888 q 431 1010 565 1010 l 222 1010 l 222 75 m 529 1225 q 508 1231 515 1225 l 340 1342 q 318 1379 318 1356 q 339 1414 318 1403 q 388 1406 360 1425 l 529 1308 l 671 1403 q 720 1413 700 1422 q 740 1379 740 1403 q 718 1342 740 1358 l 550 1231 q 529 1225 543 1225 z "},"Đ":{"ha":1057,"x_min":0,"x_max":974,"o":"m 38 506 q 10 516 21 506 q 0 543 0 526 q 10 570 0 560 q 38 581 21 581 l 451 581 q 478 570 468 581 q 489 543 489 560 q 478 516 489 526 q 451 506 468 506 l 38 506 m 181 0 q 151 12 163 0 q 139 42 139 24 l 139 1043 q 151 1074 139 1063 q 181 1085 163 1085 l 431 1085 q 649 1045 550 1085 q 822 933 749 1006 q 934 761 894 860 q 974 543 974 663 q 934 324 974 424 q 822 152 894 225 q 649 40 749 79 q 431 0 550 0 l 181 0 m 222 75 l 431 75 q 669 136 565 75 q 831 303 772 197 q 890 543 890 408 q 831 783 890 678 q 669 949 772 888 q 431 1010 565 1010 l 222 1010 l 222 75 z "},"E":{"ha":953,"x_min":139,"x_max":890,"o":"m 181 0 q 151 12 163 0 q 139 42 139 24 l 139 1043 q 151 1073 139 1061 q 181 1085 163 1085 l 849 1085 q 878 1073 865 1085 q 890 1043 890 1061 q 878 1014 890 1026 q 849 1001 865 1001 l 222 1001 l 222 585 l 682 585 q 712 573 700 585 q 724 543 724 561 q 712 513 724 525 q 682 500 700 500 l 222 500 l 222 83 l 849 83 q 878 71 865 83 q 890 42 890 58 q 878 12 890 24 q 849 0 865 0 l 181 0 z "},"É":{"ha":953,"x_min":139,"x_max":890,"o":"m 181 0 q 151 12 163 0 q 139 42 139 24 l 139 1043 q 151 1073 139 1061 q 181 1085 163 1085 l 849 1085 q 878 1073 865 1085 q 890 1043 890 1061 q 878 1014 890 1026 q 849 1001 865 1001 l 222 1001 l 222 585 l 682 585 q 712 573 700 585 q 724 543 724 561 q 712 513 724 525 q 682 500 700 500 l 222 500 l 222 83 l 849 83 q 878 71 865 83 q 890 42 890 58 q 878 12 890 24 q 849 0 865 0 l 181 0 m 499 1197 q 468 1210 481 1197 q 456 1240 456 1222 q 465 1268 456 1256 l 636 1439 q 667 1451 649 1451 q 697 1440 685 1451 q 710 1408 710 1428 q 707 1394 710 1401 q 697 1379 704 1386 l 526 1208 q 499 1197 515 1197 z "},"Ĕ":{"ha":953,"x_min":139,"x_max":890,"o":"m 181 0 q 151 12 163 0 q 139 42 139 24 l 139 1043 q 151 1073 139 1061 q 181 1085 163 1085 l 849 1085 q 878 1073 865 1085 q 890 1043 890 1061 q 878 1014 890 1026 q 849 1001 865 1001 l 222 1001 l 222 585 l 682 585 q 712 573 700 585 q 724 543 724 561 q 712 513 724 525 q 682 500 700 500 l 222 500 l 222 83 l 849 83 q 878 71 865 83 q 890 42 890 58 q 878 12 890 24 q 849 0 865 0 l 181 0 m 518 1225 q 413 1246 461 1225 q 335 1302 364 1267 q 307 1379 307 1338 q 319 1410 307 1397 q 350 1422 332 1422 q 380 1410 368 1422 q 392 1379 392 1397 q 425 1324 392 1349 q 518 1300 458 1300 q 612 1324 578 1300 q 646 1379 646 1347 q 658 1410 646 1397 q 688 1422 669 1422 q 717 1410 706 1422 q 731 1381 729 1397 q 697 1298 728 1333 q 619 1244 667 1263 q 518 1225 572 1225 z "},"Ě":{"ha":953,"x_min":139,"x_max":890,"o":"m 181 0 q 151 12 163 0 q 139 42 139 24 l 139 1043 q 151 1073 139 1061 q 181 1085 163 1085 l 849 1085 q 878 1073 865 1085 q 890 1043 890 1061 q 878 1014 890 1026 q 849 1001 865 1001 l 222 1001 l 222 585 l 682 585 q 712 573 700 585 q 724 543 724 561 q 712 513 724 525 q 682 500 700 500 l 222 500 l 222 83 l 849 83 q 878 71 865 83 q 890 42 890 58 q 878 12 890 24 q 849 0 865 0 l 181 0 m 519 1225 q 499 1231 506 1225 l 331 1342 q 308 1379 308 1356 q 329 1414 308 1403 q 378 1406 350 1425 l 519 1308 l 661 1403 q 710 1413 690 1422 q 731 1379 731 1403 q 708 1342 731 1358 l 540 1231 q 519 1225 533 1225 z "},"Ê":{"ha":953,"x_min":139,"x_max":890,"o":"m 181 0 q 151 12 163 0 q 139 42 139 24 l 139 1043 q 151 1073 139 1061 q 181 1085 163 1085 l 849 1085 q 878 1073 865 1085 q 890 1043 890 1061 q 878 1014 890 1026 q 849 1001 865 1001 l 222 1001 l 222 585 l 682 585 q 712 573 700 585 q 724 543 724 561 q 712 513 724 525 q 682 500 700 500 l 222 500 l 222 83 l 849 83 q 878 71 865 83 q 890 42 890 58 q 878 12 890 24 q 849 0 865 0 l 181 0 m 353 1225 q 322 1237 335 1225 q 308 1267 308 1249 q 331 1304 308 1290 l 499 1417 q 519 1422 510 1422 q 531 1421 526 1422 q 540 1417 536 1419 l 708 1304 q 731 1267 731 1290 q 719 1237 731 1249 q 688 1225 707 1225 q 674 1227 679 1225 q 661 1233 668 1229 l 519 1328 l 378 1233 q 353 1225 365 1225 z "},"Ế":{"ha":953,"x_min":139,"x_max":890,"o":"m 181 0 q 151 12 163 0 q 139 42 139 24 l 139 1043 q 151 1073 139 1061 q 181 1085 163 1085 l 849 1085 q 878 1073 865 1085 q 890 1043 890 1061 q 878 1014 890 1026 q 849 1001 865 1001 l 222 1001 l 222 585 l 682 585 q 712 573 700 585 q 724 543 724 561 q 712 513 724 525 q 682 500 700 500 l 222 500 l 222 83 l 849 83 q 878 71 865 83 q 890 42 890 58 q 878 12 890 24 q 849 0 865 0 l 181 0 m 353 1225 q 322 1237 335 1225 q 308 1267 308 1249 q 331 1304 308 1290 l 499 1417 q 519 1422 510 1422 q 531 1421 526 1422 q 540 1417 536 1419 l 708 1304 q 731 1267 731 1290 q 719 1237 731 1249 q 688 1225 707 1225 q 674 1227 679 1225 q 661 1233 668 1229 l 519 1328 l 378 1233 q 353 1225 365 1225 m 625 1456 q 594 1468 607 1456 q 582 1499 582 1481 q 592 1526 582 1514 l 763 1697 q 793 1710 775 1710 q 824 1698 811 1710 q 836 1667 836 1686 q 833 1652 836 1660 q 824 1638 831 1644 l 653 1467 q 625 1456 642 1456 z "},"Ệ":{"ha":953,"x_min":139,"x_max":890,"o":"m 181 0 q 151 12 163 0 q 139 42 139 24 l 139 1043 q 151 1073 139 1061 q 181 1085 163 1085 l 849 1085 q 878 1073 865 1085 q 890 1043 890 1061 q 878 1014 890 1026 q 849 1001 865 1001 l 222 1001 l 222 585 l 682 585 q 712 573 700 585 q 724 543 724 561 q 712 513 724 525 q 682 500 700 500 l 222 500 l 222 83 l 849 83 q 878 71 865 83 q 890 42 890 58 q 878 12 890 24 q 849 0 865 0 l 181 0 m 353 1225 q 322 1237 335 1225 q 308 1267 308 1249 q 331 1304 308 1290 l 499 1417 q 519 1422 510 1422 q 531 1421 526 1422 q 540 1417 536 1419 l 708 1304 q 731 1267 731 1290 q 719 1237 731 1249 q 688 1225 707 1225 q 674 1227 679 1225 q 661 1233 668 1229 l 519 1328 l 378 1233 q 353 1225 365 1225 m 490 -275 q 445 -256 464 -275 q 426 -210 426 -237 q 447 -162 426 -178 q 492 -146 467 -146 q 535 -162 515 -146 q 556 -210 556 -178 q 537 -256 556 -237 q 490 -275 518 -275 z "},"Ề":{"ha":953,"x_min":139,"x_max":890,"o":"m 181 0 q 151 12 163 0 q 139 42 139 24 l 139 1043 q 151 1073 139 1061 q 181 1085 163 1085 l 849 1085 q 878 1073 865 1085 q 890 1043 890 1061 q 878 1014 890 1026 q 849 1001 865 1001 l 222 1001 l 222 585 l 682 585 q 712 573 700 585 q 724 543 724 561 q 712 513 724 525 q 682 500 700 500 l 222 500 l 222 83 l 849 83 q 878 71 865 83 q 890 42 890 58 q 878 12 890 24 q 849 0 865 0 l 181 0 m 353 1225 q 322 1237 335 1225 q 308 1267 308 1249 q 331 1304 308 1290 l 499 1417 q 519 1422 510 1422 q 531 1421 526 1422 q 540 1417 536 1419 l 708 1304 q 731 1267 731 1290 q 719 1237 731 1249 q 688 1225 707 1225 q 674 1227 679 1225 q 661 1233 668 1229 l 519 1328 l 378 1233 q 353 1225 365 1225 m 647 1471 q 618 1482 633 1471 l 447 1653 q 436 1682 436 1664 q 449 1713 436 1701 q 479 1725 461 1725 q 508 1713 496 1725 l 679 1542 q 689 1514 689 1532 q 677 1483 689 1496 q 647 1471 665 1471 z "},"Ể":{"ha":953,"x_min":139,"x_max":890,"o":"m 181 0 q 151 12 163 0 q 139 42 139 24 l 139 1043 q 151 1073 139 1061 q 181 1085 163 1085 l 849 1085 q 878 1073 865 1085 q 890 1043 890 1061 q 878 1014 890 1026 q 849 1001 865 1001 l 222 1001 l 222 585 l 682 585 q 712 573 700 585 q 724 543 724 561 q 712 513 724 525 q 682 500 700 500 l 222 500 l 222 83 l 849 83 q 878 71 865 83 q 890 42 890 58 q 878 12 890 24 q 849 0 865 0 l 181 0 m 354 1225 q 323 1237 336 1225 q 310 1267 310 1249 q 332 1304 310 1290 l 500 1417 q 521 1422 511 1422 q 533 1421 528 1422 q 542 1417 538 1419 l 710 1304 q 732 1267 732 1290 q 720 1237 732 1249 q 689 1225 708 1225 q 675 1227 681 1225 q 663 1233 669 1229 l 521 1328 l 379 1233 q 354 1225 367 1225 m 644 1411 q 616 1423 628 1411 q 604 1451 604 1435 l 604 1497 q 640 1542 604 1533 l 674 1549 q 719 1571 707 1556 q 732 1613 732 1586 q 710 1665 732 1646 q 656 1683 688 1683 q 625 1678 639 1683 q 597 1661 611 1672 q 585 1654 592 1657 q 571 1651 578 1651 q 542 1663 554 1651 q 531 1692 531 1675 q 544 1722 531 1711 q 597 1753 568 1742 q 656 1764 625 1764 q 767 1726 721 1764 q 813 1621 813 1688 q 774 1526 813 1560 q 685 1485 736 1493 l 685 1451 q 673 1423 685 1435 q 644 1411 661 1411 z "},"Ễ":{"ha":953,"x_min":139,"x_max":890,"o":"m 181 0 q 151 12 163 0 q 139 42 139 24 l 139 1043 q 151 1073 139 1061 q 181 1085 163 1085 l 849 1085 q 878 1073 865 1085 q 890 1043 890 1061 q 878 1014 890 1026 q 849 1001 865 1001 l 222 1001 l 222 585 l 682 585 q 712 573 700 585 q 724 543 724 561 q 712 513 724 525 q 682 500 700 500 l 222 500 l 222 83 l 849 83 q 878 71 865 83 q 890 42 890 58 q 878 12 890 24 q 849 0 865 0 l 181 0 m 353 1225 q 322 1237 335 1225 q 308 1267 308 1249 q 331 1304 308 1290 l 499 1417 q 519 1422 510 1422 q 531 1421 526 1422 q 540 1417 536 1419 l 708 1304 q 731 1267 731 1290 q 719 1237 731 1249 q 688 1225 707 1225 q 674 1227 679 1225 q 661 1233 668 1229 l 519 1328 l 378 1233 q 353 1225 365 1225 m 603 1461 q 543 1478 569 1461 q 501 1508 517 1494 q 466 1539 481 1529 q 433 1549 451 1549 q 403 1533 415 1549 q 375 1489 390 1517 q 353 1467 367 1474 q 325 1465 339 1461 q 304 1485 310 1471 q 306 1517 299 1500 q 360 1596 329 1572 q 432 1619 390 1619 q 489 1606 468 1619 q 532 1574 510 1593 q 573 1543 560 1551 q 597 1535 586 1535 q 633 1576 618 1535 q 655 1601 640 1593 q 683 1606 669 1610 q 710 1586 703 1600 q 710 1554 717 1572 q 663 1482 689 1503 q 603 1461 636 1461 z "},"Ȅ":{"ha":953,"x_min":139,"x_max":890,"o":"m 181 0 q 151 12 163 0 q 139 42 139 24 l 139 1043 q 151 1073 139 1061 q 181 1085 163 1085 l 849 1085 q 878 1073 865 1085 q 890 1043 890 1061 q 878 1014 890 1026 q 849 1001 865 1001 l 222 1001 l 222 585 l 682 585 q 712 573 700 585 q 724 543 724 561 q 712 513 724 525 q 682 500 700 500 l 222 500 l 222 83 l 849 83 q 878 71 865 83 q 890 42 890 58 q 878 12 890 24 q 849 0 865 0 l 181 0 m 676 1199 q 647 1218 657 1199 l 557 1408 q 554 1424 554 1417 q 566 1452 554 1439 q 597 1465 578 1465 q 620 1458 610 1465 q 636 1439 631 1451 l 700 1239 q 701 1226 701 1236 q 694 1206 701 1213 q 676 1199 686 1199 m 457 1199 q 429 1218 438 1199 l 339 1408 q 337 1415 338 1411 q 336 1424 336 1419 q 348 1452 336 1439 q 379 1465 360 1465 q 402 1458 392 1465 q 417 1439 413 1451 l 482 1239 q 483 1234 483 1238 q 483 1226 483 1231 q 476 1206 483 1213 q 457 1199 468 1199 z "},"Ë":{"ha":953,"x_min":139,"x_max":890,"o":"m 181 0 q 151 12 163 0 q 139 42 139 24 l 139 1043 q 151 1073 139 1061 q 181 1085 163 1085 l 849 1085 q 878 1073 865 1085 q 890 1043 890 1061 q 878 1014 890 1026 q 849 1001 865 1001 l 222 1001 l 222 585 l 682 585 q 712 573 700 585 q 724 543 724 561 q 712 513 724 525 q 682 500 700 500 l 222 500 l 222 83 l 849 83 q 878 71 865 83 q 890 42 890 58 q 878 12 890 24 q 849 0 865 0 l 181 0 m 381 1238 q 329 1258 350 1238 q 308 1310 308 1279 q 329 1360 308 1339 q 381 1381 350 1381 q 431 1360 411 1381 q 451 1310 451 1339 q 431 1258 451 1279 q 381 1238 411 1238 m 658 1238 q 607 1258 628 1238 q 586 1310 586 1279 q 607 1360 586 1339 q 658 1381 628 1381 q 709 1360 689 1381 q 729 1310 729 1339 q 709 1258 729 1279 q 658 1238 689 1238 z "},"Ė":{"ha":953,"x_min":139,"x_max":890,"o":"m 181 0 q 151 12 163 0 q 139 42 139 24 l 139 1043 q 151 1073 139 1061 q 181 1085 163 1085 l 849 1085 q 878 1073 865 1085 q 890 1043 890 1061 q 878 1014 890 1026 q 849 1001 865 1001 l 222 1001 l 222 585 l 682 585 q 712 573 700 585 q 724 543 724 561 q 712 513 724 525 q 682 500 700 500 l 222 500 l 222 83 l 849 83 q 878 71 865 83 q 890 42 890 58 q 878 12 890 24 q 849 0 865 0 l 181 0 m 518 1244 q 473 1263 492 1244 q 454 1310 454 1282 q 474 1358 454 1342 q 519 1374 494 1374 q 563 1358 543 1374 q 583 1310 583 1342 q 565 1263 583 1282 q 518 1244 546 1244 z "},"Ẹ":{"ha":953,"x_min":139,"x_max":890,"o":"m 181 0 q 151 12 163 0 q 139 42 139 24 l 139 1043 q 151 1073 139 1061 q 181 1085 163 1085 l 849 1085 q 878 1073 865 1085 q 890 1043 890 1061 q 878 1014 890 1026 q 849 1001 865 1001 l 222 1001 l 222 585 l 682 585 q 712 573 700 585 q 724 543 724 561 q 712 513 724 525 q 682 500 700 500 l 222 500 l 222 83 l 849 83 q 878 71 865 83 q 890 42 890 58 q 878 12 890 24 q 849 0 865 0 l 181 0 m 490 -275 q 445 -256 464 -275 q 426 -210 426 -237 q 447 -162 426 -178 q 492 -146 467 -146 q 535 -162 515 -146 q 556 -210 556 -178 q 537 -256 556 -237 q 490 -275 518 -275 z "},"È":{"ha":953,"x_min":139,"x_max":890,"o":"m 181 0 q 151 12 163 0 q 139 42 139 24 l 139 1043 q 151 1073 139 1061 q 181 1085 163 1085 l 849 1085 q 878 1073 865 1085 q 890 1043 890 1061 q 878 1014 890 1026 q 849 1001 865 1001 l 222 1001 l 222 585 l 682 585 q 712 573 700 585 q 724 543 724 561 q 712 513 724 525 q 682 500 700 500 l 222 500 l 222 83 l 849 83 q 878 71 865 83 q 890 42 890 58 q 878 12 890 24 q 849 0 865 0 l 181 0 m 521 1213 q 492 1224 507 1213 l 321 1394 q 310 1424 310 1406 q 322 1455 310 1443 q 353 1467 335 1467 q 382 1454 369 1467 l 553 1283 q 563 1256 563 1274 q 551 1225 563 1238 q 521 1213 539 1213 z "},"Ẻ":{"ha":953,"x_min":139,"x_max":890,"o":"m 181 0 q 151 12 163 0 q 139 42 139 24 l 139 1043 q 151 1073 139 1061 q 181 1085 163 1085 l 849 1085 q 878 1073 865 1085 q 890 1043 890 1061 q 878 1014 890 1026 q 849 1001 865 1001 l 222 1001 l 222 585 l 682 585 q 712 573 700 585 q 724 543 724 561 q 712 513 724 525 q 682 500 700 500 l 222 500 l 222 83 l 849 83 q 878 71 865 83 q 890 42 890 58 q 878 12 890 24 q 849 0 865 0 l 181 0 m 517 1153 q 488 1165 500 1153 q 476 1193 476 1176 l 476 1239 q 513 1283 476 1275 l 546 1290 q 592 1313 579 1297 q 604 1354 604 1328 q 582 1406 604 1388 q 528 1425 560 1425 q 497 1419 511 1425 q 469 1403 483 1414 q 457 1396 464 1399 q 443 1393 450 1393 q 415 1405 426 1393 q 403 1433 403 1417 q 417 1464 403 1453 q 469 1494 440 1483 q 528 1506 497 1506 q 639 1467 593 1506 q 685 1363 685 1429 q 647 1268 685 1301 q 557 1226 608 1235 l 557 1193 q 545 1165 557 1176 q 517 1153 533 1153 z "},"Ȇ":{"ha":953,"x_min":139,"x_max":890,"o":"m 181 0 q 151 12 163 0 q 139 42 139 24 l 139 1043 q 151 1073 139 1061 q 181 1085 163 1085 l 849 1085 q 878 1073 865 1085 q 890 1043 890 1061 q 878 1014 890 1026 q 849 1001 865 1001 l 222 1001 l 222 585 l 682 585 q 712 573 700 585 q 724 543 724 561 q 712 513 724 525 q 682 500 700 500 l 222 500 l 222 83 l 849 83 q 878 71 865 83 q 890 42 890 58 q 878 12 890 24 q 849 0 865 0 l 181 0 m 350 1225 q 319 1238 332 1225 q 307 1268 307 1250 q 335 1346 307 1311 q 413 1401 364 1381 q 518 1422 461 1422 q 619 1403 572 1422 q 697 1350 667 1385 q 731 1267 728 1315 q 717 1238 729 1250 q 688 1225 706 1225 q 658 1238 669 1225 q 646 1268 646 1250 q 612 1324 646 1300 q 518 1347 578 1347 q 425 1324 458 1347 q 392 1268 392 1300 q 380 1238 392 1250 q 350 1225 368 1225 z "},"Ē":{"ha":953,"x_min":139,"x_max":890,"o":"m 181 0 q 151 12 163 0 q 139 42 139 24 l 139 1043 q 151 1073 139 1061 q 181 1085 163 1085 l 849 1085 q 878 1073 865 1085 q 890 1043 890 1061 q 878 1014 890 1026 q 849 1001 865 1001 l 222 1001 l 222 585 l 682 585 q 712 573 700 585 q 724 543 724 561 q 712 513 724 525 q 682 500 700 500 l 222 500 l 222 83 l 849 83 q 878 71 865 83 q 890 42 890 58 q 878 12 890 24 q 849 0 865 0 l 181 0 m 335 1243 q 305 1255 317 1243 q 293 1285 293 1267 q 305 1315 293 1303 q 335 1328 317 1328 l 703 1328 q 733 1315 721 1328 q 744 1285 744 1303 q 733 1255 744 1267 q 703 1243 721 1243 l 335 1243 z "},"Ę":{"ha":953,"x_min":139,"x_max":1021,"o":"m 181 0 q 151 12 163 0 q 139 42 139 24 l 139 1043 q 151 1073 139 1061 q 181 1085 163 1085 l 849 1085 q 878 1073 865 1085 q 890 1043 890 1061 q 878 1014 890 1026 q 849 1001 865 1001 l 222 1001 l 222 585 l 682 585 q 712 573 700 585 q 724 543 724 561 q 712 513 724 525 q 682 500 700 500 l 222 500 l 222 83 l 849 83 q 878 71 865 83 q 890 42 890 58 q 878 12 890 24 q 849 0 865 0 l 181 0 m 865 -349 q 789 -328 824 -349 q 733 -272 754 -307 q 711 -194 711 -237 q 776 -68 711 -121 q 810 -36 797 -51 q 829 -7 824 -21 q 865 14 840 14 q 897 3 885 14 q 908 -26 908 -8 q 887 -80 908 -53 q 825 -137 865 -107 q 803 -164 811 -149 q 796 -194 796 -179 q 816 -244 796 -224 q 865 -264 836 -264 q 885 -261 875 -264 q 904 -253 894 -258 l 953 -217 q 978 -208 965 -208 q 1008 -221 996 -208 q 1021 -251 1021 -233 q 1007 -283 1021 -272 l 950 -322 q 865 -349 911 -349 z "},"Ẽ":{"ha":953,"x_min":139,"x_max":890,"o":"m 181 0 q 151 12 163 0 q 139 42 139 24 l 139 1043 q 151 1073 139 1061 q 181 1085 163 1085 l 849 1085 q 878 1073 865 1085 q 890 1043 890 1061 q 878 1014 890 1026 q 849 1001 865 1001 l 222 1001 l 222 585 l 682 585 q 712 573 700 585 q 724 543 724 561 q 712 513 724 525 q 682 500 700 500 l 222 500 l 222 83 l 849 83 q 878 71 865 83 q 890 42 890 58 q 878 12 890 24 q 849 0 865 0 l 181 0 m 665 1200 q 590 1217 622 1200 q 535 1249 558 1233 q 491 1274 507 1268 q 456 1281 475 1281 q 400 1266 428 1281 q 349 1224 372 1251 q 322 1207 339 1210 q 293 1213 306 1204 q 274 1238 276 1222 q 281 1268 271 1254 q 363 1337 317 1313 q 456 1361 408 1361 q 528 1346 497 1361 q 581 1315 558 1331 q 622 1290 604 1300 q 665 1281 639 1281 q 709 1288 690 1281 q 742 1311 728 1296 q 768 1328 753 1324 q 796 1326 783 1333 q 819 1301 815 1317 q 813 1271 824 1286 q 665 1200 758 1200 z "},"F":{"ha":868,"x_min":54,"x_max":806,"o":"m 96 0 q 66 12 78 0 q 54 42 54 24 l 54 1043 q 66 1073 54 1061 q 96 1085 78 1085 l 764 1085 q 793 1073 781 1085 q 806 1043 806 1061 q 793 1014 806 1026 q 764 1001 781 1001 l 138 1001 l 138 585 l 597 585 q 627 573 615 585 q 639 543 639 561 q 627 513 639 525 q 597 500 615 500 l 138 500 l 138 42 q 126 12 138 24 q 96 0 114 0 z "},"G":{"ha":1065,"x_min":83,"x_max":982,"o":"m 626 -14 q 417 30 515 -14 q 244 151 319 74 q 126 328 169 228 q 83 543 83 429 q 125 756 83 656 q 241 934 167 857 q 414 1055 315 1011 q 626 1099 513 1099 q 808 1068 722 1099 q 969 975 894 1038 q 982 948 982 965 q 971 917 982 931 q 940 904 960 904 q 929 906 935 904 q 918 912 924 908 q 906 921 913 915 q 779 993 850 971 q 626 1015 708 1015 q 450 977 533 1015 q 303 873 367 939 q 203 722 239 807 q 167 543 167 638 q 203 360 167 446 q 302 208 239 274 q 449 106 365 143 q 626 69 532 69 q 780 94 708 69 q 914 171 851 119 q 940 178 925 181 q 967 164 956 175 q 978 135 978 153 q 976 119 978 126 q 968 106 975 113 q 810 12 900 38 q 626 -14 721 -14 m 978 135 l 894 153 l 894 453 l 661 453 q 631 464 643 453 q 619 492 619 475 q 631 517 619 507 q 661 528 643 528 l 936 528 q 967 517 956 528 q 978 488 978 506 l 978 135 z "},"Ğ":{"ha":1065,"x_min":83,"x_max":982,"o":"m 626 -14 q 417 30 515 -14 q 244 151 319 74 q 126 328 169 228 q 83 543 83 429 q 125 756 83 656 q 241 934 167 857 q 414 1055 315 1011 q 626 1099 513 1099 q 808 1068 722 1099 q 969 975 894 1038 q 982 948 982 965 q 971 917 982 931 q 940 904 960 904 q 929 906 935 904 q 918 912 924 908 q 906 921 913 915 q 779 993 850 971 q 626 1015 708 1015 q 450 977 533 1015 q 303 873 367 939 q 203 722 239 807 q 167 543 167 638 q 203 360 167 446 q 302 208 239 274 q 449 106 365 143 q 626 69 532 69 q 780 94 708 69 q 914 171 851 119 q 940 178 925 181 q 967 164 956 175 q 978 135 978 153 q 976 119 978 126 q 968 106 975 113 q 810 12 900 38 q 626 -14 721 -14 m 978 135 l 894 153 l 894 453 l 661 453 q 631 464 643 453 q 619 492 619 475 q 631 517 619 507 q 661 528 643 528 l 936 528 q 967 517 956 528 q 978 488 978 506 l 978 135 m 601 1225 q 496 1246 544 1225 q 419 1302 447 1267 q 390 1379 390 1338 q 403 1410 390 1397 q 433 1422 415 1422 q 463 1410 451 1422 q 475 1379 475 1397 q 508 1324 475 1349 q 601 1300 542 1300 q 695 1324 661 1300 q 729 1379 729 1347 q 741 1410 729 1397 q 771 1422 753 1422 q 801 1410 789 1422 q 814 1381 813 1397 q 781 1298 811 1333 q 703 1244 750 1263 q 601 1225 656 1225 z "},"Ǧ":{"ha":1065,"x_min":83,"x_max":982,"o":"m 626 -14 q 417 30 515 -14 q 244 151 319 74 q 126 328 169 228 q 83 543 83 429 q 125 756 83 656 q 241 934 167 857 q 414 1055 315 1011 q 626 1099 513 1099 q 808 1068 722 1099 q 969 975 894 1038 q 982 948 982 965 q 971 917 982 931 q 940 904 960 904 q 929 906 935 904 q 918 912 924 908 q 906 921 913 915 q 779 993 850 971 q 626 1015 708 1015 q 450 977 533 1015 q 303 873 367 939 q 203 722 239 807 q 167 543 167 638 q 203 360 167 446 q 302 208 239 274 q 449 106 365 143 q 626 69 532 69 q 780 94 708 69 q 914 171 851 119 q 940 178 925 181 q 967 164 956 175 q 978 135 978 153 q 976 119 978 126 q 968 106 975 113 q 810 12 900 38 q 626 -14 721 -14 m 978 135 l 894 153 l 894 453 l 661 453 q 631 464 643 453 q 619 492 619 475 q 631 517 619 507 q 661 528 643 528 l 936 528 q 967 517 956 528 q 978 488 978 506 l 978 135 m 603 1225 q 582 1231 589 1225 l 414 1342 q 392 1379 392 1356 q 413 1414 392 1403 q 461 1406 433 1425 l 603 1308 l 744 1403 q 794 1413 774 1422 q 814 1379 814 1403 q 792 1342 814 1358 l 624 1231 q 603 1225 617 1225 z "},"Ĝ":{"ha":1065,"x_min":83,"x_max":982,"o":"m 626 -14 q 417 30 515 -14 q 244 151 319 74 q 126 328 169 228 q 83 543 83 429 q 125 756 83 656 q 241 934 167 857 q 414 1055 315 1011 q 626 1099 513 1099 q 808 1068 722 1099 q 969 975 894 1038 q 982 948 982 965 q 971 917 982 931 q 940 904 960 904 q 929 906 935 904 q 918 912 924 908 q 906 921 913 915 q 779 993 850 971 q 626 1015 708 1015 q 450 977 533 1015 q 303 873 367 939 q 203 722 239 807 q 167 543 167 638 q 203 360 167 446 q 302 208 239 274 q 449 106 365 143 q 626 69 532 69 q 780 94 708 69 q 914 171 851 119 q 940 178 925 181 q 967 164 956 175 q 978 135 978 153 q 976 119 978 126 q 968 106 975 113 q 810 12 900 38 q 626 -14 721 -14 m 978 135 l 894 153 l 894 453 l 661 453 q 631 464 643 453 q 619 492 619 475 q 631 517 619 507 q 661 528 643 528 l 936 528 q 967 517 956 528 q 978 488 978 506 l 978 135 m 436 1225 q 405 1237 418 1225 q 392 1267 392 1249 q 414 1304 392 1290 l 582 1417 q 603 1422 593 1422 q 615 1421 610 1422 q 624 1417 619 1419 l 792 1304 q 814 1267 814 1290 q 802 1237 814 1249 q 771 1225 790 1225 q 757 1227 763 1225 q 744 1233 751 1229 l 603 1328 l 461 1233 q 436 1225 449 1225 z "},"Ģ":{"ha":1065,"x_min":83,"x_max":982,"o":"m 626 -14 q 417 30 515 -14 q 244 151 319 74 q 126 328 169 228 q 83 543 83 429 q 125 756 83 656 q 241 934 167 857 q 414 1055 315 1011 q 626 1099 513 1099 q 808 1068 722 1099 q 969 975 894 1038 q 982 948 982 965 q 971 917 982 931 q 940 904 960 904 q 929 906 935 904 q 918 912 924 908 q 906 921 913 915 q 779 993 850 971 q 626 1015 708 1015 q 450 977 533 1015 q 303 873 367 939 q 203 722 239 807 q 167 543 167 638 q 203 360 167 446 q 302 208 239 274 q 449 106 365 143 q 626 69 532 69 q 780 94 708 69 q 914 171 851 119 q 940 178 925 181 q 967 164 956 175 q 978 135 978 153 q 976 119 978 126 q 968 106 975 113 q 810 12 900 38 q 626 -14 721 -14 m 978 135 l 894 153 l 894 453 l 661 453 q 631 464 643 453 q 619 492 619 475 q 631 517 619 507 q 661 528 643 528 l 936 528 q 967 517 956 528 q 978 488 978 506 l 978 135 m 613 -322 q 540 -310 578 -322 q 475 -276 501 -297 q 449 -231 449 -256 q 458 -206 449 -215 q 483 -197 467 -197 q 515 -205 503 -197 q 540 -222 528 -212 q 570 -240 553 -232 q 617 -247 588 -247 q 680 -229 657 -247 q 703 -181 703 -211 q 681 -139 703 -156 q 613 -122 660 -122 q 567 -115 583 -122 q 551 -89 551 -107 q 607 -54 551 -54 q 728 -91 681 -54 q 775 -185 775 -128 q 727 -284 775 -246 q 613 -322 679 -322 z "},"Ġ":{"ha":1065,"x_min":83,"x_max":982,"o":"m 626 -14 q 417 30 515 -14 q 244 151 319 74 q 126 328 169 228 q 83 543 83 429 q 125 756 83 656 q 241 934 167 857 q 414 1055 315 1011 q 626 1099 513 1099 q 808 1068 722 1099 q 969 975 894 1038 q 982 948 982 965 q 971 917 982 931 q 940 904 960 904 q 929 906 935 904 q 918 912 924 908 q 906 921 913 915 q 779 993 850 971 q 626 1015 708 1015 q 450 977 533 1015 q 303 873 367 939 q 203 722 239 807 q 167 543 167 638 q 203 360 167 446 q 302 208 239 274 q 449 106 365 143 q 626 69 532 69 q 780 94 708 69 q 914 171 851 119 q 940 178 925 181 q 967 164 956 175 q 978 135 978 153 q 976 119 978 126 q 968 106 975 113 q 810 12 900 38 q 626 -14 721 -14 m 978 135 l 894 153 l 894 453 l 661 453 q 631 464 643 453 q 619 492 619 475 q 631 517 619 507 q 661 528 643 528 l 936 528 q 967 517 956 528 q 978 488 978 506 l 978 135 m 601 1244 q 556 1263 575 1244 q 538 1310 538 1282 q 558 1358 538 1342 q 603 1374 578 1374 q 647 1358 626 1374 q 667 1310 667 1342 q 648 1263 667 1282 q 601 1244 629 1244 z "},"H":{"ha":1146,"x_min":139,"x_max":1007,"o":"m 181 0 q 151 12 163 0 q 139 42 139 24 l 139 1043 q 151 1073 139 1061 q 181 1085 163 1085 q 210 1073 199 1085 q 222 1043 222 1061 l 222 585 l 924 585 l 924 1043 q 935 1073 924 1061 q 965 1085 947 1085 q 994 1073 982 1085 q 1007 1043 1007 1061 l 1007 42 q 994 12 1007 24 q 965 0 982 0 q 935 12 947 0 q 924 42 924 24 l 924 510 l 222 510 l 222 42 q 210 12 222 24 q 181 0 199 0 z "},"Ħ":{"ha":1146,"x_min":31,"x_max":1131,"o":"m 181 0 q 151 12 163 0 q 139 42 139 24 l 139 1043 q 151 1073 139 1061 q 181 1085 163 1085 q 210 1073 199 1085 q 222 1043 222 1061 l 222 585 l 924 585 l 924 1043 q 935 1073 924 1061 q 965 1085 947 1085 q 994 1073 982 1085 q 1007 1043 1007 1061 l 1007 42 q 994 12 1007 24 q 965 0 982 0 q 935 12 947 0 q 924 42 924 24 l 924 510 l 222 510 l 222 42 q 210 12 222 24 q 181 0 199 0 m 68 839 q 41 849 51 839 q 31 876 31 860 q 41 903 31 893 q 68 914 51 914 l 1093 914 q 1120 903 1110 914 q 1131 876 1131 893 q 1120 849 1131 860 q 1093 839 1110 839 l 68 839 z "},"Ĥ":{"ha":1146,"x_min":139,"x_max":1007,"o":"m 181 0 q 151 12 163 0 q 139 42 139 24 l 139 1043 q 151 1073 139 1061 q 181 1085 163 1085 q 210 1073 199 1085 q 222 1043 222 1061 l 222 585 l 924 585 l 924 1043 q 935 1073 924 1061 q 965 1085 947 1085 q 994 1073 982 1085 q 1007 1043 1007 1061 l 1007 42 q 994 12 1007 24 q 965 0 982 0 q 935 12 947 0 q 924 42 924 24 l 924 510 l 222 510 l 222 42 q 210 12 222 24 q 181 0 199 0 m 407 1225 q 376 1237 389 1225 q 363 1267 363 1249 q 385 1304 363 1290 l 553 1417 q 574 1422 564 1422 q 585 1421 581 1422 q 594 1417 590 1419 l 763 1304 q 785 1267 785 1290 q 773 1237 785 1249 q 742 1225 761 1225 q 728 1227 733 1225 q 715 1233 722 1229 l 574 1328 l 432 1233 q 407 1225 419 1225 z "},"I":{"ha":361,"x_min":139,"x_max":222,"o":"m 181 0 q 151 12 163 0 q 139 42 139 24 l 139 1043 q 151 1073 139 1061 q 181 1085 163 1085 q 210 1073 199 1085 q 222 1043 222 1061 l 222 42 q 210 12 222 24 q 181 0 199 0 z "},"Ĳ":{"ha":876,"x_min":139,"x_max":738,"o":"m 446 -14 q 292 16 361 -14 q 181 105 222 46 q 139 250 139 164 q 151 281 139 269 q 181 292 163 292 q 210 281 199 292 q 222 250 222 269 q 253 145 222 185 q 334 88 283 106 q 446 69 385 69 q 551 102 504 69 q 626 188 599 135 q 654 306 654 242 l 654 1043 q 667 1073 654 1061 q 696 1085 679 1085 q 726 1073 714 1085 q 738 1043 738 1061 l 738 306 q 698 146 738 218 q 592 30 658 74 q 446 -14 526 -14 m 181 403 q 151 415 163 403 q 139 444 139 426 l 139 1043 q 151 1073 139 1061 q 181 1085 163 1085 q 210 1073 199 1085 q 222 1043 222 1061 l 222 444 q 210 415 222 426 q 181 403 199 403 z "},"Í":{"ha":361,"x_min":117,"x_max":371,"o":"m 181 0 q 151 12 163 0 q 139 42 139 24 l 139 1043 q 151 1073 139 1061 q 181 1085 163 1085 q 210 1073 199 1085 q 222 1043 222 1061 l 222 42 q 210 12 222 24 q 181 0 199 0 m 160 1197 q 129 1210 142 1197 q 117 1240 117 1222 q 126 1268 117 1256 l 297 1439 q 328 1451 310 1451 q 358 1440 346 1451 q 371 1408 371 1428 q 368 1394 371 1401 q 358 1379 365 1386 l 188 1208 q 160 1197 176 1197 z "},"Ĭ":{"ha":361,"x_min":-32,"x_max":392,"o":"m 181 0 q 151 12 163 0 q 139 42 139 24 l 139 1043 q 151 1073 139 1061 q 181 1085 163 1085 q 210 1073 199 1085 q 222 1043 222 1061 l 222 42 q 210 12 222 24 q 181 0 199 0 m 179 1225 q 74 1246 122 1225 q -3 1302 25 1267 q -32 1379 -32 1338 q -19 1410 -32 1397 q 11 1422 -7 1422 q 41 1410 29 1422 q 53 1379 53 1397 q 86 1324 53 1349 q 179 1300 119 1300 q 273 1324 239 1300 q 307 1379 307 1347 q 319 1410 307 1397 q 349 1422 331 1422 q 378 1410 367 1422 q 392 1381 390 1397 q 358 1298 389 1333 q 281 1244 328 1263 q 179 1225 233 1225 z "},"Î":{"ha":361,"x_min":-31,"x_max":392,"o":"m 181 0 q 151 12 163 0 q 139 42 139 24 l 139 1043 q 151 1073 139 1061 q 181 1085 163 1085 q 210 1073 199 1085 q 222 1043 222 1061 l 222 42 q 210 12 222 24 q 181 0 199 0 m 14 1225 q -17 1237 -4 1225 q -31 1267 -31 1249 q -8 1304 -31 1290 l 160 1417 q 181 1422 171 1422 q 192 1421 188 1422 q 201 1417 197 1419 l 369 1304 q 392 1267 392 1290 q 380 1237 392 1249 q 349 1225 368 1225 q 335 1227 340 1225 q 322 1233 329 1229 l 181 1328 l 39 1233 q 14 1225 26 1225 z "},"Ȉ":{"ha":361,"x_min":-3,"x_max":363,"o":"m 181 0 q 151 12 163 0 q 139 42 139 24 l 139 1043 q 151 1073 139 1061 q 181 1085 163 1085 q 210 1073 199 1085 q 222 1043 222 1061 l 222 42 q 210 12 222 24 q 181 0 199 0 m 338 1199 q 308 1218 318 1199 l 218 1408 q 215 1424 215 1417 q 227 1452 215 1439 q 258 1465 239 1465 q 281 1458 271 1465 q 297 1439 292 1451 l 361 1239 q 363 1226 363 1236 q 355 1206 363 1213 q 338 1199 347 1199 m 118 1199 q 90 1218 99 1199 l 0 1408 q -2 1415 -1 1411 q -3 1424 -3 1419 q 9 1452 -3 1439 q 40 1465 21 1465 q 63 1458 53 1465 q 78 1439 74 1451 l 143 1239 q 144 1234 144 1238 q 144 1226 144 1231 q 137 1206 144 1213 q 118 1199 129 1199 z "},"Ï":{"ha":361,"x_min":-31,"x_max":390,"o":"m 181 0 q 151 12 163 0 q 139 42 139 24 l 139 1043 q 151 1073 139 1061 q 181 1085 163 1085 q 210 1073 199 1085 q 222 1043 222 1061 l 222 42 q 210 12 222 24 q 181 0 199 0 m 42 1238 q -10 1258 11 1238 q -31 1310 -31 1279 q -10 1360 -31 1339 q 42 1381 11 1381 q 92 1360 72 1381 q 113 1310 113 1339 q 92 1258 113 1279 q 42 1238 72 1238 m 319 1238 q 268 1258 289 1238 q 247 1310 247 1279 q 268 1360 247 1339 q 319 1381 289 1381 q 370 1360 350 1381 q 390 1310 390 1339 q 370 1258 390 1279 q 319 1238 350 1238 z "},"İ":{"ha":361,"x_min":115,"x_max":244,"o":"m 181 0 q 151 12 163 0 q 139 42 139 24 l 139 1043 q 151 1073 139 1061 q 181 1085 163 1085 q 210 1073 199 1085 q 222 1043 222 1061 l 222 42 q 210 12 222 24 q 181 0 199 0 m 179 1244 q 134 1263 153 1244 q 115 1310 115 1282 q 135 1358 115 1342 q 181 1374 156 1374 q 224 1358 204 1374 q 244 1310 244 1342 q 226 1263 244 1282 q 179 1244 207 1244 z "},"Ị":{"ha":361,"x_min":115,"x_max":244,"o":"m 181 0 q 151 12 163 0 q 139 42 139 24 l 139 1043 q 151 1073 139 1061 q 181 1085 163 1085 q 210 1073 199 1085 q 222 1043 222 1061 l 222 42 q 210 12 222 24 q 181 0 199 0 m 179 -275 q 134 -256 153 -275 q 115 -210 115 -237 q 135 -162 115 -178 q 181 -146 156 -146 q 224 -162 204 -146 q 244 -210 244 -178 q 226 -256 244 -237 q 179 -275 207 -275 z "},"Ì":{"ha":361,"x_min":-29,"x_max":224,"o":"m 181 0 q 151 12 163 0 q 139 42 139 24 l 139 1043 q 151 1073 139 1061 q 181 1085 163 1085 q 210 1073 199 1085 q 222 1043 222 1061 l 222 42 q 210 12 222 24 q 181 0 199 0 m 182 1213 q 153 1224 168 1213 l -18 1394 q -29 1424 -29 1406 q -17 1455 -29 1443 q 14 1467 -4 1467 q 43 1454 31 1467 l 214 1283 q 224 1256 224 1274 q 212 1225 224 1238 q 182 1213 200 1213 z "},"Ỉ":{"ha":361,"x_min":64,"x_max":346,"o":"m 181 0 q 151 12 163 0 q 139 42 139 24 l 139 1043 q 151 1073 139 1061 q 181 1085 163 1085 q 210 1073 199 1085 q 222 1043 222 1061 l 222 42 q 210 12 222 24 q 181 0 199 0 m 178 1153 q 149 1165 161 1153 q 138 1193 138 1176 l 138 1239 q 174 1283 138 1275 l 207 1290 q 253 1313 240 1297 q 265 1354 265 1328 q 243 1406 265 1388 q 189 1425 221 1425 q 158 1419 172 1425 q 131 1403 144 1414 q 118 1396 125 1399 q 104 1393 111 1393 q 76 1405 88 1393 q 64 1433 64 1417 q 78 1464 64 1453 q 130 1494 101 1483 q 189 1506 158 1506 q 300 1467 254 1506 q 346 1363 346 1429 q 308 1268 346 1301 q 218 1226 269 1235 l 218 1193 q 206 1165 218 1176 q 178 1153 194 1153 z "},"Ȋ":{"ha":361,"x_min":-32,"x_max":392,"o":"m 181 0 q 151 12 163 0 q 139 42 139 24 l 139 1043 q 151 1073 139 1061 q 181 1085 163 1085 q 210 1073 199 1085 q 222 1043 222 1061 l 222 42 q 210 12 222 24 q 181 0 199 0 m 11 1225 q -19 1238 -7 1225 q -32 1268 -32 1250 q -3 1346 -32 1311 q 74 1401 25 1381 q 179 1422 122 1422 q 281 1403 233 1422 q 358 1350 328 1385 q 392 1267 389 1315 q 378 1238 390 1250 q 349 1225 367 1225 q 319 1238 331 1225 q 307 1268 307 1250 q 273 1324 307 1300 q 179 1347 239 1347 q 86 1324 119 1347 q 53 1268 53 1300 q 41 1238 53 1250 q 11 1225 29 1225 z "},"Ī":{"ha":361,"x_min":-46,"x_max":406,"o":"m 181 0 q 151 12 163 0 q 139 42 139 24 l 139 1043 q 151 1073 139 1061 q 181 1085 163 1085 q 210 1073 199 1085 q 222 1043 222 1061 l 222 42 q 210 12 222 24 q 181 0 199 0 m -4 1243 q -34 1255 -22 1243 q -46 1285 -46 1267 q -34 1315 -46 1303 q -4 1328 -22 1328 l 364 1328 q 394 1315 382 1328 q 406 1285 406 1303 q 394 1255 406 1267 q 364 1243 382 1243 l -4 1243 z "},"Į":{"ha":361,"x_min":26,"x_max":336,"o":"m 181 0 q 151 12 163 0 q 139 42 139 24 l 139 1043 q 151 1073 139 1061 q 181 1085 163 1085 q 210 1073 199 1085 q 222 1043 222 1061 l 222 42 q 210 12 222 24 q 181 0 199 0 m 181 -349 q 104 -328 139 -349 q 48 -272 69 -307 q 26 -194 26 -237 q 92 -68 26 -121 q 126 -36 113 -51 q 144 -7 139 -21 q 181 14 156 14 q 212 3 200 14 q 224 -26 224 -8 q 202 -80 224 -53 q 140 -137 181 -107 q 119 -164 126 -149 q 111 -194 111 -179 q 131 -244 111 -224 q 181 -264 151 -264 q 200 -261 190 -264 q 219 -253 210 -258 l 268 -217 q 293 -208 281 -208 q 324 -221 311 -208 q 336 -251 336 -233 q 322 -283 336 -272 l 265 -322 q 181 -349 226 -349 z "},"Ĩ":{"ha":361,"x_min":-39,"x_max":379,"o":"m 181 0 q 151 12 163 0 q 139 42 139 24 l 139 1043 q 151 1073 139 1061 q 181 1085 163 1085 q 210 1073 199 1085 q 222 1043 222 1061 l 222 42 q 210 12 222 24 q 181 0 199 0 m 265 1231 q 206 1247 232 1231 q 164 1278 179 1264 q 128 1308 143 1299 q 96 1318 114 1318 q 65 1302 78 1318 q 38 1258 53 1286 q 15 1237 29 1243 q -12 1235 1 1231 q -33 1255 -28 1240 q -32 1286 -39 1269 q 22 1365 -8 1342 q 94 1389 53 1389 q 151 1376 131 1389 q 194 1343 172 1363 q 235 1313 222 1321 q 260 1304 249 1304 q 296 1346 281 1304 q 317 1371 303 1363 q 346 1375 332 1379 q 372 1356 365 1369 q 372 1324 379 1342 q 325 1251 351 1272 q 265 1231 299 1231 z "},"J":{"ha":842,"x_min":63,"x_max":703,"o":"m 383 -14 q 222 30 294 -14 q 106 147 149 74 q 63 306 63 219 q 74 336 63 325 q 104 347 86 347 q 134 336 122 347 q 146 306 146 325 q 178 187 146 240 q 265 101 211 133 q 383 69 319 69 q 502 102 449 69 q 588 188 556 135 q 619 306 619 242 l 619 1043 q 632 1073 619 1061 q 661 1085 644 1085 q 691 1073 679 1085 q 703 1043 703 1061 l 703 306 q 660 146 703 218 q 544 30 617 74 q 383 -14 471 -14 z "},"Ĵ":{"ha":842,"x_min":63,"x_max":872,"o":"m 383 -14 q 222 30 294 -14 q 106 147 149 74 q 63 306 63 219 q 74 336 63 325 q 104 347 86 347 q 134 336 122 347 q 146 306 146 325 q 178 187 146 240 q 265 101 211 133 q 383 69 319 69 q 502 102 449 69 q 588 188 556 135 q 619 306 619 242 l 619 1043 q 632 1073 619 1061 q 661 1085 644 1085 q 691 1073 679 1085 q 703 1043 703 1061 l 703 306 q 660 146 703 218 q 544 30 617 74 q 383 -14 471 -14 m 494 1225 q 463 1237 476 1225 q 450 1267 450 1249 q 472 1304 450 1290 l 640 1417 q 661 1422 651 1422 q 673 1421 668 1422 q 682 1417 678 1419 l 850 1304 q 872 1267 872 1290 q 860 1237 872 1249 q 829 1225 849 1225 q 815 1227 821 1225 q 803 1233 810 1229 l 661 1328 l 519 1233 q 494 1225 507 1225 z "},"K":{"ha":899,"x_min":139,"x_max":838,"o":"m 181 0 q 151 12 164 0 q 139 42 139 24 l 139 1043 q 151 1073 139 1061 q 181 1085 164 1085 q 210 1073 199 1085 q 222 1043 222 1061 l 222 533 l 761 1072 q 776 1082 768 1079 q 793 1085 783 1085 q 822 1073 811 1085 q 835 1044 833 1061 q 822 1013 836 1028 l 424 614 l 826 67 q 835 35 838 51 q 821 10 832 19 q 794 0 810 0 q 758 18 771 0 l 363 553 l 222 413 l 222 42 q 210 12 222 24 q 181 0 199 0 z "},"Ķ":{"ha":899,"x_min":139,"x_max":838,"o":"m 181 0 q 151 12 164 0 q 139 42 139 24 l 139 1043 q 151 1073 139 1061 q 181 1085 164 1085 q 210 1073 199 1085 q 222 1043 222 1061 l 222 533 l 761 1072 q 776 1082 768 1079 q 793 1085 783 1085 q 822 1073 811 1085 q 835 1044 833 1061 q 822 1013 836 1028 l 424 614 l 826 67 q 835 35 838 51 q 821 10 832 19 q 794 0 810 0 q 758 18 771 0 l 363 553 l 222 413 l 222 42 q 210 12 222 24 q 181 0 199 0 m 460 -322 q 387 -310 425 -322 q 322 -276 349 -297 q 296 -231 296 -256 q 305 -206 296 -215 q 331 -197 314 -197 q 363 -205 350 -197 q 388 -222 375 -212 q 417 -240 400 -232 q 464 -247 435 -247 q 527 -229 504 -247 q 550 -181 550 -211 q 528 -139 550 -156 q 460 -122 507 -122 q 415 -115 431 -122 q 399 -89 399 -107 q 454 -54 399 -54 q 575 -91 528 -54 q 622 -185 622 -128 q 574 -284 622 -246 q 460 -322 526 -322 z "},"L":{"ha":869,"x_min":139,"x_max":835,"o":"m 181 0 q 151 12 164 0 q 139 42 139 24 l 139 1043 q 151 1073 139 1061 q 181 1085 164 1085 q 210 1073 199 1085 q 222 1043 222 1061 l 222 75 l 793 75 q 824 65 813 75 q 835 38 835 54 q 824 10 835 21 q 793 0 813 0 l 181 0 z "},"Ĺ":{"ha":869,"x_min":117,"x_max":835,"o":"m 181 0 q 151 12 164 0 q 139 42 139 24 l 139 1043 q 151 1073 139 1061 q 181 1085 164 1085 q 210 1073 199 1085 q 222 1043 222 1061 l 222 75 l 793 75 q 824 65 813 75 q 835 38 835 54 q 824 10 835 21 q 793 0 813 0 l 181 0 m 160 1197 q 129 1210 142 1197 q 117 1240 117 1222 q 126 1268 117 1256 l 297 1439 q 328 1451 310 1451 q 358 1440 346 1451 q 371 1408 371 1428 q 368 1394 371 1401 q 358 1379 365 1386 l 188 1208 q 160 1197 176 1197 z "},"Ľ":{"ha":869,"x_min":139,"x_max":835,"o":"m 181 0 q 151 12 164 0 q 139 42 139 24 l 139 1043 q 151 1073 139 1061 q 181 1085 164 1085 q 210 1073 199 1085 q 222 1043 222 1061 l 222 75 l 793 75 q 824 65 813 75 q 835 38 835 54 q 824 10 835 21 q 793 0 813 0 l 181 0 m 535 749 q 517 760 524 751 q 513 781 511 769 q 526 810 515 793 q 548 855 536 828 q 563 922 560 882 q 559 962 565 947 q 546 992 553 976 q 539 1033 539 1008 q 558 1075 539 1065 q 599 1085 576 1085 q 654 1043 639 1085 q 658 944 669 1001 q 638 879 653 914 q 603 814 622 844 q 567 765 585 783 q 535 749 549 746 z "},"Ļ":{"ha":869,"x_min":139,"x_max":835,"o":"m 181 0 q 151 12 164 0 q 139 42 139 24 l 139 1043 q 151 1073 139 1061 q 181 1085 164 1085 q 210 1073 199 1085 q 222 1043 222 1061 l 222 75 l 793 75 q 824 65 813 75 q 835 38 835 54 q 824 10 835 21 q 793 0 813 0 l 181 0 m 458 -322 q 385 -310 424 -322 q 321 -276 347 -297 q 294 -231 294 -256 q 303 -206 294 -215 q 329 -197 313 -197 q 361 -205 349 -197 q 386 -222 374 -212 q 416 -240 399 -232 q 463 -247 433 -247 q 526 -229 503 -247 q 549 -181 549 -211 q 527 -139 549 -156 q 458 -122 506 -122 q 413 -115 429 -122 q 397 -89 397 -107 q 453 -54 397 -54 q 574 -91 526 -54 q 621 -185 621 -128 q 573 -284 621 -246 q 458 -322 525 -322 z "},"Ŀ":{"ha":814,"x_min":139,"x_max":835,"o":"m 181 0 q 151 12 164 0 q 139 42 139 24 l 139 1043 q 151 1073 139 1061 q 181 1085 164 1085 q 210 1073 199 1085 q 222 1043 222 1061 l 222 75 l 793 75 q 824 65 813 75 q 835 38 835 54 q 824 10 835 21 q 793 0 813 0 l 181 0 m 603 450 q 553 470 574 450 q 532 521 532 490 q 552 570 532 550 q 603 590 572 590 q 653 569 633 590 q 672 521 672 549 q 652 470 672 490 q 603 450 632 450 z "},"Ł":{"ha":922,"x_min":18,"x_max":863,"o":"m 208 0 q 178 12 190 0 q 167 42 167 24 l 167 444 l 88 367 q 58 354 78 354 q 31 367 43 354 q 18 397 18 379 q 29 426 18 413 l 167 563 l 167 1043 q 178 1073 167 1061 q 208 1085 190 1085 q 238 1073 226 1085 q 250 1043 250 1061 l 250 644 l 404 797 q 417 807 411 803 q 433 811 424 811 q 463 798 450 811 q 475 768 475 785 q 463 739 475 751 l 250 526 l 250 83 l 821 83 q 851 71 839 83 q 863 42 863 58 q 851 12 863 24 q 821 0 839 0 l 208 0 z "},"M":{"ha":1363,"x_min":139,"x_max":1224,"o":"m 181 0 q 151 12 163 0 q 139 42 139 24 l 139 1043 q 151 1073 139 1061 q 181 1085 163 1085 q 218 1064 208 1085 l 710 93 l 661 93 l 1146 1064 q 1183 1085 1158 1085 q 1213 1073 1201 1085 q 1224 1043 1224 1061 l 1224 42 q 1213 12 1224 24 q 1183 0 1201 0 q 1153 12 1165 0 q 1140 42 1140 24 l 1140 943 l 1161 936 l 718 33 q 682 14 708 14 q 643 40 657 14 l 194 936 l 222 943 l 222 42 q 210 12 222 24 q 181 0 199 0 z "},"N":{"ha":1140,"x_min":139,"x_max":1001,"o":"m 181 0 q 151 12 163 0 q 139 42 139 24 l 139 1043 q 151 1073 139 1061 q 181 1085 163 1085 q 213 1071 200 1085 l 918 153 l 918 1043 q 930 1073 918 1061 q 960 1085 942 1085 q 989 1073 976 1085 q 1001 1043 1001 1061 l 1001 42 q 989 12 1001 24 q 960 0 976 0 q 942 3 950 0 q 929 13 935 7 l 222 932 l 222 42 q 210 12 222 24 q 181 0 199 0 z "},"Ń":{"ha":1140,"x_min":139,"x_max":1001,"o":"m 181 0 q 151 12 163 0 q 139 42 139 24 l 139 1043 q 151 1073 139 1061 q 181 1085 163 1085 q 213 1071 200 1085 l 918 153 l 918 1043 q 930 1073 918 1061 q 960 1085 942 1085 q 989 1073 976 1085 q 1001 1043 1001 1061 l 1001 42 q 989 12 1001 24 q 960 0 976 0 q 942 3 950 0 q 929 13 935 7 l 222 932 l 222 42 q 210 12 222 24 q 181 0 199 0 m 550 1197 q 519 1210 532 1197 q 507 1240 507 1222 q 517 1268 507 1256 l 688 1439 q 718 1451 700 1451 q 749 1440 736 1451 q 761 1408 761 1428 q 758 1394 761 1401 q 749 1379 756 1386 l 578 1208 q 550 1197 567 1197 z "},"Ň":{"ha":1140,"x_min":139,"x_max":1001,"o":"m 181 0 q 151 12 163 0 q 139 42 139 24 l 139 1043 q 151 1073 139 1061 q 181 1085 163 1085 q 213 1071 200 1085 l 918 153 l 918 1043 q 930 1073 918 1061 q 960 1085 942 1085 q 989 1073 976 1085 q 1001 1043 1001 1061 l 1001 42 q 989 12 1001 24 q 960 0 976 0 q 942 3 950 0 q 929 13 935 7 l 222 932 l 222 42 q 210 12 222 24 q 181 0 199 0 m 571 1225 q 550 1231 557 1225 l 382 1342 q 360 1379 360 1356 q 381 1414 360 1403 q 429 1406 401 1425 l 571 1308 l 713 1403 q 762 1413 742 1422 q 782 1379 782 1403 q 760 1342 782 1358 l 592 1231 q 571 1225 585 1225 z "},"Ņ":{"ha":1140,"x_min":139,"x_max":1001,"o":"m 181 0 q 151 12 163 0 q 139 42 139 24 l 139 1043 q 151 1073 139 1061 q 181 1085 163 1085 q 213 1071 200 1085 l 918 153 l 918 1043 q 930 1073 918 1061 q 960 1085 942 1085 q 989 1073 976 1085 q 1001 1043 1001 1061 l 1001 42 q 989 12 1001 24 q 960 0 976 0 q 942 3 950 0 q 929 13 935 7 l 222 932 l 222 42 q 210 12 222 24 q 181 0 199 0 m 581 -322 q 508 -310 546 -322 q 443 -276 469 -297 q 417 -231 417 -256 q 426 -206 417 -215 q 451 -197 435 -197 q 483 -205 471 -197 q 508 -222 496 -212 q 538 -240 521 -232 q 585 -247 556 -247 q 648 -229 625 -247 q 671 -181 671 -211 q 649 -139 671 -156 q 581 -122 628 -122 q 535 -115 551 -122 q 519 -89 519 -107 q 575 -54 519 -54 q 696 -91 649 -54 q 743 -185 743 -128 q 695 -284 743 -246 q 581 -322 647 -322 z "},"Ŋ":{"ha":963,"x_min":139,"x_max":865,"o":"m 572 -12 q 462 7 514 -12 q 374 60 410 26 q 326 136 338 93 q 332 165 322 154 q 360 176 342 176 q 384 167 372 176 q 403 143 396 158 q 471 87 421 108 q 572 65 521 65 q 728 158 675 65 q 782 442 782 251 l 782 675 q 749 844 782 771 q 653 960 717 918 q 500 1001 590 1001 q 356 974 419 1001 q 258 897 293 946 q 222 782 222 847 l 222 953 q 339 1049 267 1014 q 500 1085 411 1085 q 683 1035 600 1085 q 816 897 767 986 q 865 689 865 808 l 865 442 q 789 103 865 218 q 572 -12 713 -12 m 181 0 q 151 12 163 0 q 139 42 139 24 l 139 1043 q 151 1073 139 1061 q 181 1085 163 1085 q 210 1073 199 1085 q 222 1043 222 1061 l 222 42 q 210 12 222 24 q 181 0 199 0 z "},"Ñ":{"ha":1140,"x_min":139,"x_max":1001,"o":"m 181 0 q 151 12 163 0 q 139 42 139 24 l 139 1043 q 151 1073 139 1061 q 181 1085 163 1085 q 213 1071 200 1085 l 918 153 l 918 1043 q 930 1073 918 1061 q 960 1085 942 1085 q 989 1073 976 1085 q 1001 1043 1001 1061 l 1001 42 q 989 12 1001 24 q 960 0 976 0 q 942 3 950 0 q 929 13 935 7 l 222 932 l 222 42 q 210 12 222 24 q 181 0 199 0 m 717 1200 q 642 1217 674 1200 q 586 1249 610 1233 q 542 1274 558 1268 q 507 1281 526 1281 q 451 1266 479 1281 q 400 1224 424 1251 q 374 1207 390 1210 q 344 1213 357 1204 q 325 1238 328 1222 q 332 1268 322 1254 q 414 1337 368 1313 q 507 1361 460 1361 q 579 1346 549 1361 q 632 1315 610 1331 q 673 1290 656 1300 q 717 1281 690 1281 q 760 1288 742 1281 q 793 1311 779 1296 q 819 1328 804 1324 q 847 1326 835 1333 q 871 1301 867 1317 q 864 1271 875 1286 q 717 1200 810 1200 z "},"O":{"ha":1279,"x_min":83,"x_max":1196,"o":"m 640 -14 q 419 28 521 -14 q 242 145 318 69 q 125 322 167 221 q 83 543 83 424 q 125 763 83 663 q 242 940 167 864 q 419 1057 318 1015 q 640 1099 521 1099 q 860 1057 760 1099 q 1037 940 961 1015 q 1154 763 1113 864 q 1196 543 1196 663 q 1154 322 1196 424 q 1037 145 1113 221 q 860 28 961 69 q 640 -14 760 -14 m 640 69 q 826 105 740 69 q 977 205 913 140 q 1077 356 1042 269 q 1113 543 1113 442 q 1077 729 1113 643 q 977 880 1042 815 q 826 980 913 944 q 640 1015 740 1015 q 453 980 539 1015 q 302 880 367 944 q 202 729 238 815 q 167 543 167 643 q 202 356 167 442 q 302 205 238 269 q 453 105 367 140 q 640 69 539 69 z "},"Ó":{"ha":1279,"x_min":83,"x_max":1196,"o":"m 640 -14 q 419 28 521 -14 q 242 145 318 69 q 125 322 167 221 q 83 543 83 424 q 125 763 83 663 q 242 940 167 864 q 419 1057 318 1015 q 640 1099 521 1099 q 860 1057 760 1099 q 1037 940 961 1015 q 1154 763 1113 864 q 1196 543 1196 663 q 1154 322 1196 424 q 1037 145 1113 221 q 860 28 961 69 q 640 -14 760 -14 m 640 69 q 826 105 740 69 q 977 205 913 140 q 1077 356 1042 269 q 1113 543 1113 442 q 1077 729 1113 643 q 977 880 1042 815 q 826 980 913 944 q 640 1015 740 1015 q 453 980 539 1015 q 302 880 367 944 q 202 729 238 815 q 167 543 167 643 q 202 356 167 442 q 302 205 238 269 q 453 105 367 140 q 640 69 539 69 m 619 1197 q 589 1210 601 1197 q 576 1240 576 1222 q 586 1268 576 1256 l 757 1439 q 788 1451 769 1451 q 818 1440 806 1451 q 831 1408 831 1428 q 828 1394 831 1401 q 818 1379 825 1386 l 647 1208 q 619 1197 636 1197 z "},"Ŏ":{"ha":1279,"x_min":83,"x_max":1196,"o":"m 640 -14 q 419 28 521 -14 q 242 145 318 69 q 125 322 167 221 q 83 543 83 424 q 125 763 83 663 q 242 940 167 864 q 419 1057 318 1015 q 640 1099 521 1099 q 860 1057 760 1099 q 1037 940 961 1015 q 1154 763 1113 864 q 1196 543 1196 663 q 1154 322 1196 424 q 1037 145 1113 221 q 860 28 961 69 q 640 -14 760 -14 m 640 69 q 826 105 740 69 q 977 205 913 140 q 1077 356 1042 269 q 1113 543 1113 442 q 1077 729 1113 643 q 977 880 1042 815 q 826 980 913 944 q 640 1015 740 1015 q 453 980 539 1015 q 302 880 367 944 q 202 729 238 815 q 167 543 167 643 q 202 356 167 442 q 302 205 238 269 q 453 105 367 140 q 640 69 539 69 m 639 1225 q 533 1246 582 1225 q 456 1302 485 1267 q 428 1379 428 1338 q 440 1410 428 1397 q 471 1422 453 1422 q 501 1410 489 1422 q 513 1379 513 1397 q 546 1324 513 1349 q 639 1300 579 1300 q 733 1324 699 1300 q 767 1379 767 1347 q 778 1410 767 1397 q 808 1422 790 1422 q 838 1410 826 1422 q 851 1381 850 1397 q 818 1298 849 1333 q 740 1244 788 1263 q 639 1225 693 1225 z "},"Ô":{"ha":1279,"x_min":83,"x_max":1196,"o":"m 640 -14 q 419 28 521 -14 q 242 145 318 69 q 125 322 167 221 q 83 543 83 424 q 125 763 83 663 q 242 940 167 864 q 419 1057 318 1015 q 640 1099 521 1099 q 860 1057 760 1099 q 1037 940 961 1015 q 1154 763 1113 864 q 1196 543 1196 663 q 1154 322 1196 424 q 1037 145 1113 221 q 860 28 961 69 q 640 -14 760 -14 m 640 69 q 826 105 740 69 q 977 205 913 140 q 1077 356 1042 269 q 1113 543 1113 442 q 1077 729 1113 643 q 977 880 1042 815 q 826 980 913 944 q 640 1015 740 1015 q 453 980 539 1015 q 302 880 367 944 q 202 729 238 815 q 167 543 167 643 q 202 356 167 442 q 302 205 238 269 q 453 105 367 140 q 640 69 539 69 m 474 1225 q 442 1237 456 1225 q 429 1267 429 1249 q 451 1304 429 1290 l 619 1417 q 640 1422 631 1422 q 652 1421 647 1422 q 661 1417 657 1419 l 829 1304 q 851 1267 851 1290 q 840 1237 851 1249 q 808 1225 828 1225 q 794 1227 800 1225 q 782 1233 789 1229 l 640 1328 l 499 1233 q 474 1225 486 1225 z "},"Ố":{"ha":1279,"x_min":83,"x_max":1196,"o":"m 640 -14 q 419 28 521 -14 q 242 145 318 69 q 125 322 167 221 q 83 543 83 424 q 125 763 83 663 q 242 940 167 864 q 419 1057 318 1015 q 640 1099 521 1099 q 860 1057 760 1099 q 1037 940 961 1015 q 1154 763 1113 864 q 1196 543 1196 663 q 1154 322 1196 424 q 1037 145 1113 221 q 860 28 961 69 q 640 -14 760 -14 m 640 69 q 826 105 740 69 q 977 205 913 140 q 1077 356 1042 269 q 1113 543 1113 442 q 1077 729 1113 643 q 977 880 1042 815 q 826 980 913 944 q 640 1015 740 1015 q 453 980 539 1015 q 302 880 367 944 q 202 729 238 815 q 167 543 167 643 q 202 356 167 442 q 302 205 238 269 q 453 105 367 140 q 640 69 539 69 m 474 1225 q 442 1237 456 1225 q 429 1267 429 1249 q 451 1304 429 1290 l 619 1417 q 640 1422 631 1422 q 652 1421 647 1422 q 661 1417 657 1419 l 829 1304 q 851 1267 851 1290 q 840 1237 851 1249 q 808 1225 828 1225 q 794 1227 800 1225 q 782 1233 789 1229 l 640 1328 l 499 1233 q 474 1225 486 1225 m 746 1456 q 715 1468 728 1456 q 703 1499 703 1481 q 713 1526 703 1514 l 883 1697 q 914 1710 896 1710 q 944 1698 932 1710 q 957 1667 957 1686 q 954 1652 957 1660 q 944 1638 951 1644 l 774 1467 q 746 1456 763 1456 z "},"Ộ":{"ha":1279,"x_min":83,"x_max":1196,"o":"m 640 -14 q 419 28 521 -14 q 242 145 318 69 q 125 322 167 221 q 83 543 83 424 q 125 763 83 663 q 242 940 167 864 q 419 1057 318 1015 q 640 1099 521 1099 q 860 1057 760 1099 q 1037 940 961 1015 q 1154 763 1113 864 q 1196 543 1196 663 q 1154 322 1196 424 q 1037 145 1113 221 q 860 28 961 69 q 640 -14 760 -14 m 640 69 q 826 105 740 69 q 977 205 913 140 q 1077 356 1042 269 q 1113 543 1113 442 q 1077 729 1113 643 q 977 880 1042 815 q 826 980 913 944 q 640 1015 740 1015 q 453 980 539 1015 q 302 880 367 944 q 202 729 238 815 q 167 543 167 643 q 202 356 167 442 q 302 205 238 269 q 453 105 367 140 q 640 69 539 69 m 474 1225 q 442 1237 456 1225 q 429 1267 429 1249 q 451 1304 429 1290 l 619 1417 q 640 1422 631 1422 q 652 1421 647 1422 q 661 1417 657 1419 l 829 1304 q 851 1267 851 1290 q 840 1237 851 1249 q 808 1225 828 1225 q 794 1227 800 1225 q 782 1233 789 1229 l 640 1328 l 499 1233 q 474 1225 486 1225 m 639 -275 q 594 -256 613 -275 q 575 -210 575 -237 q 595 -162 575 -178 q 640 -146 615 -146 q 684 -162 664 -146 q 704 -210 704 -178 q 685 -256 704 -237 q 639 -275 667 -275 z "},"Ồ":{"ha":1279,"x_min":83,"x_max":1196,"o":"m 640 -14 q 419 28 521 -14 q 242 145 318 69 q 125 322 167 221 q 83 543 83 424 q 125 763 83 663 q 242 940 167 864 q 419 1057 318 1015 q 640 1099 521 1099 q 860 1057 760 1099 q 1037 940 961 1015 q 1154 763 1113 864 q 1196 543 1196 663 q 1154 322 1196 424 q 1037 145 1113 221 q 860 28 961 69 q 640 -14 760 -14 m 640 69 q 826 105 740 69 q 977 205 913 140 q 1077 356 1042 269 q 1113 543 1113 442 q 1077 729 1113 643 q 977 880 1042 815 q 826 980 913 944 q 640 1015 740 1015 q 453 980 539 1015 q 302 880 367 944 q 202 729 238 815 q 167 543 167 643 q 202 356 167 442 q 302 205 238 269 q 453 105 367 140 q 640 69 539 69 m 474 1225 q 442 1237 456 1225 q 429 1267 429 1249 q 451 1304 429 1290 l 619 1417 q 640 1422 631 1422 q 652 1421 647 1422 q 661 1417 657 1419 l 829 1304 q 851 1267 851 1290 q 840 1237 851 1249 q 808 1225 828 1225 q 794 1227 800 1225 q 782 1233 789 1229 l 640 1328 l 499 1233 q 474 1225 486 1225 m 768 1471 q 739 1482 754 1471 l 568 1653 q 557 1682 557 1664 q 569 1713 557 1701 q 600 1725 582 1725 q 629 1713 617 1725 l 800 1542 q 810 1514 810 1532 q 798 1483 810 1496 q 768 1471 786 1471 z "},"Ổ":{"ha":1279,"x_min":83,"x_max":1196,"o":"m 640 -14 q 419 28 521 -14 q 242 145 318 69 q 125 322 167 221 q 83 543 83 424 q 125 763 83 663 q 242 940 167 864 q 419 1057 318 1015 q 640 1099 521 1099 q 860 1057 760 1099 q 1037 940 961 1015 q 1154 763 1113 864 q 1196 543 1196 663 q 1154 322 1196 424 q 1037 145 1113 221 q 860 28 961 69 q 640 -14 760 -14 m 640 69 q 826 105 740 69 q 977 205 913 140 q 1077 356 1042 269 q 1113 543 1113 442 q 1077 729 1113 643 q 977 880 1042 815 q 826 980 913 944 q 640 1015 740 1015 q 453 980 539 1015 q 302 880 367 944 q 202 729 238 815 q 167 543 167 643 q 202 356 167 442 q 302 205 238 269 q 453 105 367 140 q 640 69 539 69 m 475 1225 q 444 1237 457 1225 q 431 1267 431 1249 q 453 1304 431 1290 l 621 1417 q 642 1422 632 1422 q 653 1421 649 1422 q 663 1417 658 1419 l 831 1304 q 853 1267 853 1290 q 841 1237 853 1249 q 810 1225 829 1225 q 796 1227 801 1225 q 783 1233 790 1229 l 642 1328 l 500 1233 q 475 1225 488 1225 m 765 1411 q 737 1423 749 1411 q 725 1451 725 1435 l 725 1497 q 761 1542 725 1533 l 794 1549 q 840 1571 828 1556 q 853 1613 853 1586 q 831 1665 853 1646 q 776 1683 808 1683 q 746 1678 760 1683 q 718 1661 732 1672 q 706 1654 713 1657 q 692 1651 699 1651 q 663 1663 675 1651 q 651 1692 651 1675 q 665 1722 651 1711 q 717 1753 689 1742 q 776 1764 746 1764 q 888 1726 842 1764 q 933 1621 933 1688 q 895 1526 933 1560 q 806 1485 857 1493 l 806 1451 q 794 1423 806 1435 q 765 1411 782 1411 z "},"Ỗ":{"ha":1279,"x_min":83,"x_max":1196,"o":"m 640 -14 q 419 28 521 -14 q 242 145 318 69 q 125 322 167 221 q 83 543 83 424 q 125 763 83 663 q 242 940 167 864 q 419 1057 318 1015 q 640 1099 521 1099 q 860 1057 760 1099 q 1037 940 961 1015 q 1154 763 1113 864 q 1196 543 1196 663 q 1154 322 1196 424 q 1037 145 1113 221 q 860 28 961 69 q 640 -14 760 -14 m 640 69 q 826 105 740 69 q 977 205 913 140 q 1077 356 1042 269 q 1113 543 1113 442 q 1077 729 1113 643 q 977 880 1042 815 q 826 980 913 944 q 640 1015 740 1015 q 453 980 539 1015 q 302 880 367 944 q 202 729 238 815 q 167 543 167 643 q 202 356 167 442 q 302 205 238 269 q 453 105 367 140 q 640 69 539 69 m 474 1225 q 442 1237 456 1225 q 429 1267 429 1249 q 451 1304 429 1290 l 619 1417 q 640 1422 631 1422 q 652 1421 647 1422 q 661 1417 657 1419 l 829 1304 q 851 1267 851 1290 q 840 1237 851 1249 q 808 1225 828 1225 q 794 1227 800 1225 q 782 1233 789 1229 l 640 1328 l 499 1233 q 474 1225 486 1225 m 724 1461 q 664 1478 690 1461 q 622 1508 638 1494 q 587 1539 601 1529 q 554 1549 572 1549 q 524 1533 536 1549 q 496 1489 511 1517 q 474 1467 488 1474 q 446 1465 460 1461 q 425 1485 431 1471 q 426 1517 419 1500 q 481 1596 450 1572 q 553 1619 511 1619 q 610 1606 589 1619 q 653 1574 631 1593 q 694 1543 681 1551 q 718 1535 707 1535 q 754 1576 739 1535 q 776 1601 761 1593 q 804 1606 790 1610 q 831 1586 824 1600 q 831 1554 838 1572 q 783 1482 810 1503 q 724 1461 757 1461 z "},"Ȍ":{"ha":1279,"x_min":83,"x_max":1196,"o":"m 640 -14 q 419 28 521 -14 q 242 145 318 69 q 125 322 167 221 q 83 543 83 424 q 125 763 83 663 q 242 940 167 864 q 419 1057 318 1015 q 640 1099 521 1099 q 860 1057 760 1099 q 1037 940 961 1015 q 1154 763 1113 864 q 1196 543 1196 663 q 1154 322 1196 424 q 1037 145 1113 221 q 860 28 961 69 q 640 -14 760 -14 m 640 69 q 826 105 740 69 q 977 205 913 140 q 1077 356 1042 269 q 1113 543 1113 442 q 1077 729 1113 643 q 977 880 1042 815 q 826 980 913 944 q 640 1015 740 1015 q 453 980 539 1015 q 302 880 367 944 q 202 729 238 815 q 167 543 167 643 q 202 356 167 442 q 302 205 238 269 q 453 105 367 140 q 640 69 539 69 m 797 1199 q 768 1218 778 1199 l 678 1408 q 675 1424 675 1417 q 687 1452 675 1439 q 718 1465 699 1465 q 741 1458 731 1465 q 757 1439 751 1451 l 821 1239 q 822 1226 822 1236 q 815 1206 822 1213 q 797 1199 807 1199 m 578 1199 q 550 1218 558 1199 l 460 1408 q 458 1415 458 1411 q 457 1424 457 1419 q 469 1452 457 1439 q 500 1465 481 1465 q 523 1458 513 1465 q 538 1439 533 1451 l 603 1239 q 604 1234 604 1238 q 604 1226 604 1231 q 597 1206 604 1213 q 578 1199 589 1199 z "},"Ö":{"ha":1279,"x_min":83,"x_max":1196,"o":"m 640 -14 q 419 28 521 -14 q 242 145 318 69 q 125 322 167 221 q 83 543 83 424 q 125 763 83 663 q 242 940 167 864 q 419 1057 318 1015 q 640 1099 521 1099 q 860 1057 760 1099 q 1037 940 961 1015 q 1154 763 1113 864 q 1196 543 1196 663 q 1154 322 1196 424 q 1037 145 1113 221 q 860 28 961 69 q 640 -14 760 -14 m 640 69 q 826 105 740 69 q 977 205 913 140 q 1077 356 1042 269 q 1113 543 1113 442 q 1077 729 1113 643 q 977 880 1042 815 q 826 980 913 944 q 640 1015 740 1015 q 453 980 539 1015 q 302 880 367 944 q 202 729 238 815 q 167 543 167 643 q 202 356 167 442 q 302 205 238 269 q 453 105 367 140 q 640 69 539 69 m 501 1238 q 450 1258 471 1238 q 429 1310 429 1279 q 450 1360 429 1339 q 501 1381 471 1381 q 552 1360 532 1381 q 572 1310 572 1339 q 552 1258 572 1279 q 501 1238 532 1238 m 779 1238 q 728 1258 749 1238 q 707 1310 707 1279 q 728 1360 707 1339 q 779 1381 749 1381 q 830 1360 810 1381 q 850 1310 850 1339 q 830 1258 850 1279 q 779 1238 810 1238 z "},"Ȫ":{"ha":1279,"x_min":83,"x_max":1196,"o":"m 640 -14 q 419 28 521 -14 q 242 145 318 69 q 125 322 167 221 q 83 543 83 424 q 125 763 83 663 q 242 940 167 864 q 419 1057 318 1015 q 640 1099 521 1099 q 860 1057 760 1099 q 1037 940 961 1015 q 1154 763 1113 864 q 1196 543 1196 663 q 1154 322 1196 424 q 1037 145 1113 221 q 860 28 961 69 q 640 -14 760 -14 m 640 69 q 826 105 740 69 q 977 205 913 140 q 1077 356 1042 269 q 1113 543 1113 442 q 1077 729 1113 643 q 977 880 1042 815 q 826 980 913 944 q 640 1015 740 1015 q 453 980 539 1015 q 302 880 367 944 q 202 729 238 815 q 167 543 167 643 q 202 356 167 442 q 302 205 238 269 q 453 105 367 140 q 640 69 539 69 m 501 1238 q 450 1258 471 1238 q 429 1310 429 1279 q 450 1360 429 1339 q 501 1381 471 1381 q 552 1360 532 1381 q 572 1310 572 1339 q 552 1258 572 1279 q 501 1238 532 1238 m 779 1238 q 728 1258 749 1238 q 707 1310 707 1279 q 728 1360 707 1339 q 779 1381 749 1381 q 830 1360 810 1381 q 850 1310 850 1339 q 830 1258 850 1279 q 779 1238 810 1238 m 456 1497 q 426 1509 438 1497 q 414 1539 414 1521 q 426 1569 414 1557 q 456 1582 438 1582 l 824 1582 q 853 1569 842 1582 q 865 1539 865 1557 q 853 1509 865 1521 q 824 1497 842 1497 l 456 1497 z "},"Ȱ":{"ha":1279,"x_min":83,"x_max":1196,"o":"m 640 -14 q 419 28 521 -14 q 242 145 318 69 q 125 322 167 221 q 83 543 83 424 q 125 763 83 663 q 242 940 167 864 q 419 1057 318 1015 q 640 1099 521 1099 q 860 1057 760 1099 q 1037 940 961 1015 q 1154 763 1113 864 q 1196 543 1196 663 q 1154 322 1196 424 q 1037 145 1113 221 q 860 28 961 69 q 640 -14 760 -14 m 640 69 q 826 105 740 69 q 977 205 913 140 q 1077 356 1042 269 q 1113 543 1113 442 q 1077 729 1113 643 q 977 880 1042 815 q 826 980 913 944 q 640 1015 740 1015 q 453 980 539 1015 q 302 880 367 944 q 202 729 238 815 q 167 543 167 643 q 202 356 167 442 q 302 205 238 269 q 453 105 367 140 q 640 69 539 69 m 639 1244 q 594 1263 613 1244 q 575 1310 575 1282 q 595 1358 575 1342 q 640 1374 615 1374 q 684 1358 664 1374 q 704 1310 704 1342 q 685 1263 704 1282 q 639 1244 667 1244 m 456 1463 q 426 1474 438 1463 q 414 1504 414 1486 q 426 1535 414 1522 q 456 1547 438 1547 l 824 1547 q 853 1535 842 1547 q 865 1504 865 1522 q 853 1474 865 1486 q 824 1463 842 1463 l 456 1463 z "},"Ọ":{"ha":1279,"x_min":83,"x_max":1196,"o":"m 640 -14 q 419 28 521 -14 q 242 145 318 69 q 125 322 167 221 q 83 543 83 424 q 125 763 83 663 q 242 940 167 864 q 419 1057 318 1015 q 640 1099 521 1099 q 860 1057 760 1099 q 1037 940 961 1015 q 1154 763 1113 864 q 1196 543 1196 663 q 1154 322 1196 424 q 1037 145 1113 221 q 860 28 961 69 q 640 -14 760 -14 m 640 69 q 826 105 740 69 q 977 205 913 140 q 1077 356 1042 269 q 1113 543 1113 442 q 1077 729 1113 643 q 977 880 1042 815 q 826 980 913 944 q 640 1015 740 1015 q 453 980 539 1015 q 302 880 367 944 q 202 729 238 815 q 167 543 167 643 q 202 356 167 442 q 302 205 238 269 q 453 105 367 140 q 640 69 539 69 m 639 -275 q 594 -256 613 -275 q 575 -210 575 -237 q 595 -162 575 -178 q 640 -146 615 -146 q 684 -162 664 -146 q 704 -210 704 -178 q 685 -256 704 -237 q 639 -275 667 -275 z "},"Ò":{"ha":1279,"x_min":83,"x_max":1196,"o":"m 640 -14 q 419 28 521 -14 q 242 145 318 69 q 125 322 167 221 q 83 543 83 424 q 125 763 83 663 q 242 940 167 864 q 419 1057 318 1015 q 640 1099 521 1099 q 860 1057 760 1099 q 1037 940 961 1015 q 1154 763 1113 864 q 1196 543 1196 663 q 1154 322 1196 424 q 1037 145 1113 221 q 860 28 961 69 q 640 -14 760 -14 m 640 69 q 826 105 740 69 q 977 205 913 140 q 1077 356 1042 269 q 1113 543 1113 442 q 1077 729 1113 643 q 977 880 1042 815 q 826 980 913 944 q 640 1015 740 1015 q 453 980 539 1015 q 302 880 367 944 q 202 729 238 815 q 167 543 167 643 q 202 356 167 442 q 302 205 238 269 q 453 105 367 140 q 640 69 539 69 m 642 1213 q 613 1224 628 1213 l 442 1394 q 431 1424 431 1406 q 443 1455 431 1443 q 474 1467 456 1467 q 503 1454 490 1467 l 674 1283 q 683 1256 683 1274 q 672 1225 683 1238 q 642 1213 660 1213 z "},"Ỏ":{"ha":1279,"x_min":83,"x_max":1196,"o":"m 640 -14 q 419 28 521 -14 q 242 145 318 69 q 125 322 167 221 q 83 543 83 424 q 125 763 83 663 q 242 940 167 864 q 419 1057 318 1015 q 640 1099 521 1099 q 860 1057 760 1099 q 1037 940 961 1015 q 1154 763 1113 864 q 1196 543 1196 663 q 1154 322 1196 424 q 1037 145 1113 221 q 860 28 961 69 q 640 -14 760 -14 m 640 69 q 826 105 740 69 q 977 205 913 140 q 1077 356 1042 269 q 1113 543 1113 442 q 1077 729 1113 643 q 977 880 1042 815 q 826 980 913 944 q 640 1015 740 1015 q 453 980 539 1015 q 302 880 367 944 q 202 729 238 815 q 167 543 167 643 q 202 356 167 442 q 302 205 238 269 q 453 105 367 140 q 640 69 539 69 m 638 1153 q 609 1165 621 1153 q 597 1193 597 1176 l 597 1239 q 633 1283 597 1275 l 667 1290 q 713 1313 700 1297 q 725 1354 725 1328 q 703 1406 725 1388 q 649 1425 681 1425 q 618 1419 632 1425 q 590 1403 604 1414 q 578 1396 585 1399 q 564 1393 571 1393 q 535 1405 547 1393 q 524 1433 524 1417 q 538 1464 524 1453 q 590 1494 561 1483 q 649 1506 618 1506 q 760 1467 714 1506 q 806 1363 806 1429 q 767 1268 806 1301 q 678 1226 729 1235 l 678 1193 q 666 1165 678 1176 q 638 1153 654 1153 z "},"Ơ":{"ha":1279,"x_min":83,"x_max":1196,"o":"m 640 -14 q 419 28 521 -14 q 242 145 318 69 q 125 322 167 221 q 83 543 83 424 q 125 763 83 663 q 242 940 167 864 q 419 1057 318 1015 q 640 1099 521 1099 q 860 1057 760 1099 q 1037 940 961 1015 q 1154 763 1113 864 q 1196 543 1196 663 q 1154 322 1196 424 q 1037 145 1113 221 q 860 28 961 69 q 640 -14 760 -14 m 640 69 q 826 105 740 69 q 977 205 913 140 q 1077 356 1042 269 q 1113 543 1113 442 q 1077 729 1113 643 q 977 880 1042 815 q 826 980 913 944 q 640 1015 740 1015 q 453 980 539 1015 q 302 880 367 944 q 202 729 238 815 q 167 543 167 643 q 202 356 167 442 q 302 205 238 269 q 453 105 367 140 q 640 69 539 69 m 892 960 l 892 1040 l 950 1040 q 991 1058 975 1040 q 1007 1104 1007 1076 l 1007 1136 q 1017 1165 1007 1153 q 1047 1176 1028 1176 q 1077 1163 1067 1176 q 1088 1129 1088 1149 l 1088 1104 q 1069 1031 1088 1064 q 1020 978 1051 997 q 950 960 989 960 l 892 960 z "},"Ớ":{"ha":1279,"x_min":83,"x_max":1196,"o":"m 640 -14 q 419 28 521 -14 q 242 145 318 69 q 125 322 167 221 q 83 543 83 424 q 125 763 83 663 q 242 940 167 864 q 419 1057 318 1015 q 640 1099 521 1099 q 860 1057 760 1099 q 1037 940 961 1015 q 1154 763 1113 864 q 1196 543 1196 663 q 1154 322 1196 424 q 1037 145 1113 221 q 860 28 961 69 q 640 -14 760 -14 m 640 69 q 826 105 740 69 q 977 205 913 140 q 1077 356 1042 269 q 1113 543 1113 442 q 1077 729 1113 643 q 977 880 1042 815 q 826 980 913 944 q 640 1015 740 1015 q 453 980 539 1015 q 302 880 367 944 q 202 729 238 815 q 167 543 167 643 q 202 356 167 442 q 302 205 238 269 q 453 105 367 140 q 640 69 539 69 m 892 960 l 892 1040 l 950 1040 q 991 1058 975 1040 q 1007 1104 1007 1076 l 1007 1136 q 1017 1165 1007 1153 q 1047 1176 1028 1176 q 1077 1163 1067 1176 q 1088 1129 1088 1149 l 1088 1104 q 1069 1031 1088 1064 q 1020 978 1051 997 q 950 960 989 960 l 892 960 m 619 1197 q 589 1210 601 1197 q 576 1240 576 1222 q 586 1268 576 1256 l 757 1439 q 788 1451 769 1451 q 818 1440 806 1451 q 831 1408 831 1428 q 828 1394 831 1401 q 818 1379 825 1386 l 647 1208 q 619 1197 636 1197 z "},"Ợ":{"ha":1279,"x_min":83,"x_max":1196,"o":"m 640 -14 q 419 28 521 -14 q 242 145 318 69 q 125 322 167 221 q 83 543 83 424 q 125 763 83 663 q 242 940 167 864 q 419 1057 318 1015 q 640 1099 521 1099 q 860 1057 760 1099 q 1037 940 961 1015 q 1154 763 1113 864 q 1196 543 1196 663 q 1154 322 1196 424 q 1037 145 1113 221 q 860 28 961 69 q 640 -14 760 -14 m 640 69 q 826 105 740 69 q 977 205 913 140 q 1077 356 1042 269 q 1113 543 1113 442 q 1077 729 1113 643 q 977 880 1042 815 q 826 980 913 944 q 640 1015 740 1015 q 453 980 539 1015 q 302 880 367 944 q 202 729 238 815 q 167 543 167 643 q 202 356 167 442 q 302 205 238 269 q 453 105 367 140 q 640 69 539 69 m 892 960 l 892 1040 l 950 1040 q 991 1058 975 1040 q 1007 1104 1007 1076 l 1007 1136 q 1017 1165 1007 1153 q 1047 1176 1028 1176 q 1077 1163 1067 1176 q 1088 1129 1088 1149 l 1088 1104 q 1069 1031 1088 1064 q 1020 978 1051 997 q 950 960 989 960 l 892 960 m 639 -275 q 594 -256 613 -275 q 575 -210 575 -237 q 595 -162 575 -178 q 640 -146 615 -146 q 684 -162 664 -146 q 704 -210 704 -178 q 685 -256 704 -237 q 639 -275 667 -275 z "},"Ờ":{"ha":1279,"x_min":83,"x_max":1196,"o":"m 640 -14 q 419 28 521 -14 q 242 145 318 69 q 125 322 167 221 q 83 543 83 424 q 125 763 83 663 q 242 940 167 864 q 419 1057 318 1015 q 640 1099 521 1099 q 860 1057 760 1099 q 1037 940 961 1015 q 1154 763 1113 864 q 1196 543 1196 663 q 1154 322 1196 424 q 1037 145 1113 221 q 860 28 961 69 q 640 -14 760 -14 m 640 69 q 826 105 740 69 q 977 205 913 140 q 1077 356 1042 269 q 1113 543 1113 442 q 1077 729 1113 643 q 977 880 1042 815 q 826 980 913 944 q 640 1015 740 1015 q 453 980 539 1015 q 302 880 367 944 q 202 729 238 815 q 167 543 167 643 q 202 356 167 442 q 302 205 238 269 q 453 105 367 140 q 640 69 539 69 m 892 960 l 892 1040 l 950 1040 q 991 1058 975 1040 q 1007 1104 1007 1076 l 1007 1136 q 1017 1165 1007 1153 q 1047 1176 1028 1176 q 1077 1163 1067 1176 q 1088 1129 1088 1149 l 1088 1104 q 1069 1031 1088 1064 q 1020 978 1051 997 q 950 960 989 960 l 892 960 m 642 1213 q 613 1224 628 1213 l 442 1394 q 431 1424 431 1406 q 443 1455 431 1443 q 474 1467 456 1467 q 503 1454 490 1467 l 674 1283 q 683 1256 683 1274 q 672 1225 683 1238 q 642 1213 660 1213 z "},"Ở":{"ha":1279,"x_min":83,"x_max":1196,"o":"m 640 -14 q 419 28 521 -14 q 242 145 318 69 q 125 322 167 221 q 83 543 83 424 q 125 763 83 663 q 242 940 167 864 q 419 1057 318 1015 q 640 1099 521 1099 q 860 1057 760 1099 q 1037 940 961 1015 q 1154 763 1113 864 q 1196 543 1196 663 q 1154 322 1196 424 q 1037 145 1113 221 q 860 28 961 69 q 640 -14 760 -14 m 640 69 q 826 105 740 69 q 977 205 913 140 q 1077 356 1042 269 q 1113 543 1113 442 q 1077 729 1113 643 q 977 880 1042 815 q 826 980 913 944 q 640 1015 740 1015 q 453 980 539 1015 q 302 880 367 944 q 202 729 238 815 q 167 543 167 643 q 202 356 167 442 q 302 205 238 269 q 453 105 367 140 q 640 69 539 69 m 892 960 l 892 1040 l 950 1040 q 991 1058 975 1040 q 1007 1104 1007 1076 l 1007 1136 q 1017 1165 1007 1153 q 1047 1176 1028 1176 q 1077 1163 1067 1176 q 1088 1129 1088 1149 l 1088 1104 q 1069 1031 1088 1064 q 1020 978 1051 997 q 950 960 989 960 l 892 960 m 638 1153 q 609 1165 621 1153 q 597 1193 597 1176 l 597 1239 q 633 1283 597 1275 l 667 1290 q 713 1313 700 1297 q 725 1354 725 1328 q 703 1406 725 1388 q 649 1425 681 1425 q 618 1419 632 1425 q 590 1403 604 1414 q 578 1396 585 1399 q 564 1393 571 1393 q 535 1405 547 1393 q 524 1433 524 1417 q 538 1464 524 1453 q 590 1494 561 1483 q 649 1506 618 1506 q 760 1467 714 1506 q 806 1363 806 1429 q 767 1268 806 1301 q 678 1226 729 1235 l 678 1193 q 666 1165 678 1176 q 638 1153 654 1153 z "},"Ỡ":{"ha":1279,"x_min":83,"x_max":1196,"o":"m 640 -14 q 419 28 521 -14 q 242 145 318 69 q 125 322 167 221 q 83 543 83 424 q 125 763 83 663 q 242 940 167 864 q 419 1057 318 1015 q 640 1099 521 1099 q 860 1057 760 1099 q 1037 940 961 1015 q 1154 763 1113 864 q 1196 543 1196 663 q 1154 322 1196 424 q 1037 145 1113 221 q 860 28 961 69 q 640 -14 760 -14 m 640 69 q 826 105 740 69 q 977 205 913 140 q 1077 356 1042 269 q 1113 543 1113 442 q 1077 729 1113 643 q 977 880 1042 815 q 826 980 913 944 q 640 1015 740 1015 q 453 980 539 1015 q 302 880 367 944 q 202 729 238 815 q 167 543 167 643 q 202 356 167 442 q 302 205 238 269 q 453 105 367 140 q 640 69 539 69 m 892 960 l 892 1040 l 950 1040 q 991 1058 975 1040 q 1007 1104 1007 1076 l 1007 1136 q 1017 1165 1007 1153 q 1047 1176 1028 1176 q 1077 1163 1067 1176 q 1088 1129 1088 1149 l 1088 1104 q 1069 1031 1088 1064 q 1020 978 1051 997 q 950 960 989 960 l 892 960 m 786 1200 q 711 1217 743 1200 q 656 1249 679 1233 q 612 1274 628 1268 q 576 1281 596 1281 q 521 1266 549 1281 q 469 1224 493 1251 q 443 1207 460 1210 q 414 1213 426 1204 q 394 1238 397 1222 q 401 1268 392 1254 q 483 1337 438 1313 q 576 1361 529 1361 q 649 1346 618 1361 q 701 1315 679 1331 q 742 1290 725 1300 q 786 1281 760 1281 q 830 1288 811 1281 q 863 1311 849 1296 q 889 1328 874 1324 q 917 1326 904 1333 q 940 1301 936 1317 q 933 1271 944 1286 q 786 1200 879 1200 z "},"Ő":{"ha":1279,"x_min":83,"x_max":1196,"o":"m 640 -14 q 419 28 521 -14 q 242 145 318 69 q 125 322 167 221 q 83 543 83 424 q 125 763 83 663 q 242 940 167 864 q 419 1057 318 1015 q 640 1099 521 1099 q 860 1057 760 1099 q 1037 940 961 1015 q 1154 763 1113 864 q 1196 543 1196 663 q 1154 322 1196 424 q 1037 145 1113 221 q 860 28 961 69 q 640 -14 760 -14 m 640 69 q 826 105 740 69 q 977 205 913 140 q 1077 356 1042 269 q 1113 543 1113 442 q 1077 729 1113 643 q 977 880 1042 815 q 826 980 913 944 q 640 1015 740 1015 q 453 980 539 1015 q 302 880 367 944 q 202 729 238 815 q 167 543 167 643 q 202 356 167 442 q 302 205 238 269 q 453 105 367 140 q 640 69 539 69 m 743 1199 q 725 1206 733 1199 q 717 1226 717 1213 q 717 1234 717 1231 q 718 1239 717 1238 l 783 1439 q 798 1458 788 1451 q 821 1465 808 1465 q 852 1452 840 1465 q 864 1424 864 1439 q 863 1415 864 1419 q 861 1408 863 1411 l 771 1218 q 743 1199 763 1199 m 525 1199 q 507 1206 515 1199 q 499 1226 499 1213 q 499 1234 499 1231 q 500 1239 499 1238 l 564 1439 q 580 1458 569 1451 q 603 1465 590 1465 q 634 1452 622 1465 q 646 1424 646 1439 q 643 1408 646 1417 l 553 1218 q 525 1199 543 1199 z "},"Ȏ":{"ha":1279,"x_min":83,"x_max":1196,"o":"m 640 -14 q 419 28 521 -14 q 242 145 318 69 q 125 322 167 221 q 83 543 83 424 q 125 763 83 663 q 242 940 167 864 q 419 1057 318 1015 q 640 1099 521 1099 q 860 1057 760 1099 q 1037 940 961 1015 q 1154 763 1113 864 q 1196 543 1196 663 q 1154 322 1196 424 q 1037 145 1113 221 q 860 28 961 69 q 640 -14 760 -14 m 640 69 q 826 105 740 69 q 977 205 913 140 q 1077 356 1042 269 q 1113 543 1113 442 q 1077 729 1113 643 q 977 880 1042 815 q 826 980 913 944 q 640 1015 740 1015 q 453 980 539 1015 q 302 880 367 944 q 202 729 238 815 q 167 543 167 643 q 202 356 167 442 q 302 205 238 269 q 453 105 367 140 q 640 69 539 69 m 471 1225 q 440 1238 453 1225 q 428 1268 428 1250 q 456 1346 428 1311 q 533 1401 485 1381 q 639 1422 582 1422 q 740 1403 693 1422 q 818 1350 788 1385 q 851 1267 849 1315 q 838 1238 850 1250 q 808 1225 826 1225 q 778 1238 790 1225 q 767 1268 767 1250 q 733 1324 767 1300 q 639 1347 699 1347 q 546 1324 579 1347 q 513 1268 513 1300 q 501 1238 513 1250 q 471 1225 489 1225 z "},"Ō":{"ha":1279,"x_min":83,"x_max":1196,"o":"m 640 -14 q 419 28 521 -14 q 242 145 318 69 q 125 322 167 221 q 83 543 83 424 q 125 763 83 663 q 242 940 167 864 q 419 1057 318 1015 q 640 1099 521 1099 q 860 1057 760 1099 q 1037 940 961 1015 q 1154 763 1113 864 q 1196 543 1196 663 q 1154 322 1196 424 q 1037 145 1113 221 q 860 28 961 69 q 640 -14 760 -14 m 640 69 q 826 105 740 69 q 977 205 913 140 q 1077 356 1042 269 q 1113 543 1113 442 q 1077 729 1113 643 q 977 880 1042 815 q 826 980 913 944 q 640 1015 740 1015 q 453 980 539 1015 q 302 880 367 944 q 202 729 238 815 q 167 543 167 643 q 202 356 167 442 q 302 205 238 269 q 453 105 367 140 q 640 69 539 69 m 456 1243 q 426 1255 438 1243 q 414 1285 414 1267 q 426 1315 414 1303 q 456 1328 438 1328 l 824 1328 q 853 1315 842 1328 q 865 1285 865 1303 q 853 1255 865 1267 q 824 1243 842 1243 l 456 1243 z "},"Ǫ":{"ha":1279,"x_min":83,"x_max":1196,"o":"m 640 -14 q 419 28 521 -14 q 242 145 318 69 q 125 322 167 221 q 83 543 83 424 q 125 763 83 663 q 242 940 167 864 q 419 1057 318 1015 q 640 1099 521 1099 q 860 1057 760 1099 q 1037 940 961 1015 q 1154 763 1113 864 q 1196 543 1196 663 q 1154 322 1196 424 q 1037 145 1113 221 q 860 28 961 69 q 640 -14 760 -14 m 640 69 q 826 105 740 69 q 977 205 913 140 q 1077 356 1042 269 q 1113 543 1113 442 q 1077 729 1113 643 q 977 880 1042 815 q 826 980 913 944 q 640 1015 740 1015 q 453 980 539 1015 q 302 880 367 944 q 202 729 238 815 q 167 543 167 643 q 202 356 167 442 q 302 205 238 269 q 453 105 367 140 q 640 69 539 69 m 640 -349 q 564 -328 599 -349 q 508 -272 529 -307 q 486 -194 486 -237 q 551 -68 486 -121 q 585 -36 572 -51 q 604 -7 599 -21 q 640 14 615 14 q 672 3 660 14 q 683 -26 683 -8 q 662 -80 683 -53 q 600 -137 640 -107 q 578 -164 586 -149 q 571 -194 571 -179 q 591 -244 571 -224 q 640 -264 611 -264 q 660 -261 650 -264 q 679 -253 669 -258 l 728 -217 q 753 -208 740 -208 q 783 -221 771 -208 q 796 -251 796 -233 q 782 -283 796 -272 l 725 -322 q 640 -349 686 -349 z "},"Ø":{"ha":1193,"x_min":74,"x_max":1200,"o":"m 124 0 q 83 26 93 0 q 92 71 74 53 l 221 200 l 265 233 l 965 933 l 1004 963 l 1117 1074 q 1146 1085 1128 1085 q 1186 1061 1172 1085 q 1178 1015 1200 1038 l 1065 903 l 1029 876 l 322 169 l 283 142 l 153 11 q 124 0 142 0 m 640 -14 q 419 28 521 -14 q 242 145 318 69 q 125 322 167 221 q 83 543 83 424 q 125 763 83 663 q 242 940 167 864 q 419 1057 318 1015 q 640 1099 521 1099 q 860 1057 760 1099 q 1037 940 961 1015 q 1154 763 1113 864 q 1196 543 1196 663 q 1154 322 1196 424 q 1037 145 1113 221 q 860 28 961 69 q 640 -14 760 -14 m 640 69 q 826 105 740 69 q 977 205 913 140 q 1077 356 1042 269 q 1113 543 1113 442 q 1077 729 1113 643 q 977 880 1042 815 q 826 980 913 944 q 640 1015 740 1015 q 453 980 539 1015 q 302 880 367 944 q 202 729 238 815 q 167 543 167 643 q 202 356 167 442 q 302 205 238 269 q 453 105 367 140 q 640 69 539 69 z "},"Ǿ":{"ha":1193,"x_min":74,"x_max":1200,"o":"m 124 0 q 83 26 93 0 q 92 71 74 53 l 221 200 l 265 233 l 965 933 l 1004 963 l 1117 1074 q 1146 1085 1128 1085 q 1186 1061 1172 1085 q 1178 1015 1200 1038 l 1065 903 l 1029 876 l 322 169 l 283 142 l 153 11 q 124 0 142 0 m 640 -14 q 419 28 521 -14 q 242 145 318 69 q 125 322 167 221 q 83 543 83 424 q 125 763 83 663 q 242 940 167 864 q 419 1057 318 1015 q 640 1099 521 1099 q 860 1057 760 1099 q 1037 940 961 1015 q 1154 763 1113 864 q 1196 543 1196 663 q 1154 322 1196 424 q 1037 145 1113 221 q 860 28 961 69 q 640 -14 760 -14 m 640 69 q 826 105 740 69 q 977 205 913 140 q 1077 356 1042 269 q 1113 543 1113 442 q 1077 729 1113 643 q 977 880 1042 815 q 826 980 913 944 q 640 1015 740 1015 q 453 980 539 1015 q 302 880 367 944 q 202 729 238 815 q 167 543 167 643 q 202 356 167 442 q 302 205 238 269 q 453 105 367 140 q 640 69 539 69 m 619 1197 q 589 1210 601 1197 q 576 1240 576 1222 q 586 1268 576 1256 l 757 1439 q 788 1451 769 1451 q 818 1440 806 1451 q 831 1408 831 1428 q 828 1394 831 1401 q 818 1379 825 1386 l 647 1208 q 619 1197 636 1197 z "},"Õ":{"ha":1279,"x_min":83,"x_max":1196,"o":"m 640 -14 q 419 28 521 -14 q 242 145 318 69 q 125 322 167 221 q 83 543 83 424 q 125 763 83 663 q 242 940 167 864 q 419 1057 318 1015 q 640 1099 521 1099 q 860 1057 760 1099 q 1037 940 961 1015 q 1154 763 1113 864 q 1196 543 1196 663 q 1154 322 1196 424 q 1037 145 1113 221 q 860 28 961 69 q 640 -14 760 -14 m 640 69 q 826 105 740 69 q 977 205 913 140 q 1077 356 1042 269 q 1113 543 1113 442 q 1077 729 1113 643 q 977 880 1042 815 q 826 980 913 944 q 640 1015 740 1015 q 453 980 539 1015 q 302 880 367 944 q 202 729 238 815 q 167 543 167 643 q 202 356 167 442 q 302 205 238 269 q 453 105 367 140 q 640 69 539 69 m 786 1200 q 711 1217 743 1200 q 656 1249 679 1233 q 612 1274 628 1268 q 576 1281 596 1281 q 521 1266 549 1281 q 469 1224 493 1251 q 443 1207 460 1210 q 414 1213 426 1204 q 394 1238 397 1222 q 401 1268 392 1254 q 483 1337 438 1313 q 576 1361 529 1361 q 649 1346 618 1361 q 701 1315 679 1331 q 742 1290 725 1300 q 786 1281 760 1281 q 830 1288 811 1281 q 863 1311 849 1296 q 889 1328 874 1324 q 917 1326 904 1333 q 940 1301 936 1317 q 933 1271 944 1286 q 786 1200 879 1200 z "},"Ȭ":{"ha":1279,"x_min":83,"x_max":1196,"o":"m 640 -14 q 419 28 521 -14 q 242 145 318 69 q 125 322 167 221 q 83 543 83 424 q 125 763 83 663 q 242 940 167 864 q 419 1057 318 1015 q 640 1099 521 1099 q 860 1057 760 1099 q 1037 940 961 1015 q 1154 763 1113 864 q 1196 543 1196 663 q 1154 322 1196 424 q 1037 145 1113 221 q 860 28 961 69 q 640 -14 760 -14 m 640 69 q 826 105 740 69 q 977 205 913 140 q 1077 356 1042 269 q 1113 543 1113 442 q 1077 729 1113 643 q 977 880 1042 815 q 826 980 913 944 q 640 1015 740 1015 q 453 980 539 1015 q 302 880 367 944 q 202 729 238 815 q 167 543 167 643 q 202 356 167 442 q 302 205 238 269 q 453 105 367 140 q 640 69 539 69 m 786 1200 q 711 1217 743 1200 q 656 1249 679 1233 q 612 1274 628 1268 q 576 1281 596 1281 q 521 1266 549 1281 q 469 1224 493 1251 q 443 1207 460 1210 q 414 1213 426 1204 q 394 1238 397 1222 q 401 1268 392 1254 q 483 1337 438 1313 q 576 1361 529 1361 q 649 1346 618 1361 q 701 1315 679 1331 q 742 1290 725 1300 q 786 1281 760 1281 q 830 1288 811 1281 q 863 1311 849 1296 q 889 1328 874 1324 q 917 1326 904 1333 q 940 1301 936 1317 q 933 1271 944 1286 q 786 1200 879 1200 m 469 1447 q 440 1459 451 1447 q 428 1489 428 1471 q 440 1519 428 1507 q 469 1532 451 1532 l 838 1532 q 867 1519 856 1532 q 879 1489 879 1507 q 867 1459 879 1471 q 838 1447 856 1447 l 469 1447 z "},"Œ":{"ha":1593,"x_min":83,"x_max":1531,"o":"m 640 -14 q 419 28 521 -14 q 242 145 318 69 q 125 322 167 221 q 83 543 83 424 q 125 763 83 663 q 242 940 167 864 q 419 1057 318 1015 q 640 1099 521 1099 q 773 1092 710 1099 q 893 1085 836 1085 l 893 989 q 775 1008 839 1001 q 640 1015 711 1015 q 453 980 539 1015 q 302 880 367 944 q 202 729 238 815 q 167 543 167 643 q 202 356 167 442 q 302 205 238 269 q 453 105 367 140 q 640 69 539 69 q 894 99 786 69 l 894 1 q 774 -6 838 1 q 640 -14 710 -14 m 876 0 q 847 12 858 0 q 835 42 835 24 l 835 1043 q 847 1073 835 1061 q 876 1085 858 1085 l 1489 1085 q 1518 1073 1506 1085 q 1531 1043 1531 1061 q 1518 1014 1531 1026 q 1489 1001 1506 1001 l 918 1001 l 918 585 l 1322 585 q 1352 573 1340 585 q 1364 543 1364 561 q 1352 513 1364 525 q 1322 500 1340 500 l 918 500 l 918 83 l 1489 83 q 1518 71 1506 83 q 1531 42 1531 58 q 1518 12 1531 24 q 1489 0 1506 0 l 876 0 z "},"P":{"ha":840,"x_min":139,"x_max":806,"o":"m 181 0 q 151 12 163 0 q 139 42 139 24 l 139 1043 q 151 1074 139 1063 q 181 1085 163 1085 l 458 1085 q 638 1040 560 1085 q 761 917 717 996 q 806 738 806 839 q 761 557 806 636 q 638 433 717 478 q 458 389 560 389 l 222 389 l 222 42 q 211 12 222 24 q 181 0 200 0 m 222 472 l 458 472 q 595 506 536 472 q 688 600 654 540 q 722 738 722 660 q 688 874 722 815 q 595 967 654 933 q 458 1001 536 1001 l 222 1001 l 222 472 z "},"Þ":{"ha":840,"x_min":139,"x_max":806,"o":"m 182 0 q 151 12 163 0 q 139 42 139 24 l 139 1043 q 151 1073 139 1061 q 181 1085 163 1085 q 210 1073 199 1085 q 222 1043 222 1061 l 222 904 l 458 904 q 638 863 560 904 q 761 750 717 822 q 806 585 806 678 q 761 419 806 492 q 638 305 717 346 q 458 264 560 264 l 222 264 l 222 42 q 211 12 222 24 q 182 0 200 0 m 222 339 l 458 339 q 595 372 536 339 q 688 460 654 404 q 722 585 722 515 q 688 709 722 654 q 595 797 654 764 q 458 829 536 829 l 222 829 l 222 339 z "},"Q":{"ha":1279,"x_min":83,"x_max":1196,"o":"m 1069 13 l 761 318 q 749 347 749 331 q 761 375 749 363 q 790 388 774 388 q 818 375 806 388 l 1126 69 q 1139 41 1139 57 q 1126 13 1139 25 q 1098 0 1114 0 q 1069 13 1082 0 m 640 -14 q 419 28 521 -14 q 242 145 318 69 q 125 322 167 221 q 83 543 83 424 q 125 763 83 663 q 242 940 167 864 q 419 1057 318 1015 q 640 1099 521 1099 q 860 1057 760 1099 q 1037 940 961 1015 q 1154 763 1113 864 q 1196 543 1196 663 q 1154 322 1196 424 q 1037 145 1113 221 q 860 28 961 69 q 640 -14 760 -14 m 640 69 q 826 105 740 69 q 977 205 913 140 q 1077 356 1042 269 q 1113 543 1113 442 q 1077 729 1113 643 q 977 880 1042 815 q 826 980 913 944 q 640 1015 740 1015 q 453 980 539 1015 q 302 880 367 944 q 202 729 238 815 q 167 543 167 643 q 202 356 167 442 q 302 205 238 269 q 453 105 367 140 q 640 69 539 69 z "},"R":{"ha":844,"x_min":139,"x_max":817,"o":"m 181 0 q 151 12 163 0 q 139 42 139 24 l 139 1043 q 151 1074 139 1063 q 181 1085 163 1085 l 446 1085 q 626 1042 547 1085 q 749 926 704 1000 q 793 756 793 853 q 749 588 793 661 q 626 472 704 514 q 446 431 547 431 l 222 431 l 222 42 q 211 12 222 24 q 181 0 200 0 m 764 0 q 741 6 749 0 q 726 22 733 13 l 450 464 l 536 483 l 799 64 q 806 18 817 36 q 764 0 796 0 m 222 514 l 446 514 q 583 545 524 514 q 676 631 642 576 q 710 756 710 685 q 676 883 710 828 q 583 970 642 939 q 446 1001 524 1001 l 222 1001 l 222 514 z "},"Ŕ":{"ha":844,"x_min":139,"x_max":817,"o":"m 181 0 q 151 12 163 0 q 139 42 139 24 l 139 1043 q 151 1074 139 1063 q 181 1085 163 1085 l 446 1085 q 626 1042 547 1085 q 749 926 704 1000 q 793 756 793 853 q 749 588 793 661 q 626 472 704 514 q 446 431 547 431 l 222 431 l 222 42 q 211 12 222 24 q 181 0 200 0 m 764 0 q 741 6 749 0 q 726 22 733 13 l 450 464 l 536 483 l 799 64 q 806 18 817 36 q 764 0 796 0 m 222 514 l 446 514 q 583 545 524 514 q 676 631 642 576 q 710 756 710 685 q 676 883 710 828 q 583 970 642 939 q 446 1001 524 1001 l 222 1001 l 222 514 m 401 1197 q 371 1210 383 1197 q 358 1240 358 1222 q 368 1268 358 1256 l 539 1439 q 569 1451 551 1451 q 600 1440 588 1451 q 613 1408 613 1428 q 610 1394 613 1401 q 600 1379 607 1386 l 429 1208 q 401 1197 418 1197 z "},"Ř":{"ha":844,"x_min":139,"x_max":817,"o":"m 181 0 q 151 12 163 0 q 139 42 139 24 l 139 1043 q 151 1074 139 1063 q 181 1085 163 1085 l 446 1085 q 626 1042 547 1085 q 749 926 704 1000 q 793 756 793 853 q 749 588 793 661 q 626 472 704 514 q 446 431 547 431 l 222 431 l 222 42 q 211 12 222 24 q 181 0 200 0 m 764 0 q 741 6 749 0 q 726 22 733 13 l 450 464 l 536 483 l 799 64 q 806 18 817 36 q 764 0 796 0 m 222 514 l 446 514 q 583 545 524 514 q 676 631 642 576 q 710 756 710 685 q 676 883 710 828 q 583 970 642 939 q 446 1001 524 1001 l 222 1001 l 222 514 m 422 1225 q 401 1231 408 1225 l 233 1342 q 211 1379 211 1356 q 232 1414 211 1403 q 281 1406 253 1425 l 422 1308 l 564 1403 q 613 1413 593 1422 q 633 1379 633 1403 q 611 1342 633 1358 l 443 1231 q 422 1225 436 1225 z "},"Ŗ":{"ha":844,"x_min":139,"x_max":817,"o":"m 181 0 q 151 12 163 0 q 139 42 139 24 l 139 1043 q 151 1074 139 1063 q 181 1085 163 1085 l 446 1085 q 626 1042 547 1085 q 749 926 704 1000 q 793 756 793 853 q 749 588 793 661 q 626 472 704 514 q 446 431 547 431 l 222 431 l 222 42 q 211 12 222 24 q 181 0 200 0 m 764 0 q 741 6 749 0 q 726 22 733 13 l 450 464 l 536 483 l 799 64 q 806 18 817 36 q 764 0 796 0 m 222 514 l 446 514 q 583 545 524 514 q 676 631 642 576 q 710 756 710 685 q 676 883 710 828 q 583 970 642 939 q 446 1001 524 1001 l 222 1001 l 222 514 m 432 -322 q 359 -310 397 -322 q 294 -276 321 -297 q 268 -231 268 -256 q 277 -206 268 -215 q 303 -197 286 -197 q 335 -205 322 -197 q 360 -222 347 -212 q 390 -240 372 -232 q 436 -247 407 -247 q 499 -229 476 -247 q 522 -181 522 -211 q 501 -139 522 -156 q 432 -122 479 -122 q 387 -115 403 -122 q 371 -89 371 -107 q 426 -54 371 -54 q 547 -91 500 -54 q 594 -185 594 -128 q 547 -284 594 -246 q 432 -322 499 -322 z "},"Ȑ":{"ha":844,"x_min":139,"x_max":817,"o":"m 181 0 q 151 12 163 0 q 139 42 139 24 l 139 1043 q 151 1074 139 1063 q 181 1085 163 1085 l 446 1085 q 626 1042 547 1085 q 749 926 704 1000 q 793 756 793 853 q 749 588 793 661 q 626 472 704 514 q 446 431 547 431 l 222 431 l 222 42 q 211 12 222 24 q 181 0 200 0 m 764 0 q 741 6 749 0 q 726 22 733 13 l 450 464 l 536 483 l 799 64 q 806 18 817 36 q 764 0 796 0 m 222 514 l 446 514 q 583 545 524 514 q 676 631 642 576 q 710 756 710 685 q 676 883 710 828 q 583 970 642 939 q 446 1001 524 1001 l 222 1001 l 222 514 m 579 1199 q 550 1218 560 1199 l 460 1408 q 457 1424 457 1417 q 469 1452 457 1439 q 500 1465 481 1465 q 523 1458 513 1465 q 539 1439 533 1451 l 603 1239 q 604 1226 604 1236 q 597 1206 604 1213 q 579 1199 589 1199 m 360 1199 q 332 1218 340 1199 l 242 1408 q 240 1415 240 1411 q 239 1424 239 1419 q 251 1452 239 1439 q 282 1465 263 1465 q 305 1458 294 1465 q 319 1439 315 1451 l 385 1239 q 386 1234 386 1238 q 386 1226 386 1231 q 378 1206 386 1213 q 360 1199 371 1199 z "},"Ȓ":{"ha":844,"x_min":139,"x_max":817,"o":"m 181 0 q 151 12 163 0 q 139 42 139 24 l 139 1043 q 151 1074 139 1063 q 181 1085 163 1085 l 446 1085 q 626 1042 547 1085 q 749 926 704 1000 q 793 756 793 853 q 749 588 793 661 q 626 472 704 514 q 446 431 547 431 l 222 431 l 222 42 q 211 12 222 24 q 181 0 200 0 m 764 0 q 741 6 749 0 q 726 22 733 13 l 450 464 l 536 483 l 799 64 q 806 18 817 36 q 764 0 796 0 m 222 514 l 446 514 q 583 545 524 514 q 676 631 642 576 q 710 756 710 685 q 676 883 710 828 q 583 970 642 939 q 446 1001 524 1001 l 222 1001 l 222 514 m 253 1225 q 222 1238 235 1225 q 210 1268 210 1250 q 238 1346 210 1311 q 315 1401 267 1381 q 421 1422 364 1422 q 522 1403 475 1422 q 600 1350 569 1385 q 633 1267 631 1315 q 620 1238 632 1250 q 590 1225 608 1225 q 560 1238 572 1225 q 549 1268 549 1250 q 515 1324 549 1300 q 421 1347 481 1347 q 328 1324 361 1347 q 294 1268 294 1300 q 283 1238 294 1250 q 253 1225 271 1225 z "},"S":{"ha":894,"x_min":86,"x_max":804,"o":"m 464 -14 q 303 10 376 -14 q 178 80 231 35 q 94 186 125 125 q 94 218 86 203 q 119 239 101 233 q 150 238 135 244 q 174 215 165 231 q 240 138 199 171 q 337 87 281 104 q 464 69 393 69 q 601 96 543 69 q 690 174 658 122 q 721 299 721 225 q 655 453 721 390 q 454 535 589 517 q 211 635 299 557 q 124 826 124 714 q 165 969 124 908 q 280 1065 206 1031 q 451 1099 354 1099 q 585 1075 524 1099 q 692 1013 646 1051 q 763 933 738 975 q 767 901 772 918 q 744 876 763 883 q 714 876 729 871 q 689 894 699 881 q 639 951 669 924 q 563 997 608 979 q 451 1015 517 1015 q 272 964 338 1015 q 207 818 207 913 q 234 727 207 768 q 319 657 261 686 q 468 613 378 628 q 726 502 647 582 q 804 299 804 422 q 780 168 804 226 q 710 69 756 110 q 603 8 665 29 q 464 -14 540 -14 z "},"Ś":{"ha":894,"x_min":86,"x_max":804,"o":"m 464 -14 q 303 10 376 -14 q 178 80 231 35 q 94 186 125 125 q 94 218 86 203 q 119 239 101 233 q 150 238 135 244 q 174 215 165 231 q 240 138 199 171 q 337 87 281 104 q 464 69 393 69 q 601 96 543 69 q 690 174 658 122 q 721 299 721 225 q 655 453 721 390 q 454 535 589 517 q 211 635 299 557 q 124 826 124 714 q 165 969 124 908 q 280 1065 206 1031 q 451 1099 354 1099 q 585 1075 524 1099 q 692 1013 646 1051 q 763 933 738 975 q 767 901 772 918 q 744 876 763 883 q 714 876 729 871 q 689 894 699 881 q 639 951 669 924 q 563 997 608 979 q 451 1015 517 1015 q 272 964 338 1015 q 207 818 207 913 q 234 727 207 768 q 319 657 261 686 q 468 613 378 628 q 726 502 647 582 q 804 299 804 422 q 780 168 804 226 q 710 69 756 110 q 603 8 665 29 q 464 -14 540 -14 m 426 1197 q 396 1210 408 1197 q 383 1240 383 1222 q 393 1268 383 1256 l 564 1439 q 594 1451 576 1451 q 625 1440 613 1451 q 638 1408 638 1428 q 635 1394 638 1401 q 625 1379 632 1386 l 454 1208 q 426 1197 443 1197 z "},"Š":{"ha":894,"x_min":86,"x_max":804,"o":"m 464 -14 q 303 10 376 -14 q 178 80 231 35 q 94 186 125 125 q 94 218 86 203 q 119 239 101 233 q 150 238 135 244 q 174 215 165 231 q 240 138 199 171 q 337 87 281 104 q 464 69 393 69 q 601 96 543 69 q 690 174 658 122 q 721 299 721 225 q 655 453 721 390 q 454 535 589 517 q 211 635 299 557 q 124 826 124 714 q 165 969 124 908 q 280 1065 206 1031 q 451 1099 354 1099 q 585 1075 524 1099 q 692 1013 646 1051 q 763 933 738 975 q 767 901 772 918 q 744 876 763 883 q 714 876 729 871 q 689 894 699 881 q 639 951 669 924 q 563 997 608 979 q 451 1015 517 1015 q 272 964 338 1015 q 207 818 207 913 q 234 727 207 768 q 319 657 261 686 q 468 613 378 628 q 726 502 647 582 q 804 299 804 422 q 780 168 804 226 q 710 69 756 110 q 603 8 665 29 q 464 -14 540 -14 m 447 1225 q 426 1231 433 1225 l 258 1342 q 236 1379 236 1356 q 257 1414 236 1403 q 306 1406 278 1425 l 447 1308 l 589 1403 q 638 1413 618 1422 q 658 1379 658 1403 q 636 1342 658 1358 l 468 1231 q 447 1225 461 1225 z "},"Ş":{"ha":894,"x_min":86,"x_max":804,"o":"m 464 -14 q 303 10 376 -14 q 178 80 231 35 q 94 186 125 125 q 94 218 86 203 q 119 239 101 233 q 150 238 135 244 q 174 215 165 231 q 240 138 199 171 q 337 87 281 104 q 464 69 393 69 q 601 96 543 69 q 690 174 658 122 q 721 299 721 225 q 655 453 721 390 q 454 535 589 517 q 211 635 299 557 q 124 826 124 714 q 165 969 124 908 q 280 1065 206 1031 q 451 1099 354 1099 q 585 1075 524 1099 q 692 1013 646 1051 q 763 933 738 975 q 767 901 772 918 q 744 876 763 883 q 714 876 729 871 q 689 894 699 881 q 639 951 669 924 q 563 997 608 979 q 451 1015 517 1015 q 272 964 338 1015 q 207 818 207 913 q 234 727 207 768 q 319 657 261 686 q 468 613 378 628 q 726 502 647 582 q 804 299 804 422 q 780 168 804 226 q 710 69 756 110 q 603 8 665 29 q 464 -14 540 -14 m 440 -322 q 329 -294 372 -322 q 286 -231 286 -265 q 298 -200 286 -212 q 328 -187 310 -187 q 353 -196 343 -187 q 376 -214 364 -204 q 401 -230 388 -222 q 440 -237 414 -237 q 499 -222 475 -237 q 522 -181 522 -207 q 504 -137 522 -153 q 443 -110 486 -122 q 404 -90 417 -103 q 406 -46 392 -78 l 433 22 q 451 44 439 36 q 482 53 463 53 q 513 37 503 53 q 515 0 524 21 l 494 -50 q 592 -104 568 -72 q 617 -178 617 -136 q 592 -251 617 -218 q 527 -303 567 -285 q 440 -322 488 -322 z "},"Ŝ":{"ha":894,"x_min":86,"x_max":804,"o":"m 464 -14 q 303 10 376 -14 q 178 80 231 35 q 94 186 125 125 q 94 218 86 203 q 119 239 101 233 q 150 238 135 244 q 174 215 165 231 q 240 138 199 171 q 337 87 281 104 q 464 69 393 69 q 601 96 543 69 q 690 174 658 122 q 721 299 721 225 q 655 453 721 390 q 454 535 589 517 q 211 635 299 557 q 124 826 124 714 q 165 969 124 908 q 280 1065 206 1031 q 451 1099 354 1099 q 585 1075 524 1099 q 692 1013 646 1051 q 763 933 738 975 q 767 901 772 918 q 744 876 763 883 q 714 876 729 871 q 689 894 699 881 q 639 951 669 924 q 563 997 608 979 q 451 1015 517 1015 q 272 964 338 1015 q 207 818 207 913 q 234 727 207 768 q 319 657 261 686 q 468 613 378 628 q 726 502 647 582 q 804 299 804 422 q 780 168 804 226 q 710 69 756 110 q 603 8 665 29 q 464 -14 540 -14 m 281 1225 q 249 1237 263 1225 q 236 1267 236 1249 q 258 1304 236 1290 l 426 1417 q 447 1422 438 1422 q 459 1421 454 1422 q 468 1417 464 1419 l 636 1304 q 658 1267 658 1290 q 647 1237 658 1249 q 615 1225 635 1225 q 601 1227 607 1225 q 589 1233 596 1229 l 447 1328 l 306 1233 q 281 1225 293 1225 z "},"Ș":{"ha":894,"x_min":86,"x_max":804,"o":"m 464 -14 q 303 10 376 -14 q 178 80 231 35 q 94 186 125 125 q 94 218 86 203 q 119 239 101 233 q 150 238 135 244 q 174 215 165 231 q 240 138 199 171 q 337 87 281 104 q 464 69 393 69 q 601 96 543 69 q 690 174 658 122 q 721 299 721 225 q 655 453 721 390 q 454 535 589 517 q 211 635 299 557 q 124 826 124 714 q 165 969 124 908 q 280 1065 206 1031 q 451 1099 354 1099 q 585 1075 524 1099 q 692 1013 646 1051 q 763 933 738 975 q 767 901 772 918 q 744 876 763 883 q 714 876 729 871 q 689 894 699 881 q 639 951 669 924 q 563 997 608 979 q 451 1015 517 1015 q 272 964 338 1015 q 207 818 207 913 q 234 727 207 768 q 319 657 261 686 q 468 613 378 628 q 726 502 647 582 q 804 299 804 422 q 780 168 804 226 q 710 69 756 110 q 603 8 665 29 q 464 -14 540 -14 m 457 -322 q 384 -310 422 -322 q 319 -276 346 -297 q 293 -231 293 -256 q 302 -206 293 -215 q 328 -197 311 -197 q 360 -205 347 -197 q 385 -222 372 -212 q 415 -240 397 -232 q 461 -247 432 -247 q 524 -229 501 -247 q 547 -181 547 -211 q 526 -139 547 -156 q 457 -122 504 -122 q 412 -115 428 -122 q 396 -89 396 -107 q 451 -54 396 -54 q 572 -91 525 -54 q 619 -185 619 -128 q 572 -284 619 -246 q 457 -322 524 -322 z "},"ẞ":{"ha":938,"x_min":139,"x_max":861,"o":"m 179 0 q 149 12 158 0 q 139 38 139 24 l 139 765 q 183 949 139 878 q 301 1052 226 1019 q 469 1085 376 1085 q 585 1065 528 1085 q 688 1012 643 1044 q 753 942 732 979 q 758 897 765 919 q 738 860 751 875 l 485 585 l 458 658 l 681 908 q 590 978 651 950 q 465 1007 528 1007 q 337 978 392 1007 q 252 891 282 950 q 222 738 222 832 l 222 38 q 210 11 222 22 q 179 0 199 0 m 542 -8 q 429 8 478 -8 q 351 42 381 24 q 331 58 338 50 q 324 85 324 67 q 343 117 324 104 q 386 118 363 129 q 434 96 414 106 q 479 81 454 86 q 542 75 504 75 q 663 109 610 75 q 747 201 715 143 q 778 329 778 260 q 750 460 778 403 q 669 551 722 518 q 542 585 617 585 l 485 585 q 456 597 468 585 q 444 626 444 608 q 456 656 444 644 q 485 668 468 668 l 532 668 q 707 624 633 668 q 821 503 781 579 q 861 329 861 426 q 819 159 861 236 q 706 37 778 82 q 542 -8 633 -8 z "},"Ə":{"ha":1153,"x_min":83,"x_max":1069,"o":"m 569 -14 q 365 26 456 -14 q 213 140 275 67 q 117 312 150 213 q 83 529 83 411 q 100 569 83 554 q 142 585 117 585 l 1003 585 l 1003 510 l 119 510 l 165 538 q 211 298 161 404 q 354 131 261 192 q 569 69 447 69 q 786 131 693 69 q 932 298 879 192 q 985 539 985 404 q 927 785 985 678 q 766 953 869 892 q 525 1015 663 1015 q 374 992 447 1015 q 244 925 301 969 q 213 913 231 915 q 182 924 196 910 q 171 956 168 939 q 183 981 174 972 q 332 1066 244 1033 q 525 1099 419 1099 q 744 1058 644 1099 q 916 942 843 1017 q 1029 764 989 867 q 1069 539 1069 661 q 1033 315 1069 417 q 929 140 996 214 q 771 26 863 67 q 569 -14 679 -14 z "},"T":{"ha":903,"x_min":21,"x_max":882,"o":"m 451 0 q 422 12 433 0 q 410 42 410 24 l 410 1085 l 493 1085 l 493 42 q 481 12 493 24 q 451 0 469 0 m 58 1010 q 31 1020 42 1010 q 21 1047 21 1031 q 31 1074 21 1064 q 58 1085 42 1085 l 844 1085 q 872 1074 861 1085 q 882 1047 882 1064 q 872 1020 882 1031 q 844 1010 861 1010 l 58 1010 z "},"Ŧ":{"ha":903,"x_min":21,"x_max":882,"o":"m 451 0 q 422 12 433 0 q 410 42 410 24 l 410 1085 l 493 1085 l 493 42 q 481 12 493 24 q 451 0 469 0 m 58 1010 q 31 1020 42 1010 q 21 1047 21 1031 q 31 1074 21 1064 q 58 1085 42 1085 l 844 1085 q 872 1074 861 1085 q 882 1047 882 1064 q 872 1020 882 1031 q 844 1010 861 1010 l 58 1010 m 238 506 q 210 516 221 506 q 200 543 200 526 q 210 570 200 560 q 238 581 221 581 l 679 581 q 706 570 696 581 q 717 543 717 560 q 706 516 717 526 q 679 506 696 506 l 238 506 z "},"Ť":{"ha":903,"x_min":21,"x_max":882,"o":"m 451 0 q 422 12 433 0 q 410 42 410 24 l 410 1085 l 493 1085 l 493 42 q 481 12 493 24 q 451 0 469 0 m 58 1010 q 31 1020 42 1010 q 21 1047 21 1031 q 31 1074 21 1064 q 58 1085 42 1085 l 844 1085 q 872 1074 861 1085 q 882 1047 882 1064 q 872 1020 882 1031 q 844 1010 861 1010 l 58 1010 m 451 1225 q 431 1231 438 1225 l 263 1342 q 240 1379 240 1356 q 261 1414 240 1403 q 310 1406 282 1425 l 451 1308 l 593 1403 q 642 1413 622 1422 q 663 1379 663 1403 q 640 1342 663 1358 l 472 1231 q 451 1225 465 1225 z "},"Ţ":{"ha":903,"x_min":21,"x_max":882,"o":"m 451 0 q 422 12 433 0 q 410 42 410 24 l 410 1085 l 493 1085 l 493 42 q 481 12 493 24 q 451 0 469 0 m 58 1010 q 31 1020 42 1010 q 21 1047 21 1031 q 31 1074 21 1064 q 58 1085 42 1085 l 844 1085 q 872 1074 861 1085 q 882 1047 882 1064 q 872 1020 882 1031 q 844 1010 861 1010 l 58 1010 m 444 -322 q 333 -294 376 -322 q 290 -231 290 -265 q 302 -200 290 -212 q 332 -187 314 -187 q 358 -196 347 -187 q 381 -214 368 -204 q 405 -230 392 -222 q 444 -237 418 -237 q 503 -222 479 -237 q 526 -181 526 -207 q 508 -137 526 -153 q 447 -110 490 -122 q 408 -90 421 -103 q 410 -46 396 -78 l 438 22 q 455 44 443 36 q 486 53 467 53 q 517 37 507 53 q 519 0 528 21 l 499 -50 q 597 -104 572 -72 q 621 -178 621 -136 q 596 -251 621 -218 q 531 -303 571 -285 q 444 -322 492 -322 z "},"Ț":{"ha":903,"x_min":21,"x_max":882,"o":"m 451 0 q 422 12 433 0 q 410 42 410 24 l 410 1085 l 493 1085 l 493 42 q 481 12 493 24 q 451 0 469 0 m 58 1010 q 31 1020 42 1010 q 21 1047 21 1031 q 31 1074 21 1064 q 58 1085 42 1085 l 844 1085 q 872 1074 861 1085 q 882 1047 882 1064 q 872 1020 882 1031 q 844 1010 861 1010 l 58 1010 m 461 -322 q 388 -310 426 -322 q 324 -276 350 -297 q 297 -231 297 -256 q 306 -206 297 -215 q 332 -197 315 -197 q 364 -205 351 -197 q 389 -222 376 -212 q 419 -240 401 -232 q 465 -247 436 -247 q 528 -229 506 -247 q 551 -181 551 -211 q 530 -139 551 -156 q 461 -122 508 -122 q 416 -115 432 -122 q 400 -89 400 -107 q 456 -54 400 -54 q 576 -91 529 -54 q 624 -185 624 -128 q 576 -284 624 -246 q 461 -322 528 -322 z "},"U":{"ha":1113,"x_min":139,"x_max":974,"o":"m 556 -22 q 340 26 433 -22 q 192 159 246 74 q 139 354 139 244 l 139 1043 q 151 1074 139 1063 q 181 1085 163 1085 q 211 1074 200 1085 q 222 1043 222 1063 l 222 354 q 265 202 222 268 q 383 99 307 136 q 556 61 458 61 q 729 99 654 61 q 847 202 804 136 q 890 354 890 268 l 890 1043 q 902 1074 890 1063 q 932 1085 914 1085 q 963 1074 951 1085 q 974 1043 974 1063 l 974 354 q 920 159 974 244 q 772 26 867 74 q 556 -22 678 -22 z "},"Ú":{"ha":1113,"x_min":139,"x_max":974,"o":"m 556 -22 q 340 26 433 -22 q 192 159 246 74 q 139 354 139 244 l 139 1043 q 151 1074 139 1063 q 181 1085 163 1085 q 211 1074 200 1085 q 222 1043 222 1063 l 222 354 q 265 202 222 268 q 383 99 307 136 q 556 61 458 61 q 729 99 654 61 q 847 202 804 136 q 890 354 890 268 l 890 1043 q 902 1074 890 1063 q 932 1085 914 1085 q 963 1074 951 1085 q 974 1043 974 1063 l 974 354 q 920 159 974 244 q 772 26 867 74 q 556 -22 678 -22 m 536 1197 q 506 1210 518 1197 q 493 1240 493 1222 q 503 1268 493 1256 l 674 1439 q 704 1451 686 1451 q 735 1440 722 1451 q 747 1408 747 1428 q 744 1394 747 1401 q 735 1379 742 1386 l 564 1208 q 536 1197 553 1197 z "},"Ŭ":{"ha":1113,"x_min":139,"x_max":974,"o":"m 556 -22 q 340 26 433 -22 q 192 159 246 74 q 139 354 139 244 l 139 1043 q 151 1074 139 1063 q 181 1085 163 1085 q 211 1074 200 1085 q 222 1043 222 1063 l 222 354 q 265 202 222 268 q 383 99 307 136 q 556 61 458 61 q 729 99 654 61 q 847 202 804 136 q 890 354 890 268 l 890 1043 q 902 1074 890 1063 q 932 1085 914 1085 q 963 1074 951 1085 q 974 1043 974 1063 l 974 354 q 920 159 974 244 q 772 26 867 74 q 556 -22 678 -22 m 556 1225 q 450 1246 499 1225 q 373 1302 401 1267 q 344 1379 344 1338 q 357 1410 344 1397 q 388 1422 369 1422 q 417 1410 406 1422 q 429 1379 429 1397 q 463 1324 429 1349 q 556 1300 496 1300 q 649 1324 615 1300 q 683 1379 683 1347 q 695 1410 683 1397 q 725 1422 707 1422 q 755 1410 743 1422 q 768 1381 767 1397 q 735 1298 765 1333 q 657 1244 704 1263 q 556 1225 610 1225 z "},"Û":{"ha":1113,"x_min":139,"x_max":974,"o":"m 556 -22 q 340 26 433 -22 q 192 159 246 74 q 139 354 139 244 l 139 1043 q 151 1074 139 1063 q 181 1085 163 1085 q 211 1074 200 1085 q 222 1043 222 1063 l 222 354 q 265 202 222 268 q 383 99 307 136 q 556 61 458 61 q 729 99 654 61 q 847 202 804 136 q 890 354 890 268 l 890 1043 q 902 1074 890 1063 q 932 1085 914 1085 q 963 1074 951 1085 q 974 1043 974 1063 l 974 354 q 920 159 974 244 q 772 26 867 74 q 556 -22 678 -22 m 390 1225 q 359 1237 372 1225 q 346 1267 346 1249 q 368 1304 346 1290 l 536 1417 q 557 1422 547 1422 q 569 1421 564 1422 q 578 1417 574 1419 l 746 1304 q 768 1267 768 1290 q 756 1237 768 1249 q 725 1225 744 1225 q 711 1227 717 1225 q 699 1233 706 1229 l 557 1328 l 415 1233 q 390 1225 403 1225 z "},"Ȕ":{"ha":1113,"x_min":139,"x_max":974,"o":"m 556 -22 q 340 26 433 -22 q 192 159 246 74 q 139 354 139 244 l 139 1043 q 151 1074 139 1063 q 181 1085 163 1085 q 211 1074 200 1085 q 222 1043 222 1063 l 222 354 q 265 202 222 268 q 383 99 307 136 q 556 61 458 61 q 729 99 654 61 q 847 202 804 136 q 890 354 890 268 l 890 1043 q 902 1074 890 1063 q 932 1085 914 1085 q 963 1074 951 1085 q 974 1043 974 1063 l 974 354 q 920 159 974 244 q 772 26 867 74 q 556 -22 678 -22 m 714 1199 q 685 1218 694 1199 l 594 1408 q 592 1424 592 1417 q 603 1452 592 1439 q 635 1465 615 1465 q 658 1458 647 1465 q 674 1439 668 1451 l 738 1239 q 739 1226 739 1236 q 731 1206 739 1213 q 714 1199 724 1199 m 494 1199 q 467 1218 475 1199 l 376 1408 q 374 1415 375 1411 q 374 1424 374 1419 q 385 1452 374 1439 q 417 1465 397 1465 q 440 1458 429 1465 q 454 1439 450 1451 l 519 1239 q 521 1234 521 1238 q 521 1226 521 1231 q 513 1206 521 1213 q 494 1199 506 1199 z "},"Ü":{"ha":1113,"x_min":139,"x_max":974,"o":"m 556 -22 q 340 26 433 -22 q 192 159 246 74 q 139 354 139 244 l 139 1043 q 151 1074 139 1063 q 181 1085 163 1085 q 211 1074 200 1085 q 222 1043 222 1063 l 222 354 q 265 202 222 268 q 383 99 307 136 q 556 61 458 61 q 729 99 654 61 q 847 202 804 136 q 890 354 890 268 l 890 1043 q 902 1074 890 1063 q 932 1085 914 1085 q 963 1074 951 1085 q 974 1043 974 1063 l 974 354 q 920 159 974 244 q 772 26 867 74 q 556 -22 678 -22 m 418 1238 q 367 1258 388 1238 q 346 1310 346 1279 q 367 1360 346 1339 q 418 1381 388 1381 q 469 1360 449 1381 q 489 1310 489 1339 q 469 1258 489 1279 q 418 1238 449 1238 m 696 1238 q 644 1258 665 1238 q 624 1310 624 1279 q 644 1360 624 1339 q 696 1381 665 1381 q 747 1360 726 1381 q 767 1310 767 1339 q 747 1258 767 1279 q 696 1238 726 1238 z "},"Ụ":{"ha":1113,"x_min":139,"x_max":974,"o":"m 556 -22 q 340 26 433 -22 q 192 159 246 74 q 139 354 139 244 l 139 1043 q 151 1074 139 1063 q 181 1085 163 1085 q 211 1074 200 1085 q 222 1043 222 1063 l 222 354 q 265 202 222 268 q 383 99 307 136 q 556 61 458 61 q 729 99 654 61 q 847 202 804 136 q 890 354 890 268 l 890 1043 q 902 1074 890 1063 q 932 1085 914 1085 q 963 1074 951 1085 q 974 1043 974 1063 l 974 354 q 920 159 974 244 q 772 26 867 74 q 556 -22 678 -22 m 556 -275 q 510 -256 529 -275 q 492 -210 492 -237 q 512 -162 492 -178 q 557 -146 532 -146 q 601 -162 581 -146 q 621 -210 621 -178 q 602 -256 621 -237 q 556 -275 583 -275 z "},"Ù":{"ha":1113,"x_min":139,"x_max":974,"o":"m 556 -22 q 340 26 433 -22 q 192 159 246 74 q 139 354 139 244 l 139 1043 q 151 1074 139 1063 q 181 1085 163 1085 q 211 1074 200 1085 q 222 1043 222 1063 l 222 354 q 265 202 222 268 q 383 99 307 136 q 556 61 458 61 q 729 99 654 61 q 847 202 804 136 q 890 354 890 268 l 890 1043 q 902 1074 890 1063 q 932 1085 914 1085 q 963 1074 951 1085 q 974 1043 974 1063 l 974 354 q 920 159 974 244 q 772 26 867 74 q 556 -22 678 -22 m 558 1213 q 529 1224 544 1213 l 358 1394 q 347 1424 347 1406 q 360 1455 347 1443 q 390 1467 372 1467 q 419 1454 407 1467 l 590 1283 q 600 1256 600 1274 q 588 1225 600 1238 q 558 1213 576 1213 z "},"Ủ":{"ha":1113,"x_min":139,"x_max":974,"o":"m 556 -22 q 340 26 433 -22 q 192 159 246 74 q 139 354 139 244 l 139 1043 q 151 1074 139 1063 q 181 1085 163 1085 q 211 1074 200 1085 q 222 1043 222 1063 l 222 354 q 265 202 222 268 q 383 99 307 136 q 556 61 458 61 q 729 99 654 61 q 847 202 804 136 q 890 354 890 268 l 890 1043 q 902 1074 890 1063 q 932 1085 914 1085 q 963 1074 951 1085 q 974 1043 974 1063 l 974 354 q 920 159 974 244 q 772 26 867 74 q 556 -22 678 -22 m 554 1153 q 526 1165 538 1153 q 514 1193 514 1176 l 514 1239 q 550 1283 514 1275 l 583 1290 q 629 1313 617 1297 q 642 1354 642 1328 q 619 1406 642 1388 q 565 1425 597 1425 q 535 1419 549 1425 q 507 1403 521 1414 q 494 1396 501 1399 q 481 1393 488 1393 q 452 1405 464 1393 q 440 1433 440 1417 q 454 1464 440 1453 q 506 1494 478 1483 q 565 1506 535 1506 q 676 1467 631 1506 q 722 1363 722 1429 q 684 1268 722 1301 q 594 1226 646 1235 l 594 1193 q 583 1165 594 1176 q 554 1153 571 1153 z "},"Ư":{"ha":1113,"x_min":139,"x_max":1128,"o":"m 556 -22 q 340 26 433 -22 q 192 159 246 74 q 139 354 139 244 l 139 1043 q 151 1074 139 1063 q 181 1085 163 1085 q 211 1074 200 1085 q 222 1043 222 1063 l 222 354 q 265 202 222 268 q 383 99 307 136 q 556 61 458 61 q 729 99 654 61 q 847 202 804 136 q 890 354 890 268 l 890 1043 q 902 1074 890 1063 q 932 1085 914 1085 q 963 1074 951 1085 q 974 1043 974 1063 l 974 354 q 920 159 974 244 q 772 26 867 74 q 556 -22 678 -22 m 932 1004 l 932 1085 l 990 1085 q 1031 1103 1015 1085 q 1047 1149 1047 1121 l 1047 1181 q 1058 1209 1047 1197 q 1088 1221 1068 1221 q 1117 1207 1107 1221 q 1128 1174 1128 1193 l 1128 1149 q 1110 1075 1128 1108 q 1060 1023 1092 1042 q 990 1004 1029 1004 l 932 1004 z "},"Ứ":{"ha":1113,"x_min":139,"x_max":1128,"o":"m 556 -22 q 340 26 433 -22 q 192 159 246 74 q 139 354 139 244 l 139 1043 q 151 1074 139 1063 q 181 1085 163 1085 q 211 1074 200 1085 q 222 1043 222 1063 l 222 354 q 265 202 222 268 q 383 99 307 136 q 556 61 458 61 q 729 99 654 61 q 847 202 804 136 q 890 354 890 268 l 890 1043 q 902 1074 890 1063 q 932 1085 914 1085 q 963 1074 951 1085 q 974 1043 974 1063 l 974 354 q 920 159 974 244 q 772 26 867 74 q 556 -22 678 -22 m 932 1004 l 932 1085 l 990 1085 q 1031 1103 1015 1085 q 1047 1149 1047 1121 l 1047 1181 q 1058 1209 1047 1197 q 1088 1221 1068 1221 q 1117 1207 1107 1221 q 1128 1174 1128 1193 l 1128 1149 q 1110 1075 1128 1108 q 1060 1023 1092 1042 q 990 1004 1029 1004 l 932 1004 m 536 1197 q 506 1210 518 1197 q 493 1240 493 1222 q 503 1268 493 1256 l 674 1439 q 704 1451 686 1451 q 735 1440 722 1451 q 747 1408 747 1428 q 744 1394 747 1401 q 735 1379 742 1386 l 564 1208 q 536 1197 553 1197 z "},"Ự":{"ha":1113,"x_min":139,"x_max":1128,"o":"m 556 -22 q 340 26 433 -22 q 192 159 246 74 q 139 354 139 244 l 139 1043 q 151 1074 139 1063 q 181 1085 163 1085 q 211 1074 200 1085 q 222 1043 222 1063 l 222 354 q 265 202 222 268 q 383 99 307 136 q 556 61 458 61 q 729 99 654 61 q 847 202 804 136 q 890 354 890 268 l 890 1043 q 902 1074 890 1063 q 932 1085 914 1085 q 963 1074 951 1085 q 974 1043 974 1063 l 974 354 q 920 159 974 244 q 772 26 867 74 q 556 -22 678 -22 m 932 1004 l 932 1085 l 990 1085 q 1031 1103 1015 1085 q 1047 1149 1047 1121 l 1047 1181 q 1058 1209 1047 1197 q 1088 1221 1068 1221 q 1117 1207 1107 1221 q 1128 1174 1128 1193 l 1128 1149 q 1110 1075 1128 1108 q 1060 1023 1092 1042 q 990 1004 1029 1004 l 932 1004 m 556 -275 q 510 -256 529 -275 q 492 -210 492 -237 q 512 -162 492 -178 q 557 -146 532 -146 q 601 -162 581 -146 q 621 -210 621 -178 q 602 -256 621 -237 q 556 -275 583 -275 z "},"Ừ":{"ha":1113,"x_min":139,"x_max":1128,"o":"m 556 -22 q 340 26 433 -22 q 192 159 246 74 q 139 354 139 244 l 139 1043 q 151 1074 139 1063 q 181 1085 163 1085 q 211 1074 200 1085 q 222 1043 222 1063 l 222 354 q 265 202 222 268 q 383 99 307 136 q 556 61 458 61 q 729 99 654 61 q 847 202 804 136 q 890 354 890 268 l 890 1043 q 902 1074 890 1063 q 932 1085 914 1085 q 963 1074 951 1085 q 974 1043 974 1063 l 974 354 q 920 159 974 244 q 772 26 867 74 q 556 -22 678 -22 m 932 1004 l 932 1085 l 990 1085 q 1031 1103 1015 1085 q 1047 1149 1047 1121 l 1047 1181 q 1058 1209 1047 1197 q 1088 1221 1068 1221 q 1117 1207 1107 1221 q 1128 1174 1128 1193 l 1128 1149 q 1110 1075 1128 1108 q 1060 1023 1092 1042 q 990 1004 1029 1004 l 932 1004 m 558 1213 q 529 1224 544 1213 l 358 1394 q 347 1424 347 1406 q 360 1455 347 1443 q 390 1467 372 1467 q 419 1454 407 1467 l 590 1283 q 600 1256 600 1274 q 588 1225 600 1238 q 558 1213 576 1213 z "},"Ử":{"ha":1113,"x_min":139,"x_max":1128,"o":"m 556 -22 q 340 26 433 -22 q 192 159 246 74 q 139 354 139 244 l 139 1043 q 151 1074 139 1063 q 181 1085 163 1085 q 211 1074 200 1085 q 222 1043 222 1063 l 222 354 q 265 202 222 268 q 383 99 307 136 q 556 61 458 61 q 729 99 654 61 q 847 202 804 136 q 890 354 890 268 l 890 1043 q 902 1074 890 1063 q 932 1085 914 1085 q 963 1074 951 1085 q 974 1043 974 1063 l 974 354 q 920 159 974 244 q 772 26 867 74 q 556 -22 678 -22 m 932 1004 l 932 1085 l 990 1085 q 1031 1103 1015 1085 q 1047 1149 1047 1121 l 1047 1181 q 1058 1209 1047 1197 q 1088 1221 1068 1221 q 1117 1207 1107 1221 q 1128 1174 1128 1193 l 1128 1149 q 1110 1075 1128 1108 q 1060 1023 1092 1042 q 990 1004 1029 1004 l 932 1004 m 554 1153 q 526 1165 538 1153 q 514 1193 514 1176 l 514 1239 q 550 1283 514 1275 l 583 1290 q 629 1313 617 1297 q 642 1354 642 1328 q 619 1406 642 1388 q 565 1425 597 1425 q 535 1419 549 1425 q 507 1403 521 1414 q 494 1396 501 1399 q 481 1393 488 1393 q 452 1405 464 1393 q 440 1433 440 1417 q 454 1464 440 1453 q 506 1494 478 1483 q 565 1506 535 1506 q 676 1467 631 1506 q 722 1363 722 1429 q 684 1268 722 1301 q 594 1226 646 1235 l 594 1193 q 583 1165 594 1176 q 554 1153 571 1153 z "},"Ữ":{"ha":1113,"x_min":139,"x_max":1128,"o":"m 556 -22 q 340 26 433 -22 q 192 159 246 74 q 139 354 139 244 l 139 1043 q 151 1074 139 1063 q 181 1085 163 1085 q 211 1074 200 1085 q 222 1043 222 1063 l 222 354 q 265 202 222 268 q 383 99 307 136 q 556 61 458 61 q 729 99 654 61 q 847 202 804 136 q 890 354 890 268 l 890 1043 q 902 1074 890 1063 q 932 1085 914 1085 q 963 1074 951 1085 q 974 1043 974 1063 l 974 354 q 920 159 974 244 q 772 26 867 74 q 556 -22 678 -22 m 932 1004 l 932 1085 l 990 1085 q 1031 1103 1015 1085 q 1047 1149 1047 1121 l 1047 1181 q 1058 1209 1047 1197 q 1088 1221 1068 1221 q 1117 1207 1107 1221 q 1128 1174 1128 1193 l 1128 1149 q 1110 1075 1128 1108 q 1060 1023 1092 1042 q 990 1004 1029 1004 l 932 1004 m 703 1200 q 628 1217 660 1200 q 572 1249 596 1233 q 528 1274 544 1268 q 493 1281 513 1281 q 438 1266 465 1281 q 386 1224 410 1251 q 360 1207 376 1210 q 331 1213 343 1204 q 311 1238 314 1222 q 318 1268 308 1254 q 400 1337 354 1313 q 493 1361 446 1361 q 565 1346 535 1361 q 618 1315 596 1331 q 659 1290 642 1300 q 703 1281 676 1281 q 747 1288 728 1281 q 779 1311 765 1296 q 806 1328 790 1324 q 833 1326 821 1333 q 857 1301 853 1317 q 850 1271 861 1286 q 703 1200 796 1200 z "},"Ű":{"ha":1113,"x_min":139,"x_max":974,"o":"m 556 -22 q 340 26 433 -22 q 192 159 246 74 q 139 354 139 244 l 139 1043 q 151 1074 139 1063 q 181 1085 163 1085 q 211 1074 200 1085 q 222 1043 222 1063 l 222 354 q 265 202 222 268 q 383 99 307 136 q 556 61 458 61 q 729 99 654 61 q 847 202 804 136 q 890 354 890 268 l 890 1043 q 902 1074 890 1063 q 932 1085 914 1085 q 963 1074 951 1085 q 974 1043 974 1063 l 974 354 q 920 159 974 244 q 772 26 867 74 q 556 -22 678 -22 m 660 1199 q 642 1206 650 1199 q 633 1226 633 1213 q 633 1234 633 1231 q 635 1239 633 1238 l 700 1439 q 715 1458 704 1451 q 738 1465 725 1465 q 769 1452 757 1465 q 781 1424 781 1439 q 780 1415 781 1419 q 778 1408 779 1411 l 688 1218 q 660 1199 679 1199 m 442 1199 q 424 1206 432 1199 q 415 1226 415 1213 q 415 1234 415 1231 q 417 1239 415 1238 l 481 1439 q 497 1458 486 1451 q 519 1465 507 1465 q 551 1452 539 1465 q 563 1424 563 1439 q 560 1408 563 1417 l 469 1218 q 442 1199 460 1199 z "},"Ȗ":{"ha":1113,"x_min":139,"x_max":974,"o":"m 556 -22 q 340 26 433 -22 q 192 159 246 74 q 139 354 139 244 l 139 1043 q 151 1074 139 1063 q 181 1085 163 1085 q 211 1074 200 1085 q 222 1043 222 1063 l 222 354 q 265 202 222 268 q 383 99 307 136 q 556 61 458 61 q 729 99 654 61 q 847 202 804 136 q 890 354 890 268 l 890 1043 q 902 1074 890 1063 q 932 1085 914 1085 q 963 1074 951 1085 q 974 1043 974 1063 l 974 354 q 920 159 974 244 q 772 26 867 74 q 556 -22 678 -22 m 388 1225 q 357 1238 369 1225 q 344 1268 344 1250 q 373 1346 344 1311 q 450 1401 401 1381 q 556 1422 499 1422 q 657 1403 610 1422 q 735 1350 704 1385 q 768 1267 765 1315 q 755 1238 767 1250 q 725 1225 743 1225 q 695 1238 707 1225 q 683 1268 683 1250 q 649 1324 683 1300 q 556 1347 615 1347 q 463 1324 496 1347 q 429 1268 429 1300 q 417 1238 429 1250 q 388 1225 406 1225 z "},"Ū":{"ha":1113,"x_min":139,"x_max":974,"o":"m 556 -22 q 340 26 433 -22 q 192 159 246 74 q 139 354 139 244 l 139 1043 q 151 1074 139 1063 q 181 1085 163 1085 q 211 1074 200 1085 q 222 1043 222 1063 l 222 354 q 265 202 222 268 q 383 99 307 136 q 556 61 458 61 q 729 99 654 61 q 847 202 804 136 q 890 354 890 268 l 890 1043 q 902 1074 890 1063 q 932 1085 914 1085 q 963 1074 951 1085 q 974 1043 974 1063 l 974 354 q 920 159 974 244 q 772 26 867 74 q 556 -22 678 -22 m 372 1243 q 342 1255 354 1243 q 331 1285 331 1267 q 342 1315 331 1303 q 372 1328 354 1328 l 740 1328 q 770 1315 758 1328 q 782 1285 782 1303 q 770 1255 782 1267 q 740 1243 758 1243 l 372 1243 z "},"Ų":{"ha":1113,"x_min":139,"x_max":974,"o":"m 556 -22 q 340 26 433 -22 q 192 159 246 74 q 139 354 139 244 l 139 1043 q 151 1074 139 1063 q 181 1085 163 1085 q 211 1074 200 1085 q 222 1043 222 1063 l 222 354 q 265 202 222 268 q 383 99 307 136 q 556 61 458 61 q 729 99 654 61 q 847 202 804 136 q 890 354 890 268 l 890 1043 q 902 1074 890 1063 q 932 1085 914 1085 q 963 1074 951 1085 q 974 1043 974 1063 l 974 354 q 920 159 974 244 q 772 26 867 74 q 556 -22 678 -22 m 697 -293 q 621 -272 656 -293 q 565 -217 586 -251 q 543 -139 543 -182 q 608 -12 543 -65 q 642 19 629 4 q 661 49 656 35 q 697 69 672 69 q 728 58 717 69 q 740 29 740 47 q 719 -24 740 3 q 657 -82 697 -51 q 635 -108 643 -93 q 628 -139 628 -124 q 648 -188 628 -168 q 697 -208 668 -208 q 717 -206 707 -208 q 736 -197 726 -203 l 785 -161 q 810 -153 797 -153 q 840 -165 828 -153 q 853 -196 853 -178 q 839 -228 853 -217 l 782 -267 q 697 -293 743 -293 z "},"Ů":{"ha":1113,"x_min":139,"x_max":974,"o":"m 556 -22 q 340 26 433 -22 q 192 159 246 74 q 139 354 139 244 l 139 1043 q 151 1074 139 1063 q 181 1085 163 1085 q 211 1074 200 1085 q 222 1043 222 1063 l 222 354 q 265 202 222 268 q 383 99 307 136 q 556 61 458 61 q 729 99 654 61 q 847 202 804 136 q 890 354 890 268 l 890 1043 q 902 1074 890 1063 q 932 1085 914 1085 q 963 1074 951 1085 q 974 1043 974 1063 l 974 354 q 920 159 974 244 q 772 26 867 74 q 556 -22 678 -22 m 557 1154 q 467 1192 506 1154 q 429 1282 429 1231 q 467 1373 429 1336 q 557 1410 506 1410 q 647 1372 610 1410 q 685 1282 685 1335 q 648 1192 685 1231 q 557 1154 611 1154 m 557 1208 q 610 1230 589 1208 q 632 1282 632 1251 q 610 1335 632 1314 q 557 1357 589 1357 q 505 1335 526 1357 q 483 1282 483 1314 q 505 1230 483 1251 q 557 1208 526 1208 z "},"Ũ":{"ha":1113,"x_min":139,"x_max":974,"o":"m 556 -22 q 340 26 433 -22 q 192 159 246 74 q 139 354 139 244 l 139 1043 q 151 1074 139 1063 q 181 1085 163 1085 q 211 1074 200 1085 q 222 1043 222 1063 l 222 354 q 265 202 222 268 q 383 99 307 136 q 556 61 458 61 q 729 99 654 61 q 847 202 804 136 q 890 354 890 268 l 890 1043 q 902 1074 890 1063 q 932 1085 914 1085 q 963 1074 951 1085 q 974 1043 974 1063 l 974 354 q 920 159 974 244 q 772 26 867 74 q 556 -22 678 -22 m 703 1200 q 628 1217 660 1200 q 572 1249 596 1233 q 528 1274 544 1268 q 493 1281 513 1281 q 438 1266 465 1281 q 386 1224 410 1251 q 360 1207 376 1210 q 331 1213 343 1204 q 311 1238 314 1222 q 318 1268 308 1254 q 400 1337 354 1313 q 493 1361 446 1361 q 565 1346 535 1361 q 618 1315 596 1331 q 659 1290 642 1300 q 703 1281 676 1281 q 747 1288 728 1281 q 779 1311 765 1296 q 806 1328 790 1324 q 833 1326 821 1333 q 857 1301 853 1317 q 850 1271 861 1286 q 703 1200 796 1200 z "},"V":{"ha":975,"x_min":21,"x_max":953,"o":"m 489 0 q 451 26 463 0 l 35 1017 q 34 1067 21 1049 q 71 1085 47 1085 q 111 1056 97 1085 l 511 99 l 471 99 l 865 1050 q 883 1077 872 1069 q 911 1085 894 1085 q 944 1064 936 1085 q 942 1017 953 1043 l 526 26 q 509 6 519 11 q 489 0 499 0 z "},"W":{"ha":1303,"x_min":35,"x_max":1265,"o":"m 372 0 q 345 11 357 0 q 329 36 333 22 l 42 1022 q 46 1066 35 1047 q 81 1085 57 1085 q 105 1078 94 1085 q 121 1053 115 1072 l 389 125 l 356 125 l 611 1017 q 626 1035 614 1028 q 650 1043 638 1043 q 675 1035 664 1043 q 690 1015 686 1028 l 946 125 l 913 125 l 1181 1057 q 1221 1085 1188 1085 q 1255 1067 1244 1085 q 1258 1022 1265 1049 l 972 36 q 955 9 967 18 q 929 0 943 0 q 901 10 913 0 q 886 36 890 21 l 633 931 l 667 931 l 417 36 q 399 10 411 19 q 372 0 388 0 z "},"Ẃ":{"ha":1303,"x_min":35,"x_max":1265,"o":"m 372 0 q 345 11 357 0 q 329 36 333 22 l 42 1022 q 46 1066 35 1047 q 81 1085 57 1085 q 105 1078 94 1085 q 121 1053 115 1072 l 389 125 l 356 125 l 611 1017 q 626 1035 614 1028 q 650 1043 638 1043 q 675 1035 664 1043 q 690 1015 686 1028 l 946 125 l 913 125 l 1181 1057 q 1221 1085 1188 1085 q 1255 1067 1244 1085 q 1258 1022 1265 1049 l 972 36 q 955 9 967 18 q 929 0 943 0 q 901 10 913 0 q 886 36 890 21 l 633 931 l 667 931 l 417 36 q 399 10 411 19 q 372 0 388 0 m 631 1197 q 600 1210 613 1197 q 588 1240 588 1222 q 597 1268 588 1256 l 768 1439 q 799 1451 781 1451 q 829 1440 817 1451 q 842 1408 842 1428 q 839 1394 842 1401 q 829 1379 836 1386 l 658 1208 q 631 1197 647 1197 z "},"Ŵ":{"ha":1303,"x_min":35,"x_max":1265,"o":"m 372 0 q 345 11 357 0 q 329 36 333 22 l 42 1022 q 46 1066 35 1047 q 81 1085 57 1085 q 105 1078 94 1085 q 121 1053 115 1072 l 389 125 l 356 125 l 611 1017 q 626 1035 614 1028 q 650 1043 638 1043 q 675 1035 664 1043 q 690 1015 686 1028 l 946 125 l 913 125 l 1181 1057 q 1221 1085 1188 1085 q 1255 1067 1244 1085 q 1258 1022 1265 1049 l 972 36 q 955 9 967 18 q 929 0 943 0 q 901 10 913 0 q 886 36 890 21 l 633 931 l 667 931 l 417 36 q 399 10 411 19 q 372 0 388 0 m 485 1225 q 453 1237 467 1225 q 440 1267 440 1249 q 463 1304 440 1290 l 631 1417 q 651 1422 642 1422 q 663 1421 658 1422 q 672 1417 668 1419 l 840 1304 q 863 1267 863 1290 q 851 1237 863 1249 q 819 1225 839 1225 q 806 1227 811 1225 q 793 1233 800 1229 l 651 1328 l 510 1233 q 485 1225 497 1225 z "},"Ẅ":{"ha":1303,"x_min":35,"x_max":1265,"o":"m 372 0 q 345 11 357 0 q 329 36 333 22 l 42 1022 q 46 1066 35 1047 q 81 1085 57 1085 q 105 1078 94 1085 q 121 1053 115 1072 l 389 125 l 356 125 l 611 1017 q 626 1035 614 1028 q 650 1043 638 1043 q 675 1035 664 1043 q 690 1015 686 1028 l 946 125 l 913 125 l 1181 1057 q 1221 1085 1188 1085 q 1255 1067 1244 1085 q 1258 1022 1265 1049 l 972 36 q 955 9 967 18 q 929 0 943 0 q 901 10 913 0 q 886 36 890 21 l 633 931 l 667 931 l 417 36 q 399 10 411 19 q 372 0 388 0 m 513 1238 q 461 1258 482 1238 q 440 1310 440 1279 q 461 1360 440 1339 q 513 1381 482 1381 q 563 1360 543 1381 q 583 1310 583 1339 q 563 1258 583 1279 q 513 1238 543 1238 m 790 1238 q 739 1258 760 1238 q 718 1310 718 1279 q 739 1360 718 1339 q 790 1381 760 1381 q 841 1360 821 1381 q 861 1310 861 1339 q 841 1258 861 1279 q 790 1238 821 1238 z "},"Ẁ":{"ha":1303,"x_min":35,"x_max":1265,"o":"m 372 0 q 345 11 357 0 q 329 36 333 22 l 42 1022 q 46 1066 35 1047 q 81 1085 57 1085 q 105 1078 94 1085 q 121 1053 115 1072 l 389 125 l 356 125 l 611 1017 q 626 1035 614 1028 q 650 1043 638 1043 q 675 1035 664 1043 q 690 1015 686 1028 l 946 125 l 913 125 l 1181 1057 q 1221 1085 1188 1085 q 1255 1067 1244 1085 q 1258 1022 1265 1049 l 972 36 q 955 9 967 18 q 929 0 943 0 q 901 10 913 0 q 886 36 890 21 l 633 931 l 667 931 l 417 36 q 399 10 411 19 q 372 0 388 0 m 653 1213 q 624 1224 639 1213 l 453 1394 q 442 1424 442 1406 q 454 1455 442 1443 q 485 1467 467 1467 q 514 1454 501 1467 l 685 1283 q 694 1256 694 1274 q 683 1225 694 1238 q 653 1213 671 1213 z "},"X":{"ha":974,"x_min":61,"x_max":914,"o":"m 104 0 q 76 10 88 0 q 63 36 64 21 q 72 68 61 51 l 443 581 l 483 610 l 813 1067 q 847 1085 826 1085 q 876 1073 867 1085 q 888 1046 886 1061 q 882 1019 890 1031 l 539 546 l 500 518 l 136 14 q 104 0 124 0 m 874 0 q 857 3 867 0 q 842 14 847 7 l 481 514 l 443 540 l 97 1019 q 88 1049 88 1033 q 99 1074 89 1064 q 126 1085 110 1085 q 161 1067 147 1085 l 500 599 l 529 583 l 903 68 q 913 40 914 56 q 902 12 913 24 q 874 0 892 0 z "},"Y":{"ha":879,"x_min":6,"x_max":875,"o":"m 440 0 q 410 12 422 0 q 399 42 399 24 l 399 406 l 15 1019 q 8 1051 6 1036 q 20 1075 10 1065 q 47 1085 31 1085 q 66 1081 58 1085 q 81 1068 74 1076 l 471 432 l 410 432 l 794 1058 q 813 1079 804 1074 q 835 1085 822 1085 q 861 1075 851 1085 q 873 1050 871 1065 q 865 1019 875 1035 l 482 406 l 482 42 q 470 12 482 24 q 440 0 458 0 z "},"Ý":{"ha":879,"x_min":6,"x_max":875,"o":"m 440 0 q 410 12 422 0 q 399 42 399 24 l 399 406 l 15 1019 q 8 1051 6 1036 q 20 1075 10 1065 q 47 1085 31 1085 q 66 1081 58 1085 q 81 1068 74 1076 l 471 432 l 410 432 l 794 1058 q 813 1079 804 1074 q 835 1085 822 1085 q 861 1075 851 1085 q 873 1050 871 1065 q 865 1019 875 1035 l 482 406 l 482 42 q 470 12 482 24 q 440 0 458 0 m 419 1197 q 389 1210 401 1197 q 376 1240 376 1222 q 386 1268 376 1256 l 557 1439 q 588 1451 569 1451 q 618 1440 606 1451 q 631 1408 631 1428 q 628 1394 631 1401 q 618 1379 625 1386 l 447 1208 q 419 1197 436 1197 z "},"Ŷ":{"ha":879,"x_min":6,"x_max":875,"o":"m 440 0 q 410 12 422 0 q 399 42 399 24 l 399 406 l 15 1019 q 8 1051 6 1036 q 20 1075 10 1065 q 47 1085 31 1085 q 66 1081 58 1085 q 81 1068 74 1076 l 471 432 l 410 432 l 794 1058 q 813 1079 804 1074 q 835 1085 822 1085 q 861 1075 851 1085 q 873 1050 871 1065 q 865 1019 875 1035 l 482 406 l 482 42 q 470 12 482 24 q 440 0 458 0 m 274 1225 q 242 1237 256 1225 q 229 1267 229 1249 q 251 1304 229 1290 l 419 1417 q 440 1422 431 1422 q 452 1421 447 1422 q 461 1417 457 1419 l 629 1304 q 651 1267 651 1290 q 640 1237 651 1249 q 608 1225 628 1225 q 594 1227 600 1225 q 582 1233 589 1229 l 440 1328 l 299 1233 q 274 1225 286 1225 z "},"Ÿ":{"ha":879,"x_min":6,"x_max":875,"o":"m 440 0 q 410 12 422 0 q 399 42 399 24 l 399 406 l 15 1019 q 8 1051 6 1036 q 20 1075 10 1065 q 47 1085 31 1085 q 66 1081 58 1085 q 81 1068 74 1076 l 471 432 l 410 432 l 794 1058 q 813 1079 804 1074 q 835 1085 822 1085 q 861 1075 851 1085 q 873 1050 871 1065 q 865 1019 875 1035 l 482 406 l 482 42 q 470 12 482 24 q 440 0 458 0 m 301 1238 q 250 1258 271 1238 q 229 1310 229 1279 q 250 1360 229 1339 q 301 1381 271 1381 q 352 1360 332 1381 q 372 1310 372 1339 q 352 1258 372 1279 q 301 1238 332 1238 m 579 1238 q 528 1258 549 1238 q 507 1310 507 1279 q 528 1360 507 1339 q 579 1381 549 1381 q 630 1360 610 1381 q 650 1310 650 1339 q 630 1258 650 1279 q 579 1238 610 1238 z "},"Ỵ":{"ha":879,"x_min":6,"x_max":875,"o":"m 440 0 q 410 12 422 0 q 399 42 399 24 l 399 406 l 15 1019 q 8 1051 6 1036 q 20 1075 10 1065 q 47 1085 31 1085 q 66 1081 58 1085 q 81 1068 74 1076 l 471 432 l 410 432 l 794 1058 q 813 1079 804 1074 q 835 1085 822 1085 q 861 1075 851 1085 q 873 1050 871 1065 q 865 1019 875 1035 l 482 406 l 482 42 q 470 12 482 24 q 440 0 458 0 m 439 -275 q 394 -256 413 -275 q 375 -210 375 -237 q 395 -162 375 -178 q 440 -146 415 -146 q 484 -162 464 -146 q 504 -210 504 -178 q 485 -256 504 -237 q 439 -275 467 -275 z "},"Ỳ":{"ha":879,"x_min":6,"x_max":875,"o":"m 440 0 q 410 12 422 0 q 399 42 399 24 l 399 406 l 15 1019 q 8 1051 6 1036 q 20 1075 10 1065 q 47 1085 31 1085 q 66 1081 58 1085 q 81 1068 74 1076 l 471 432 l 410 432 l 794 1058 q 813 1079 804 1074 q 835 1085 822 1085 q 861 1075 851 1085 q 873 1050 871 1065 q 865 1019 875 1035 l 482 406 l 482 42 q 470 12 482 24 q 440 0 458 0 m 442 1213 q 413 1224 428 1213 l 242 1394 q 231 1424 231 1406 q 243 1455 231 1443 q 274 1467 256 1467 q 303 1454 290 1467 l 474 1283 q 483 1256 483 1274 q 472 1225 483 1238 q 442 1213 460 1213 z "},"Ỷ":{"ha":879,"x_min":6,"x_max":875,"o":"m 440 0 q 410 12 422 0 q 399 42 399 24 l 399 406 l 15 1019 q 8 1051 6 1036 q 20 1075 10 1065 q 47 1085 31 1085 q 66 1081 58 1085 q 81 1068 74 1076 l 471 432 l 410 432 l 794 1058 q 813 1079 804 1074 q 835 1085 822 1085 q 861 1075 851 1085 q 873 1050 871 1065 q 865 1019 875 1035 l 482 406 l 482 42 q 470 12 482 24 q 440 0 458 0 m 438 1153 q 409 1165 421 1153 q 397 1193 397 1176 l 397 1239 q 433 1283 397 1275 l 467 1290 q 513 1313 500 1297 q 525 1354 525 1328 q 503 1406 525 1388 q 449 1425 481 1425 q 418 1419 432 1425 q 390 1403 404 1414 q 378 1396 385 1399 q 364 1393 371 1393 q 335 1405 347 1393 q 324 1433 324 1417 q 338 1464 324 1453 q 390 1494 361 1483 q 449 1506 418 1506 q 560 1467 514 1506 q 606 1363 606 1429 q 567 1268 606 1301 q 478 1226 529 1235 l 478 1193 q 466 1165 478 1176 q 438 1153 454 1153 z "},"Ȳ":{"ha":879,"x_min":6,"x_max":875,"o":"m 440 0 q 410 12 422 0 q 399 42 399 24 l 399 406 l 15 1019 q 8 1051 6 1036 q 20 1075 10 1065 q 47 1085 31 1085 q 66 1081 58 1085 q 81 1068 74 1076 l 471 432 l 410 432 l 794 1058 q 813 1079 804 1074 q 835 1085 822 1085 q 861 1075 851 1085 q 873 1050 871 1065 q 865 1019 875 1035 l 482 406 l 482 42 q 470 12 482 24 q 440 0 458 0 m 256 1243 q 226 1255 238 1243 q 214 1285 214 1267 q 226 1315 214 1303 q 256 1328 238 1328 l 624 1328 q 653 1315 642 1328 q 665 1285 665 1303 q 653 1255 665 1267 q 624 1243 642 1243 l 256 1243 z "},"Ỹ":{"ha":879,"x_min":6,"x_max":875,"o":"m 440 0 q 410 12 422 0 q 399 42 399 24 l 399 406 l 15 1019 q 8 1051 6 1036 q 20 1075 10 1065 q 47 1085 31 1085 q 66 1081 58 1085 q 81 1068 74 1076 l 471 432 l 410 432 l 794 1058 q 813 1079 804 1074 q 835 1085 822 1085 q 861 1075 851 1085 q 873 1050 871 1065 q 865 1019 875 1035 l 482 406 l 482 42 q 470 12 482 24 q 440 0 458 0 m 586 1200 q 511 1217 543 1200 q 456 1249 479 1233 q 412 1274 428 1268 q 376 1281 396 1281 q 321 1266 349 1281 q 269 1224 293 1251 q 243 1207 260 1210 q 214 1213 226 1204 q 194 1238 197 1222 q 201 1268 192 1254 q 283 1337 238 1313 q 376 1361 329 1361 q 449 1346 418 1361 q 501 1315 479 1331 q 542 1290 525 1300 q 586 1281 560 1281 q 630 1288 611 1281 q 663 1311 649 1296 q 689 1328 674 1324 q 717 1326 704 1333 q 740 1301 736 1317 q 733 1271 744 1286 q 586 1200 679 1200 z "},"Z":{"ha":988,"x_min":61,"x_max":926,"o":"m 104 0 q 75 11 86 0 q 63 38 64 22 q 72 68 61 54 l 815 1010 l 104 1010 q 74 1019 86 1010 q 63 1047 63 1028 q 74 1074 63 1063 q 104 1085 86 1085 l 883 1085 q 913 1073 903 1085 q 925 1046 924 1061 q 918 1019 926 1031 l 169 75 l 883 75 q 913 66 900 75 q 925 38 925 57 q 913 12 925 24 q 883 0 900 0 l 104 0 z "},"Ź":{"ha":988,"x_min":61,"x_max":926,"o":"m 104 0 q 75 11 86 0 q 63 38 64 22 q 72 68 61 54 l 815 1010 l 104 1010 q 74 1019 86 1010 q 63 1047 63 1028 q 74 1074 63 1063 q 104 1085 86 1085 l 883 1085 q 913 1073 903 1085 q 925 1046 924 1061 q 918 1019 926 1031 l 169 75 l 883 75 q 913 66 900 75 q 925 38 925 57 q 913 12 925 24 q 883 0 900 0 l 104 0 m 474 1197 q 443 1210 456 1197 q 431 1240 431 1222 q 440 1268 431 1256 l 611 1439 q 642 1451 624 1451 q 672 1440 660 1451 q 685 1408 685 1428 q 682 1394 685 1401 q 672 1379 679 1386 l 501 1208 q 474 1197 490 1197 z "},"Ž":{"ha":988,"x_min":61,"x_max":926,"o":"m 104 0 q 75 11 86 0 q 63 38 64 22 q 72 68 61 54 l 815 1010 l 104 1010 q 74 1019 86 1010 q 63 1047 63 1028 q 74 1074 63 1063 q 104 1085 86 1085 l 883 1085 q 913 1073 903 1085 q 925 1046 924 1061 q 918 1019 926 1031 l 169 75 l 883 75 q 913 66 900 75 q 925 38 925 57 q 913 12 925 24 q 883 0 900 0 l 104 0 m 494 1225 q 474 1231 481 1225 l 306 1342 q 283 1379 283 1356 q 304 1414 283 1403 q 353 1406 325 1425 l 494 1308 l 636 1403 q 685 1413 665 1422 q 706 1379 706 1403 q 683 1342 706 1358 l 515 1231 q 494 1225 508 1225 z "},"Ż":{"ha":988,"x_min":61,"x_max":926,"o":"m 104 0 q 75 11 86 0 q 63 38 64 22 q 72 68 61 54 l 815 1010 l 104 1010 q 74 1019 86 1010 q 63 1047 63 1028 q 74 1074 63 1063 q 104 1085 86 1085 l 883 1085 q 913 1073 903 1085 q 925 1046 924 1061 q 918 1019 926 1031 l 169 75 l 883 75 q 913 66 900 75 q 925 38 925 57 q 913 12 925 24 q 883 0 900 0 l 104 0 m 493 1244 q 448 1263 467 1244 q 429 1310 429 1282 q 449 1358 429 1342 q 494 1374 469 1374 q 538 1358 518 1374 q 558 1310 558 1342 q 540 1263 558 1282 q 493 1244 521 1244 z "},"a":{"ha":943,"x_min":83,"x_max":860,"o":"m 472 -8 q 273 42 361 -8 q 134 181 185 93 q 83 379 83 269 q 134 578 83 490 q 273 717 185 667 q 472 768 361 768 q 671 717 583 768 q 809 578 758 667 q 860 379 860 490 l 825 324 q 778 154 825 229 q 653 35 732 79 q 472 -8 574 -8 m 472 69 q 628 110 560 69 q 737 222 697 151 q 776 379 776 292 q 737 538 776 468 q 628 649 697 608 q 472 690 560 690 q 317 649 386 690 q 207 538 247 608 q 167 379 167 468 q 207 222 167 292 q 317 110 247 151 q 472 69 386 69 m 819 0 q 788 12 800 0 q 776 42 776 24 l 776 296 l 803 379 l 860 379 l 860 42 q 849 12 860 24 q 819 0 838 0 z "},"á":{"ha":943,"x_min":83,"x_max":860,"o":"m 472 -8 q 273 42 361 -8 q 134 181 185 93 q 83 379 83 269 q 134 578 83 490 q 273 717 185 667 q 472 768 361 768 q 671 717 583 768 q 809 578 758 667 q 860 379 860 490 l 825 324 q 778 154 825 229 q 653 35 732 79 q 472 -8 574 -8 m 472 69 q 628 110 560 69 q 737 222 697 151 q 776 379 776 292 q 737 538 776 468 q 628 649 697 608 q 472 690 560 690 q 317 649 386 690 q 207 538 247 608 q 167 379 167 468 q 207 222 167 292 q 317 110 247 151 q 472 69 386 69 m 819 0 q 788 12 800 0 q 776 42 776 24 l 776 296 l 803 379 l 860 379 l 860 42 q 849 12 860 24 q 819 0 838 0 m 451 872 q 421 885 433 872 q 408 915 408 897 q 418 943 408 931 l 589 1114 q 619 1126 601 1126 q 650 1115 638 1126 q 663 1083 663 1103 q 660 1069 663 1076 q 650 1054 657 1061 l 479 883 q 451 872 468 872 z "},"ă":{"ha":943,"x_min":83,"x_max":860,"o":"m 472 -8 q 273 42 361 -8 q 134 181 185 93 q 83 379 83 269 q 134 578 83 490 q 273 717 185 667 q 472 768 361 768 q 671 717 583 768 q 809 578 758 667 q 860 379 860 490 l 825 324 q 778 154 825 229 q 653 35 732 79 q 472 -8 574 -8 m 472 69 q 628 110 560 69 q 737 222 697 151 q 776 379 776 292 q 737 538 776 468 q 628 649 697 608 q 472 690 560 690 q 317 649 386 690 q 207 538 247 608 q 167 379 167 468 q 207 222 167 292 q 317 110 247 151 q 472 69 386 69 m 819 0 q 788 12 800 0 q 776 42 776 24 l 776 296 l 803 379 l 860 379 l 860 42 q 849 12 860 24 q 819 0 838 0 m 471 900 q 365 921 414 900 q 288 977 317 942 q 260 1054 260 1013 q 272 1085 260 1072 q 303 1097 285 1097 q 333 1085 321 1097 q 344 1054 344 1072 q 378 999 344 1024 q 471 975 411 975 q 565 999 531 975 q 599 1054 599 1022 q 610 1085 599 1072 q 640 1097 622 1097 q 670 1085 658 1097 q 683 1056 682 1072 q 650 973 681 1008 q 572 919 619 938 q 471 900 525 900 z "},"ắ":{"ha":943,"x_min":83,"x_max":860,"o":"m 472 -8 q 273 42 361 -8 q 134 181 185 93 q 83 379 83 269 q 134 578 83 490 q 273 717 185 667 q 472 768 361 768 q 671 717 583 768 q 809 578 758 667 q 860 379 860 490 l 825 324 q 778 154 825 229 q 653 35 732 79 q 472 -8 574 -8 m 472 69 q 628 110 560 69 q 737 222 697 151 q 776 379 776 292 q 737 538 776 468 q 628 649 697 608 q 472 690 560 690 q 317 649 386 690 q 207 538 247 608 q 167 379 167 468 q 207 222 167 292 q 317 110 247 151 q 472 69 386 69 m 819 0 q 788 12 800 0 q 776 42 776 24 l 776 296 l 803 379 l 860 379 l 860 42 q 849 12 860 24 q 819 0 838 0 m 471 900 q 365 921 414 900 q 288 977 317 942 q 260 1054 260 1013 q 272 1085 260 1072 q 303 1097 285 1097 q 333 1085 321 1097 q 344 1054 344 1072 q 378 999 344 1024 q 471 975 411 975 q 565 999 531 975 q 599 1054 599 1022 q 610 1085 599 1072 q 640 1097 622 1097 q 670 1085 658 1097 q 683 1056 682 1072 q 650 973 681 1008 q 572 919 619 938 q 471 900 525 900 m 451 1099 q 421 1111 433 1099 q 408 1142 408 1124 q 418 1169 408 1157 l 589 1340 q 619 1353 601 1353 q 650 1341 638 1353 q 663 1310 663 1329 q 660 1295 663 1303 q 650 1281 657 1288 l 479 1110 q 451 1099 468 1099 z "},"ặ":{"ha":943,"x_min":83,"x_max":860,"o":"m 472 -8 q 273 42 361 -8 q 134 181 185 93 q 83 379 83 269 q 134 578 83 490 q 273 717 185 667 q 472 768 361 768 q 671 717 583 768 q 809 578 758 667 q 860 379 860 490 l 825 324 q 778 154 825 229 q 653 35 732 79 q 472 -8 574 -8 m 472 69 q 628 110 560 69 q 737 222 697 151 q 776 379 776 292 q 737 538 776 468 q 628 649 697 608 q 472 690 560 690 q 317 649 386 690 q 207 538 247 608 q 167 379 167 468 q 207 222 167 292 q 317 110 247 151 q 472 69 386 69 m 819 0 q 788 12 800 0 q 776 42 776 24 l 776 296 l 803 379 l 860 379 l 860 42 q 849 12 860 24 q 819 0 838 0 m 471 900 q 365 921 414 900 q 288 977 317 942 q 260 1054 260 1013 q 272 1085 260 1072 q 303 1097 285 1097 q 333 1085 321 1097 q 344 1054 344 1072 q 378 999 344 1024 q 471 975 411 975 q 565 999 531 975 q 599 1054 599 1022 q 610 1085 599 1072 q 640 1097 622 1097 q 670 1085 658 1097 q 683 1056 682 1072 q 650 973 681 1008 q 572 919 619 938 q 471 900 525 900 m 471 -275 q 426 -256 444 -275 q 407 -210 407 -237 q 427 -162 407 -178 q 472 -146 447 -146 q 516 -162 496 -146 q 536 -210 536 -178 q 517 -256 536 -237 q 471 -275 499 -275 z "},"ằ":{"ha":943,"x_min":83,"x_max":860,"o":"m 472 -8 q 273 42 361 -8 q 134 181 185 93 q 83 379 83 269 q 134 578 83 490 q 273 717 185 667 q 472 768 361 768 q 671 717 583 768 q 809 578 758 667 q 860 379 860 490 l 825 324 q 778 154 825 229 q 653 35 732 79 q 472 -8 574 -8 m 472 69 q 628 110 560 69 q 737 222 697 151 q 776 379 776 292 q 737 538 776 468 q 628 649 697 608 q 472 690 560 690 q 317 649 386 690 q 207 538 247 608 q 167 379 167 468 q 207 222 167 292 q 317 110 247 151 q 472 69 386 69 m 819 0 q 788 12 800 0 q 776 42 776 24 l 776 296 l 803 379 l 860 379 l 860 42 q 849 12 860 24 q 819 0 838 0 m 471 900 q 365 921 414 900 q 288 977 317 942 q 260 1054 260 1013 q 272 1085 260 1072 q 303 1097 285 1097 q 333 1085 321 1097 q 344 1054 344 1072 q 378 999 344 1024 q 471 975 411 975 q 565 999 531 975 q 599 1054 599 1022 q 610 1085 599 1072 q 640 1097 622 1097 q 670 1085 658 1097 q 683 1056 682 1072 q 650 973 681 1008 q 572 919 619 938 q 471 900 525 900 m 474 1114 q 444 1125 460 1114 l 274 1296 q 263 1325 263 1307 q 275 1356 263 1344 q 306 1368 288 1368 q 335 1356 322 1368 l 506 1185 q 515 1157 515 1175 q 503 1126 515 1139 q 474 1114 492 1114 z "},"ẳ":{"ha":943,"x_min":83,"x_max":860,"o":"m 472 -8 q 273 42 361 -8 q 134 181 185 93 q 83 379 83 269 q 134 578 83 490 q 273 717 185 667 q 472 768 361 768 q 671 717 583 768 q 809 578 758 667 q 860 379 860 490 l 825 324 q 778 154 825 229 q 653 35 732 79 q 472 -8 574 -8 m 472 69 q 628 110 560 69 q 737 222 697 151 q 776 379 776 292 q 737 538 776 468 q 628 649 697 608 q 472 690 560 690 q 317 649 386 690 q 207 538 247 608 q 167 379 167 468 q 207 222 167 292 q 317 110 247 151 q 472 69 386 69 m 819 0 q 788 12 800 0 q 776 42 776 24 l 776 296 l 803 379 l 860 379 l 860 42 q 849 12 860 24 q 819 0 838 0 m 471 900 q 365 921 414 900 q 288 977 317 942 q 260 1054 260 1013 q 272 1085 260 1072 q 303 1097 285 1097 q 333 1085 321 1097 q 344 1054 344 1072 q 378 999 344 1024 q 471 975 411 975 q 565 999 531 975 q 599 1054 599 1022 q 610 1085 599 1072 q 640 1097 622 1097 q 670 1085 658 1097 q 683 1056 682 1072 q 650 973 681 1008 q 572 919 619 938 q 471 900 525 900 m 469 1054 q 441 1066 453 1054 q 429 1094 429 1078 l 429 1140 q 465 1185 429 1176 l 499 1192 q 544 1214 532 1199 q 557 1256 557 1229 q 535 1308 557 1289 q 481 1326 513 1326 q 450 1321 464 1326 q 422 1304 436 1315 q 410 1297 417 1300 q 396 1294 403 1294 q 367 1306 379 1294 q 356 1335 356 1318 q 369 1365 356 1354 q 422 1396 393 1385 q 481 1407 450 1407 q 592 1369 546 1407 q 638 1264 638 1331 q 599 1169 638 1203 q 510 1128 561 1136 l 510 1094 q 498 1066 510 1078 q 469 1054 486 1054 z "},"ẵ":{"ha":943,"x_min":83,"x_max":860,"o":"m 472 -8 q 273 42 361 -8 q 134 181 185 93 q 83 379 83 269 q 134 578 83 490 q 273 717 185 667 q 472 768 361 768 q 671 717 583 768 q 809 578 758 667 q 860 379 860 490 l 825 324 q 778 154 825 229 q 653 35 732 79 q 472 -8 574 -8 m 472 69 q 628 110 560 69 q 737 222 697 151 q 776 379 776 292 q 737 538 776 468 q 628 649 697 608 q 472 690 560 690 q 317 649 386 690 q 207 538 247 608 q 167 379 167 468 q 207 222 167 292 q 317 110 247 151 q 472 69 386 69 m 819 0 q 788 12 800 0 q 776 42 776 24 l 776 296 l 803 379 l 860 379 l 860 42 q 849 12 860 24 q 819 0 838 0 m 471 900 q 365 921 414 900 q 288 977 317 942 q 260 1054 260 1013 q 272 1085 260 1072 q 303 1097 285 1097 q 333 1085 321 1097 q 344 1054 344 1072 q 378 999 344 1024 q 471 975 411 975 q 565 999 531 975 q 599 1054 599 1022 q 610 1085 599 1072 q 640 1097 622 1097 q 670 1085 658 1097 q 683 1056 682 1072 q 650 973 681 1008 q 572 919 619 938 q 471 900 525 900 m 557 1132 q 497 1149 524 1132 q 456 1179 471 1165 q 420 1210 435 1200 q 388 1219 406 1219 q 357 1203 369 1219 q 329 1160 344 1188 q 307 1138 321 1144 q 279 1136 293 1132 q 258 1156 264 1142 q 260 1188 253 1171 q 314 1267 283 1243 q 386 1290 344 1290 q 443 1277 422 1290 q 486 1244 464 1264 q 527 1214 514 1222 q 551 1206 540 1206 q 588 1247 572 1206 q 609 1272 594 1264 q 638 1276 624 1281 q 664 1257 657 1271 q 664 1225 671 1243 q 617 1153 643 1174 q 557 1132 590 1132 z "},"ǎ":{"ha":943,"x_min":83,"x_max":860,"o":"m 472 -8 q 273 42 361 -8 q 134 181 185 93 q 83 379 83 269 q 134 578 83 490 q 273 717 185 667 q 472 768 361 768 q 671 717 583 768 q 809 578 758 667 q 860 379 860 490 l 825 324 q 778 154 825 229 q 653 35 732 79 q 472 -8 574 -8 m 472 69 q 628 110 560 69 q 737 222 697 151 q 776 379 776 292 q 737 538 776 468 q 628 649 697 608 q 472 690 560 690 q 317 649 386 690 q 207 538 247 608 q 167 379 167 468 q 207 222 167 292 q 317 110 247 151 q 472 69 386 69 m 819 0 q 788 12 800 0 q 776 42 776 24 l 776 296 l 803 379 l 860 379 l 860 42 q 849 12 860 24 q 819 0 838 0 m 472 900 q 451 906 458 900 l 283 1017 q 261 1054 261 1031 q 282 1089 261 1078 q 331 1081 303 1100 l 472 983 l 614 1078 q 663 1088 643 1097 q 683 1054 683 1078 q 661 1017 683 1033 l 493 906 q 472 900 486 900 z "},"â":{"ha":943,"x_min":83,"x_max":860,"o":"m 472 -8 q 273 42 361 -8 q 134 181 185 93 q 83 379 83 269 q 134 578 83 490 q 273 717 185 667 q 472 768 361 768 q 671 717 583 768 q 809 578 758 667 q 860 379 860 490 l 825 324 q 778 154 825 229 q 653 35 732 79 q 472 -8 574 -8 m 472 69 q 628 110 560 69 q 737 222 697 151 q 776 379 776 292 q 737 538 776 468 q 628 649 697 608 q 472 690 560 690 q 317 649 386 690 q 207 538 247 608 q 167 379 167 468 q 207 222 167 292 q 317 110 247 151 q 472 69 386 69 m 819 0 q 788 12 800 0 q 776 42 776 24 l 776 296 l 803 379 l 860 379 l 860 42 q 849 12 860 24 q 819 0 838 0 m 306 900 q 274 912 288 900 q 261 942 261 924 q 283 979 261 965 l 451 1092 q 472 1097 463 1097 q 484 1096 479 1097 q 493 1092 489 1094 l 661 979 q 683 942 683 965 q 672 912 683 924 q 640 900 660 900 q 626 902 632 900 q 614 908 621 904 l 472 1003 l 331 908 q 306 900 318 900 z "},"ấ":{"ha":943,"x_min":83,"x_max":860,"o":"m 472 -8 q 273 42 361 -8 q 134 181 185 93 q 83 379 83 269 q 134 578 83 490 q 273 717 185 667 q 472 768 361 768 q 671 717 583 768 q 809 578 758 667 q 860 379 860 490 l 825 324 q 778 154 825 229 q 653 35 732 79 q 472 -8 574 -8 m 472 69 q 628 110 560 69 q 737 222 697 151 q 776 379 776 292 q 737 538 776 468 q 628 649 697 608 q 472 690 560 690 q 317 649 386 690 q 207 538 247 608 q 167 379 167 468 q 207 222 167 292 q 317 110 247 151 q 472 69 386 69 m 819 0 q 788 12 800 0 q 776 42 776 24 l 776 296 l 803 379 l 860 379 l 860 42 q 849 12 860 24 q 819 0 838 0 m 306 900 q 274 912 288 900 q 261 942 261 924 q 283 979 261 965 l 451 1092 q 472 1097 463 1097 q 484 1096 479 1097 q 493 1092 489 1094 l 661 979 q 683 942 683 965 q 672 912 683 924 q 640 900 660 900 q 626 902 632 900 q 614 908 621 904 l 472 1003 l 331 908 q 306 900 318 900 m 578 1131 q 547 1143 560 1131 q 535 1174 535 1156 q 544 1201 535 1189 l 715 1372 q 746 1385 728 1385 q 776 1373 764 1385 q 789 1342 789 1361 q 786 1327 789 1335 q 776 1313 783 1319 l 606 1142 q 578 1131 594 1131 z "},"ậ":{"ha":943,"x_min":83,"x_max":860,"o":"m 472 -8 q 273 42 361 -8 q 134 181 185 93 q 83 379 83 269 q 134 578 83 490 q 273 717 185 667 q 472 768 361 768 q 671 717 583 768 q 809 578 758 667 q 860 379 860 490 l 825 324 q 778 154 825 229 q 653 35 732 79 q 472 -8 574 -8 m 472 69 q 628 110 560 69 q 737 222 697 151 q 776 379 776 292 q 737 538 776 468 q 628 649 697 608 q 472 690 560 690 q 317 649 386 690 q 207 538 247 608 q 167 379 167 468 q 207 222 167 292 q 317 110 247 151 q 472 69 386 69 m 819 0 q 788 12 800 0 q 776 42 776 24 l 776 296 l 803 379 l 860 379 l 860 42 q 849 12 860 24 q 819 0 838 0 m 306 900 q 274 912 288 900 q 261 942 261 924 q 283 979 261 965 l 451 1092 q 472 1097 463 1097 q 484 1096 479 1097 q 493 1092 489 1094 l 661 979 q 683 942 683 965 q 672 912 683 924 q 640 900 660 900 q 626 902 632 900 q 614 908 621 904 l 472 1003 l 331 908 q 306 900 318 900 m 471 -275 q 426 -256 444 -275 q 407 -210 407 -237 q 427 -162 407 -178 q 472 -146 447 -146 q 516 -162 496 -146 q 536 -210 536 -178 q 517 -256 536 -237 q 471 -275 499 -275 z "},"ầ":{"ha":943,"x_min":83,"x_max":860,"o":"m 472 -8 q 273 42 361 -8 q 134 181 185 93 q 83 379 83 269 q 134 578 83 490 q 273 717 185 667 q 472 768 361 768 q 671 717 583 768 q 809 578 758 667 q 860 379 860 490 l 825 324 q 778 154 825 229 q 653 35 732 79 q 472 -8 574 -8 m 472 69 q 628 110 560 69 q 737 222 697 151 q 776 379 776 292 q 737 538 776 468 q 628 649 697 608 q 472 690 560 690 q 317 649 386 690 q 207 538 247 608 q 167 379 167 468 q 207 222 167 292 q 317 110 247 151 q 472 69 386 69 m 819 0 q 788 12 800 0 q 776 42 776 24 l 776 296 l 803 379 l 860 379 l 860 42 q 849 12 860 24 q 819 0 838 0 m 306 900 q 274 912 288 900 q 261 942 261 924 q 283 979 261 965 l 451 1092 q 472 1097 463 1097 q 484 1096 479 1097 q 493 1092 489 1094 l 661 979 q 683 942 683 965 q 672 912 683 924 q 640 900 660 900 q 626 902 632 900 q 614 908 621 904 l 472 1003 l 331 908 q 306 900 318 900 m 600 1146 q 571 1157 586 1146 l 400 1328 q 389 1357 389 1339 q 401 1388 389 1376 q 432 1400 414 1400 q 461 1388 449 1400 l 632 1217 q 642 1189 642 1207 q 630 1158 642 1171 q 600 1146 618 1146 z "},"ẩ":{"ha":943,"x_min":83,"x_max":860,"o":"m 472 -8 q 273 42 361 -8 q 134 181 185 93 q 83 379 83 269 q 134 578 83 490 q 273 717 185 667 q 472 768 361 768 q 671 717 583 768 q 809 578 758 667 q 860 379 860 490 l 825 324 q 778 154 825 229 q 653 35 732 79 q 472 -8 574 -8 m 472 69 q 628 110 560 69 q 737 222 697 151 q 776 379 776 292 q 737 538 776 468 q 628 649 697 608 q 472 690 560 690 q 317 649 386 690 q 207 538 247 608 q 167 379 167 468 q 207 222 167 292 q 317 110 247 151 q 472 69 386 69 m 819 0 q 788 12 800 0 q 776 42 776 24 l 776 296 l 803 379 l 860 379 l 860 42 q 849 12 860 24 q 819 0 838 0 m 307 900 q 276 912 289 900 q 263 942 263 924 q 285 979 263 965 l 453 1092 q 474 1097 464 1097 q 485 1096 481 1097 q 494 1092 490 1094 l 663 979 q 685 942 685 965 q 673 912 685 924 q 642 900 661 900 q 628 902 633 900 q 615 908 622 904 l 474 1003 l 332 908 q 307 900 319 900 m 597 1086 q 569 1098 581 1086 q 557 1126 557 1110 l 557 1172 q 593 1217 557 1208 l 626 1224 q 672 1246 660 1231 q 685 1288 685 1261 q 663 1340 685 1321 q 608 1358 640 1358 q 578 1353 592 1358 q 550 1336 564 1347 q 538 1329 544 1332 q 524 1326 531 1326 q 495 1338 507 1326 q 483 1367 483 1350 q 497 1397 483 1386 q 549 1428 521 1417 q 608 1439 578 1439 q 719 1401 674 1439 q 765 1296 765 1363 q 727 1201 765 1235 q 638 1160 689 1168 l 638 1126 q 626 1098 638 1110 q 597 1086 614 1086 z "},"ẫ":{"ha":943,"x_min":83,"x_max":860,"o":"m 472 -8 q 273 42 361 -8 q 134 181 185 93 q 83 379 83 269 q 134 578 83 490 q 273 717 185 667 q 472 768 361 768 q 671 717 583 768 q 809 578 758 667 q 860 379 860 490 l 825 324 q 778 154 825 229 q 653 35 732 79 q 472 -8 574 -8 m 472 69 q 628 110 560 69 q 737 222 697 151 q 776 379 776 292 q 737 538 776 468 q 628 649 697 608 q 472 690 560 690 q 317 649 386 690 q 207 538 247 608 q 167 379 167 468 q 207 222 167 292 q 317 110 247 151 q 472 69 386 69 m 819 0 q 788 12 800 0 q 776 42 776 24 l 776 296 l 803 379 l 860 379 l 860 42 q 849 12 860 24 q 819 0 838 0 m 306 900 q 274 912 288 900 q 261 942 261 924 q 283 979 261 965 l 451 1092 q 472 1097 463 1097 q 484 1096 479 1097 q 493 1092 489 1094 l 661 979 q 683 942 683 965 q 672 912 683 924 q 640 900 660 900 q 626 902 632 900 q 614 908 621 904 l 472 1003 l 331 908 q 306 900 318 900 m 556 1136 q 496 1153 522 1136 q 454 1183 469 1169 q 419 1214 433 1204 q 386 1224 404 1224 q 356 1208 368 1224 q 328 1164 343 1192 q 306 1142 319 1149 q 278 1140 292 1136 q 257 1160 263 1146 q 258 1192 251 1175 q 313 1271 282 1247 q 385 1294 343 1294 q 442 1281 421 1294 q 485 1249 463 1268 q 526 1218 513 1226 q 550 1210 539 1210 q 586 1251 571 1210 q 608 1276 593 1268 q 636 1281 622 1285 q 663 1261 656 1275 q 663 1229 669 1247 q 615 1157 642 1178 q 556 1136 589 1136 z "},"ȁ":{"ha":943,"x_min":83,"x_max":860,"o":"m 472 -8 q 273 42 361 -8 q 134 181 185 93 q 83 379 83 269 q 134 578 83 490 q 273 717 185 667 q 472 768 361 768 q 671 717 583 768 q 809 578 758 667 q 860 379 860 490 l 825 324 q 778 154 825 229 q 653 35 732 79 q 472 -8 574 -8 m 472 69 q 628 110 560 69 q 737 222 697 151 q 776 379 776 292 q 737 538 776 468 q 628 649 697 608 q 472 690 560 690 q 317 649 386 690 q 207 538 247 608 q 167 379 167 468 q 207 222 167 292 q 317 110 247 151 q 472 69 386 69 m 819 0 q 788 12 800 0 q 776 42 776 24 l 776 296 l 803 379 l 860 379 l 860 42 q 849 12 860 24 q 819 0 838 0 m 629 874 q 600 893 610 874 l 510 1083 q 507 1099 507 1092 q 519 1127 507 1114 q 550 1140 531 1140 q 573 1133 563 1140 q 589 1114 583 1126 l 653 914 q 654 901 654 911 q 647 881 654 888 q 629 874 639 874 m 410 874 q 382 893 390 874 l 292 1083 q 290 1090 290 1086 q 289 1099 289 1094 q 301 1127 289 1114 q 332 1140 313 1140 q 355 1133 344 1140 q 369 1114 365 1126 l 435 914 q 436 909 436 913 q 436 901 436 906 q 428 881 436 888 q 410 874 421 874 z "},"ä":{"ha":943,"x_min":83,"x_max":860,"o":"m 472 -8 q 273 42 361 -8 q 134 181 185 93 q 83 379 83 269 q 134 578 83 490 q 273 717 185 667 q 472 768 361 768 q 671 717 583 768 q 809 578 758 667 q 860 379 860 490 l 825 324 q 778 154 825 229 q 653 35 732 79 q 472 -8 574 -8 m 472 69 q 628 110 560 69 q 737 222 697 151 q 776 379 776 292 q 737 538 776 468 q 628 649 697 608 q 472 690 560 690 q 317 649 386 690 q 207 538 247 608 q 167 379 167 468 q 207 222 167 292 q 317 110 247 151 q 472 69 386 69 m 819 0 q 788 12 800 0 q 776 42 776 24 l 776 296 l 803 379 l 860 379 l 860 42 q 849 12 860 24 q 819 0 838 0 m 333 913 q 282 933 303 913 q 261 985 261 954 q 282 1035 261 1014 q 333 1056 303 1056 q 384 1035 364 1056 q 404 985 404 1014 q 384 933 404 954 q 333 913 364 913 m 611 913 q 560 933 581 913 q 539 985 539 954 q 560 1035 539 1014 q 611 1056 581 1056 q 662 1035 642 1056 q 682 985 682 1014 q 662 933 682 954 q 611 913 642 913 z "},"ạ":{"ha":943,"x_min":83,"x_max":860,"o":"m 472 -8 q 273 42 361 -8 q 134 181 185 93 q 83 379 83 269 q 134 578 83 490 q 273 717 185 667 q 472 768 361 768 q 671 717 583 768 q 809 578 758 667 q 860 379 860 490 l 825 324 q 778 154 825 229 q 653 35 732 79 q 472 -8 574 -8 m 472 69 q 628 110 560 69 q 737 222 697 151 q 776 379 776 292 q 737 538 776 468 q 628 649 697 608 q 472 690 560 690 q 317 649 386 690 q 207 538 247 608 q 167 379 167 468 q 207 222 167 292 q 317 110 247 151 q 472 69 386 69 m 819 0 q 788 12 800 0 q 776 42 776 24 l 776 296 l 803 379 l 860 379 l 860 42 q 849 12 860 24 q 819 0 838 0 m 471 -275 q 426 -256 444 -275 q 407 -210 407 -237 q 427 -162 407 -178 q 472 -146 447 -146 q 516 -162 496 -146 q 536 -210 536 -178 q 517 -256 536 -237 q 471 -275 499 -275 z "},"à":{"ha":943,"x_min":83,"x_max":860,"o":"m 472 -8 q 273 42 361 -8 q 134 181 185 93 q 83 379 83 269 q 134 578 83 490 q 273 717 185 667 q 472 768 361 768 q 671 717 583 768 q 809 578 758 667 q 860 379 860 490 l 825 324 q 778 154 825 229 q 653 35 732 79 q 472 -8 574 -8 m 472 69 q 628 110 560 69 q 737 222 697 151 q 776 379 776 292 q 737 538 776 468 q 628 649 697 608 q 472 690 560 690 q 317 649 386 690 q 207 538 247 608 q 167 379 167 468 q 207 222 167 292 q 317 110 247 151 q 472 69 386 69 m 819 0 q 788 12 800 0 q 776 42 776 24 l 776 296 l 803 379 l 860 379 l 860 42 q 849 12 860 24 q 819 0 838 0 m 474 888 q 444 899 460 888 l 274 1069 q 263 1099 263 1081 q 275 1130 263 1118 q 306 1142 288 1142 q 335 1129 322 1142 l 506 958 q 515 931 515 949 q 503 900 515 913 q 474 888 492 888 z "},"ả":{"ha":943,"x_min":83,"x_max":860,"o":"m 472 -8 q 273 42 361 -8 q 134 181 185 93 q 83 379 83 269 q 134 578 83 490 q 273 717 185 667 q 472 768 361 768 q 671 717 583 768 q 809 578 758 667 q 860 379 860 490 l 825 324 q 778 154 825 229 q 653 35 732 79 q 472 -8 574 -8 m 472 69 q 628 110 560 69 q 737 222 697 151 q 776 379 776 292 q 737 538 776 468 q 628 649 697 608 q 472 690 560 690 q 317 649 386 690 q 207 538 247 608 q 167 379 167 468 q 207 222 167 292 q 317 110 247 151 q 472 69 386 69 m 819 0 q 788 12 800 0 q 776 42 776 24 l 776 296 l 803 379 l 860 379 l 860 42 q 849 12 860 24 q 819 0 838 0 m 469 828 q 441 840 453 828 q 429 868 429 851 l 429 914 q 465 958 429 950 l 499 965 q 544 988 532 972 q 557 1029 557 1003 q 535 1081 557 1063 q 481 1100 513 1100 q 450 1094 464 1100 q 422 1078 436 1089 q 410 1071 417 1074 q 396 1068 403 1068 q 367 1080 379 1068 q 356 1108 356 1092 q 369 1139 356 1128 q 422 1169 393 1158 q 481 1181 450 1181 q 592 1142 546 1181 q 638 1038 638 1104 q 599 943 638 976 q 510 901 561 910 l 510 868 q 498 840 510 851 q 469 828 486 828 z "},"ȃ":{"ha":943,"x_min":83,"x_max":860,"o":"m 472 -8 q 273 42 361 -8 q 134 181 185 93 q 83 379 83 269 q 134 578 83 490 q 273 717 185 667 q 472 768 361 768 q 671 717 583 768 q 809 578 758 667 q 860 379 860 490 l 825 324 q 778 154 825 229 q 653 35 732 79 q 472 -8 574 -8 m 472 69 q 628 110 560 69 q 737 222 697 151 q 776 379 776 292 q 737 538 776 468 q 628 649 697 608 q 472 690 560 690 q 317 649 386 690 q 207 538 247 608 q 167 379 167 468 q 207 222 167 292 q 317 110 247 151 q 472 69 386 69 m 819 0 q 788 12 800 0 q 776 42 776 24 l 776 296 l 803 379 l 860 379 l 860 42 q 849 12 860 24 q 819 0 838 0 m 303 900 q 272 913 285 900 q 260 943 260 925 q 288 1021 260 986 q 365 1076 317 1056 q 471 1097 414 1097 q 572 1078 525 1097 q 650 1025 619 1060 q 683 942 681 990 q 670 913 682 925 q 640 900 658 900 q 610 913 622 900 q 599 943 599 925 q 565 999 599 975 q 471 1022 531 1022 q 378 999 411 1022 q 344 943 344 975 q 333 913 344 925 q 303 900 321 900 z "},"ā":{"ha":943,"x_min":83,"x_max":860,"o":"m 472 -8 q 273 42 361 -8 q 134 181 185 93 q 83 379 83 269 q 134 578 83 490 q 273 717 185 667 q 472 768 361 768 q 671 717 583 768 q 809 578 758 667 q 860 379 860 490 l 825 324 q 778 154 825 229 q 653 35 732 79 q 472 -8 574 -8 m 472 69 q 628 110 560 69 q 737 222 697 151 q 776 379 776 292 q 737 538 776 468 q 628 649 697 608 q 472 690 560 690 q 317 649 386 690 q 207 538 247 608 q 167 379 167 468 q 207 222 167 292 q 317 110 247 151 q 472 69 386 69 m 819 0 q 788 12 800 0 q 776 42 776 24 l 776 296 l 803 379 l 860 379 l 860 42 q 849 12 860 24 q 819 0 838 0 m 288 918 q 258 930 269 918 q 246 960 246 942 q 258 990 246 978 q 288 1003 269 1003 l 656 1003 q 685 990 674 1003 q 697 960 697 978 q 685 930 697 942 q 656 918 674 918 l 288 918 z "},"ą":{"ha":943,"x_min":83,"x_max":1004,"o":"m 472 -8 q 273 42 361 -8 q 134 181 185 93 q 83 379 83 269 q 134 578 83 490 q 273 717 185 667 q 472 768 361 768 q 671 717 583 768 q 809 578 758 667 q 860 379 860 490 l 825 324 q 778 154 825 229 q 653 35 732 79 q 472 -8 574 -8 m 472 69 q 628 110 560 69 q 737 222 697 151 q 776 379 776 292 q 737 538 776 468 q 628 649 697 608 q 472 690 560 690 q 317 649 386 690 q 207 538 247 608 q 167 379 167 468 q 207 222 167 292 q 317 110 247 151 q 472 69 386 69 m 819 0 q 788 12 800 0 q 776 42 776 24 l 776 296 l 803 379 l 860 379 l 860 42 q 849 12 860 24 q 819 0 838 0 m 849 -349 q 772 -328 807 -349 q 716 -272 738 -307 q 694 -194 694 -237 q 760 -68 694 -121 q 794 -36 781 -51 q 813 -7 807 -21 q 849 14 824 14 q 880 3 868 14 q 892 -26 892 -8 q 870 -80 892 -53 q 808 -137 849 -107 q 787 -164 794 -149 q 779 -194 779 -179 q 799 -244 779 -224 q 849 -264 819 -264 q 868 -261 858 -264 q 888 -253 878 -258 l 936 -217 q 961 -208 949 -208 q 992 -221 979 -208 q 1004 -251 1004 -233 q 990 -283 1004 -272 l 933 -322 q 849 -349 894 -349 z "},"å":{"ha":943,"x_min":83,"x_max":860,"o":"m 472 -8 q 273 42 361 -8 q 134 181 185 93 q 83 379 83 269 q 134 578 83 490 q 273 717 185 667 q 472 768 361 768 q 671 717 583 768 q 809 578 758 667 q 860 379 860 490 l 825 324 q 778 154 825 229 q 653 35 732 79 q 472 -8 574 -8 m 472 69 q 628 110 560 69 q 737 222 697 151 q 776 379 776 292 q 737 538 776 468 q 628 649 697 608 q 472 690 560 690 q 317 649 386 690 q 207 538 247 608 q 167 379 167 468 q 207 222 167 292 q 317 110 247 151 q 472 69 386 69 m 819 0 q 788 12 800 0 q 776 42 776 24 l 776 296 l 803 379 l 860 379 l 860 42 q 849 12 860 24 q 819 0 838 0 m 472 829 q 383 867 421 829 q 344 957 344 906 q 383 1048 344 1011 q 472 1085 421 1085 q 563 1047 525 1085 q 600 957 600 1010 q 563 867 600 906 q 472 829 526 829 m 472 883 q 526 905 504 883 q 547 957 547 926 q 526 1010 547 989 q 472 1032 504 1032 q 420 1010 442 1032 q 399 957 399 989 q 420 905 399 926 q 472 883 442 883 z "},"ǻ":{"ha":943,"x_min":83,"x_max":860,"o":"m 472 -8 q 273 42 361 -8 q 134 181 185 93 q 83 379 83 269 q 134 578 83 490 q 273 717 185 667 q 472 768 361 768 q 671 717 583 768 q 809 578 758 667 q 860 379 860 490 l 825 324 q 778 154 825 229 q 653 35 732 79 q 472 -8 574 -8 m 472 69 q 628 110 560 69 q 737 222 697 151 q 776 379 776 292 q 737 538 776 468 q 628 649 697 608 q 472 690 560 690 q 317 649 386 690 q 207 538 247 608 q 167 379 167 468 q 207 222 167 292 q 317 110 247 151 q 472 69 386 69 m 819 0 q 788 12 800 0 q 776 42 776 24 l 776 296 l 803 379 l 860 379 l 860 42 q 849 12 860 24 q 819 0 838 0 m 472 829 q 383 867 421 829 q 344 957 344 906 q 383 1048 344 1011 q 472 1085 421 1085 q 563 1047 525 1085 q 600 957 600 1010 q 563 867 600 906 q 472 829 526 829 m 472 883 q 526 905 504 883 q 547 957 547 926 q 526 1010 547 989 q 472 1032 504 1032 q 420 1010 442 1032 q 399 957 399 989 q 420 905 399 926 q 472 883 442 883 m 451 1142 q 421 1154 433 1142 q 408 1185 408 1167 q 418 1213 408 1200 l 589 1383 q 619 1396 601 1396 q 650 1384 638 1396 q 663 1353 663 1372 q 660 1338 663 1346 q 650 1324 657 1331 l 479 1153 q 451 1142 468 1142 z "},"ã":{"ha":943,"x_min":83,"x_max":860,"o":"m 472 -8 q 273 42 361 -8 q 134 181 185 93 q 83 379 83 269 q 134 578 83 490 q 273 717 185 667 q 472 768 361 768 q 671 717 583 768 q 809 578 758 667 q 860 379 860 490 l 825 324 q 778 154 825 229 q 653 35 732 79 q 472 -8 574 -8 m 472 69 q 628 110 560 69 q 737 222 697 151 q 776 379 776 292 q 737 538 776 468 q 628 649 697 608 q 472 690 560 690 q 317 649 386 690 q 207 538 247 608 q 167 379 167 468 q 207 222 167 292 q 317 110 247 151 q 472 69 386 69 m 819 0 q 788 12 800 0 q 776 42 776 24 l 776 296 l 803 379 l 860 379 l 860 42 q 849 12 860 24 q 819 0 838 0 m 618 875 q 543 892 575 875 q 488 924 511 908 q 444 949 460 943 q 408 956 428 956 q 353 941 381 956 q 301 899 325 926 q 275 882 292 885 q 246 888 258 879 q 226 913 229 897 q 233 943 224 929 q 315 1012 269 988 q 408 1036 361 1036 q 481 1021 450 1036 q 533 990 511 1006 q 574 965 557 975 q 618 956 592 956 q 662 963 643 956 q 694 986 681 971 q 721 1003 706 999 q 749 1001 736 1008 q 772 976 768 992 q 765 946 776 961 q 618 875 711 875 z "},"æ":{"ha":1539,"x_min":83,"x_max":1483,"o":"m 1154 -7 q 966 42 1049 -7 q 837 179 883 92 q 790 379 790 267 q 834 580 790 493 q 956 717 878 667 q 1133 767 1033 767 q 1315 719 1236 767 q 1439 587 1394 671 q 1483 393 1483 503 q 1472 365 1483 375 q 1443 354 1461 354 l 832 354 l 832 426 l 1465 426 l 1404 381 q 1374 540 1407 471 q 1278 649 1340 610 q 1133 689 1217 689 q 992 649 1054 689 q 895 540 931 610 q 860 381 860 471 q 897 219 860 289 q 1001 110 935 150 q 1154 71 1068 71 q 1269 90 1219 71 q 1350 139 1318 108 q 1377 151 1361 150 q 1404 142 1393 151 q 1420 114 1419 129 q 1407 86 1421 99 q 1291 19 1363 46 q 1154 -7 1219 -7 m 472 -8 q 273 42 361 -8 q 134 181 185 93 q 83 379 83 269 q 134 578 83 490 q 273 717 185 667 q 472 768 361 768 q 671 717 583 768 q 809 578 758 667 q 860 379 860 490 l 825 324 q 778 154 825 229 q 653 35 732 79 q 472 -8 574 -8 m 472 69 q 628 110 560 69 q 737 222 697 151 q 776 379 776 292 q 737 538 776 468 q 628 649 697 608 q 472 690 560 690 q 317 649 386 690 q 207 538 247 608 q 167 379 167 468 q 207 222 167 292 q 317 110 247 151 q 472 69 386 69 m 819 0 q 788 12 800 0 q 776 42 776 24 l 776 296 l 803 379 l 860 379 l 860 42 q 849 12 860 24 q 819 0 838 0 z "},"ǽ":{"ha":1539,"x_min":83,"x_max":1483,"o":"m 1154 -7 q 966 42 1049 -7 q 837 179 883 92 q 790 379 790 267 q 834 580 790 493 q 956 717 878 667 q 1133 767 1033 767 q 1315 719 1236 767 q 1439 587 1394 671 q 1483 393 1483 503 q 1472 365 1483 375 q 1443 354 1461 354 l 832 354 l 832 426 l 1465 426 l 1404 381 q 1374 540 1407 471 q 1278 649 1340 610 q 1133 689 1217 689 q 992 649 1054 689 q 895 540 931 610 q 860 381 860 471 q 897 219 860 289 q 1001 110 935 150 q 1154 71 1068 71 q 1269 90 1219 71 q 1350 139 1318 108 q 1377 151 1361 150 q 1404 142 1393 151 q 1420 114 1419 129 q 1407 86 1421 99 q 1291 19 1363 46 q 1154 -7 1219 -7 m 472 -8 q 273 42 361 -8 q 134 181 185 93 q 83 379 83 269 q 134 578 83 490 q 273 717 185 667 q 472 768 361 768 q 671 717 583 768 q 809 578 758 667 q 860 379 860 490 l 825 324 q 778 154 825 229 q 653 35 732 79 q 472 -8 574 -8 m 472 69 q 628 110 560 69 q 737 222 697 151 q 776 379 776 292 q 737 538 776 468 q 628 649 697 608 q 472 690 560 690 q 317 649 386 690 q 207 538 247 608 q 167 379 167 468 q 207 222 167 292 q 317 110 247 151 q 472 69 386 69 m 819 0 q 788 12 800 0 q 776 42 776 24 l 776 296 l 803 379 l 860 379 l 860 42 q 849 12 860 24 q 819 0 838 0 m 763 872 q 732 885 744 872 q 719 915 719 897 q 729 943 719 931 l 900 1114 q 931 1126 913 1126 q 961 1115 949 1126 q 974 1083 974 1103 q 971 1069 974 1076 q 961 1054 968 1061 l 790 883 q 763 872 779 872 z "},"b":{"ha":985,"x_min":125,"x_max":901,"o":"m 513 -8 q 317 42 404 -8 q 178 178 229 92 q 125 372 128 264 l 125 1043 q 137 1074 125 1063 q 167 1085 149 1085 q 197 1074 186 1085 q 208 1043 208 1063 l 208 610 q 333 725 253 682 q 513 768 413 768 q 712 717 624 768 q 851 579 800 667 q 901 381 901 492 q 851 181 901 269 q 712 42 800 93 q 513 -8 624 -8 m 513 69 q 669 110 600 69 q 778 222 738 151 q 818 381 818 292 q 778 539 818 469 q 669 649 738 608 q 513 690 600 690 q 357 649 426 690 q 248 539 288 608 q 208 381 208 469 q 248 222 208 292 q 357 110 288 151 q 513 69 426 69 z "},"c":{"ha":824,"x_min":83,"x_max":742,"o":"m 461 -8 q 267 43 353 -8 q 133 182 182 94 q 83 379 83 269 q 129 578 83 490 q 256 716 175 665 q 440 767 336 767 q 603 733 529 767 q 731 629 676 699 q 739 600 742 615 q 721 575 736 585 q 693 567 708 565 q 667 583 678 569 q 440 689 578 689 q 297 649 358 689 q 201 539 235 608 q 167 379 167 469 q 204 222 167 292 q 308 110 242 151 q 461 69 374 69 q 569 86 518 69 q 657 138 619 103 q 685 150 669 149 q 711 140 700 151 q 726 112 725 128 q 714 85 726 96 q 461 -8 613 -8 z "},"ć":{"ha":824,"x_min":83,"x_max":742,"o":"m 461 -8 q 267 43 353 -8 q 133 182 182 94 q 83 379 83 269 q 129 578 83 490 q 256 716 175 665 q 440 767 336 767 q 603 733 529 767 q 731 629 676 699 q 739 600 742 615 q 721 575 736 585 q 693 567 708 565 q 667 583 678 569 q 440 689 578 689 q 297 649 358 689 q 201 539 235 608 q 167 379 167 469 q 204 222 167 292 q 308 110 242 151 q 461 69 374 69 q 569 86 518 69 q 657 138 619 103 q 685 150 669 149 q 711 140 700 151 q 726 112 725 128 q 714 85 726 96 q 461 -8 613 -8 m 421 872 q 390 885 403 872 q 378 915 378 897 q 388 943 378 931 l 558 1114 q 589 1126 571 1126 q 619 1115 607 1126 q 632 1083 632 1103 q 629 1069 632 1076 q 619 1054 626 1061 l 449 883 q 421 872 438 872 z "},"č":{"ha":824,"x_min":83,"x_max":742,"o":"m 461 -8 q 267 43 353 -8 q 133 182 182 94 q 83 379 83 269 q 129 578 83 490 q 256 716 175 665 q 440 767 336 767 q 603 733 529 767 q 731 629 676 699 q 739 600 742 615 q 721 575 736 585 q 693 567 708 565 q 667 583 678 569 q 440 689 578 689 q 297 649 358 689 q 201 539 235 608 q 167 379 167 469 q 204 222 167 292 q 308 110 242 151 q 461 69 374 69 q 569 86 518 69 q 657 138 619 103 q 685 150 669 149 q 711 140 700 151 q 726 112 725 128 q 714 85 726 96 q 461 -8 613 -8 m 442 900 q 421 906 428 900 l 253 1017 q 231 1054 231 1031 q 251 1089 231 1078 q 300 1081 272 1100 l 442 983 l 583 1078 q 633 1088 613 1097 q 653 1054 653 1078 q 631 1017 653 1033 l 463 906 q 442 900 456 900 z "},"ç":{"ha":824,"x_min":83,"x_max":742,"o":"m 461 -8 q 267 43 353 -8 q 133 182 182 94 q 83 379 83 269 q 129 578 83 490 q 256 716 175 665 q 440 767 336 767 q 603 733 529 767 q 731 629 676 699 q 739 600 742 615 q 721 575 736 585 q 693 567 708 565 q 667 583 678 569 q 440 689 578 689 q 297 649 358 689 q 201 539 235 608 q 167 379 167 469 q 204 222 167 292 q 308 110 242 151 q 461 69 374 69 q 569 86 518 69 q 657 138 619 103 q 685 150 669 149 q 711 140 700 151 q 726 112 725 128 q 714 85 726 96 q 461 -8 613 -8 m 419 -322 q 308 -294 351 -322 q 265 -231 265 -265 q 277 -200 265 -212 q 307 -187 289 -187 q 333 -196 322 -187 q 356 -214 343 -204 q 380 -230 367 -222 q 419 -237 393 -237 q 478 -222 454 -237 q 501 -181 501 -207 q 483 -137 501 -153 q 422 -110 465 -122 q 383 -90 396 -103 q 385 -46 371 -78 l 413 22 q 430 44 418 36 q 461 53 442 53 q 492 37 482 53 q 494 0 503 21 l 474 -50 q 572 -104 547 -72 q 596 -178 596 -136 q 571 -251 596 -218 q 506 -303 546 -285 q 419 -322 467 -322 z "},"ĉ":{"ha":824,"x_min":83,"x_max":742,"o":"m 461 -8 q 267 43 353 -8 q 133 182 182 94 q 83 379 83 269 q 129 578 83 490 q 256 716 175 665 q 440 767 336 767 q 603 733 529 767 q 731 629 676 699 q 739 600 742 615 q 721 575 736 585 q 693 567 708 565 q 667 583 678 569 q 440 689 578 689 q 297 649 358 689 q 201 539 235 608 q 167 379 167 469 q 204 222 167 292 q 308 110 242 151 q 461 69 374 69 q 569 86 518 69 q 657 138 619 103 q 685 150 669 149 q 711 140 700 151 q 726 112 725 128 q 714 85 726 96 q 461 -8 613 -8 m 275 900 q 244 912 257 900 q 231 942 231 924 q 253 979 231 965 l 421 1092 q 442 1097 432 1097 q 453 1096 449 1097 q 463 1092 458 1094 l 631 979 q 653 942 653 965 q 641 912 653 924 q 610 900 629 900 q 596 902 601 900 q 583 908 590 904 l 442 1003 l 300 908 q 275 900 288 900 z "},"ċ":{"ha":824,"x_min":83,"x_max":742,"o":"m 461 -8 q 267 43 353 -8 q 133 182 182 94 q 83 379 83 269 q 129 578 83 490 q 256 716 175 665 q 440 767 336 767 q 603 733 529 767 q 731 629 676 699 q 739 600 742 615 q 721 575 736 585 q 693 567 708 565 q 667 583 678 569 q 440 689 578 689 q 297 649 358 689 q 201 539 235 608 q 167 379 167 469 q 204 222 167 292 q 308 110 242 151 q 461 69 374 69 q 569 86 518 69 q 657 138 619 103 q 685 150 669 149 q 711 140 700 151 q 726 112 725 128 q 714 85 726 96 q 461 -8 613 -8 m 440 919 q 395 938 414 919 q 376 985 376 957 q 397 1033 376 1017 q 442 1049 417 1049 q 485 1033 465 1049 q 506 985 506 1017 q 487 938 506 957 q 440 919 468 919 z "},"d":{"ha":985,"x_min":83,"x_max":860,"o":"m 472 -8 q 273 42 361 -8 q 134 181 185 93 q 83 381 83 269 q 134 579 83 492 q 273 717 185 667 q 472 768 361 768 q 652 725 572 768 q 776 610 732 682 l 776 1043 q 788 1074 776 1063 q 818 1085 800 1085 q 849 1074 838 1085 q 860 1043 860 1063 l 860 372 q 807 178 858 264 q 669 42 756 92 q 472 -8 582 -8 m 472 69 q 628 110 560 69 q 737 222 697 151 q 776 381 776 292 q 737 539 776 469 q 628 649 697 608 q 472 690 560 690 q 317 649 386 690 q 207 539 247 608 q 167 381 167 469 q 207 222 167 292 q 317 110 247 151 q 472 69 386 69 z "},"ð":{"ha":921,"x_min":83,"x_max":824,"o":"m 454 -8 q 263 40 346 -8 q 131 171 179 88 q 83 363 83 254 q 131 551 83 469 q 263 680 179 633 q 454 726 346 726 q 620 685 549 726 q 733 572 692 644 q 774 404 774 499 l 824 404 q 776 190 824 283 q 646 44 729 97 q 454 -8 563 -8 m 454 69 q 603 107 539 69 q 703 210 667 144 q 740 363 740 276 q 703 511 740 447 q 603 612 667 575 q 454 649 539 649 q 306 612 371 649 q 203 511 240 575 q 167 363 167 447 q 203 210 167 276 q 306 107 240 144 q 454 69 371 69 m 760 397 l 760 468 q 734 672 760 585 q 654 824 708 758 q 513 938 600 889 q 304 1026 426 986 q 274 1048 286 1033 q 268 1081 263 1063 q 292 1105 275 1100 q 326 1103 308 1110 q 558 1003 463 1058 q 711 874 653 947 q 797 703 769 800 q 824 482 824 607 l 824 397 l 760 397 m 358 853 q 342 873 344 860 q 344 900 339 886 l 464 1149 q 484 1169 471 1164 q 511 1168 497 1175 q 528 1148 525 1161 q 525 1121 532 1135 l 404 872 q 384 852 397 857 q 358 853 371 847 z "},"ď":{"ha":1083,"x_min":83,"x_max":1104,"o":"m 472 -8 q 273 42 361 -8 q 134 181 185 93 q 83 381 83 269 q 134 579 83 492 q 273 717 185 667 q 472 768 361 768 q 652 725 572 768 q 776 610 732 682 l 776 1043 q 788 1074 776 1063 q 818 1085 800 1085 q 849 1074 838 1085 q 860 1043 860 1063 l 860 372 q 807 178 858 264 q 669 42 756 92 q 472 -8 582 -8 m 472 69 q 628 110 560 69 q 737 222 697 151 q 776 381 776 292 q 737 539 776 469 q 628 649 697 608 q 472 690 560 690 q 317 649 386 690 q 207 539 247 608 q 167 381 167 469 q 207 222 167 292 q 317 110 247 151 q 472 69 386 69 m 969 749 q 952 760 958 751 q 947 781 946 769 q 960 810 950 793 q 983 855 971 828 q 997 922 994 882 q 994 962 1000 947 q 981 992 988 976 q 974 1033 974 1008 q 992 1075 974 1065 q 1033 1085 1011 1085 q 1089 1043 1074 1085 q 1093 944 1104 1001 q 1072 879 1088 914 q 1038 814 1057 844 q 1001 765 1019 783 q 969 749 983 746 z "},"đ":{"ha":985,"x_min":83,"x_max":985,"o":"m 533 875 q 506 885 517 875 q 496 913 496 896 q 506 940 496 929 q 533 950 517 950 l 947 950 q 974 940 964 950 q 985 913 985 929 q 974 885 985 896 q 947 875 964 875 l 533 875 m 472 -8 q 273 42 361 -8 q 134 181 185 93 q 83 381 83 269 q 134 579 83 492 q 273 717 185 667 q 472 768 361 768 q 652 725 572 768 q 776 610 732 682 l 776 1043 q 788 1074 776 1063 q 818 1085 800 1085 q 849 1074 838 1085 q 860 1043 860 1063 l 860 372 q 807 178 858 264 q 669 42 756 92 q 472 -8 582 -8 m 472 69 q 628 110 560 69 q 737 222 697 151 q 776 381 776 292 q 737 539 776 469 q 628 649 697 608 q 472 690 560 690 q 317 649 386 690 q 207 539 247 608 q 167 381 167 469 q 207 222 167 292 q 317 110 247 151 q 472 69 386 69 z "},"e":{"ha":846,"x_min":83,"x_max":790,"o":"m 461 -7 q 266 42 351 -7 q 132 179 181 92 q 83 379 83 267 q 129 580 83 493 q 256 717 175 667 q 440 767 336 767 q 622 719 543 767 q 746 587 701 671 q 790 393 790 503 q 779 365 790 375 q 750 354 768 354 l 139 354 l 139 426 l 772 426 l 711 381 q 681 540 714 471 q 585 649 647 610 q 440 689 524 689 q 299 649 361 689 q 202 540 238 610 q 167 379 167 471 q 204 219 167 289 q 308 110 242 150 q 461 71 375 71 q 570 90 515 71 q 657 139 625 108 q 684 151 668 150 q 711 142 700 151 q 727 114 726 129 q 714 86 728 99 q 598 19 669 46 q 461 -7 526 -7 z "},"é":{"ha":846,"x_min":83,"x_max":790,"o":"m 461 -7 q 266 42 351 -7 q 132 179 181 92 q 83 379 83 267 q 129 580 83 493 q 256 717 175 667 q 440 767 336 767 q 622 719 543 767 q 746 587 701 671 q 790 393 790 503 q 779 365 790 375 q 750 354 768 354 l 139 354 l 139 426 l 772 426 l 711 381 q 681 540 714 471 q 585 649 647 610 q 440 689 524 689 q 299 649 361 689 q 202 540 238 610 q 167 379 167 471 q 204 219 167 289 q 308 110 242 150 q 461 71 375 71 q 570 90 515 71 q 657 139 625 108 q 684 151 668 150 q 711 142 700 151 q 727 114 726 129 q 714 86 728 99 q 598 19 669 46 q 461 -7 526 -7 m 417 872 q 386 885 399 872 q 374 915 374 897 q 383 943 374 931 l 554 1114 q 585 1126 567 1126 q 615 1115 603 1126 q 628 1083 628 1103 q 625 1069 628 1076 q 615 1054 622 1061 l 444 883 q 417 872 433 872 z "},"ĕ":{"ha":846,"x_min":83,"x_max":790,"o":"m 461 -7 q 266 42 351 -7 q 132 179 181 92 q 83 379 83 267 q 129 580 83 493 q 256 717 175 667 q 440 767 336 767 q 622 719 543 767 q 746 587 701 671 q 790 393 790 503 q 779 365 790 375 q 750 354 768 354 l 139 354 l 139 426 l 772 426 l 711 381 q 681 540 714 471 q 585 649 647 610 q 440 689 524 689 q 299 649 361 689 q 202 540 238 610 q 167 379 167 471 q 204 219 167 289 q 308 110 242 150 q 461 71 375 71 q 570 90 515 71 q 657 139 625 108 q 684 151 668 150 q 711 142 700 151 q 727 114 726 129 q 714 86 728 99 q 598 19 669 46 q 461 -7 526 -7 m 436 900 q 331 921 379 900 q 253 977 282 942 q 225 1054 225 1013 q 238 1085 225 1072 q 268 1097 250 1097 q 298 1085 286 1097 q 310 1054 310 1072 q 343 999 310 1024 q 436 975 376 975 q 530 999 496 975 q 564 1054 564 1022 q 576 1085 564 1072 q 606 1097 588 1097 q 635 1085 624 1097 q 649 1056 647 1072 q 615 973 646 1008 q 538 919 585 938 q 436 900 490 900 z "},"ě":{"ha":846,"x_min":83,"x_max":790,"o":"m 461 -7 q 266 42 351 -7 q 132 179 181 92 q 83 379 83 267 q 129 580 83 493 q 256 717 175 667 q 440 767 336 767 q 622 719 543 767 q 746 587 701 671 q 790 393 790 503 q 779 365 790 375 q 750 354 768 354 l 139 354 l 139 426 l 772 426 l 711 381 q 681 540 714 471 q 585 649 647 610 q 440 689 524 689 q 299 649 361 689 q 202 540 238 610 q 167 379 167 471 q 204 219 167 289 q 308 110 242 150 q 461 71 375 71 q 570 90 515 71 q 657 139 625 108 q 684 151 668 150 q 711 142 700 151 q 727 114 726 129 q 714 86 728 99 q 598 19 669 46 q 461 -7 526 -7 m 438 900 q 417 906 424 900 l 249 1017 q 226 1054 226 1031 q 247 1089 226 1078 q 296 1081 268 1100 l 438 983 l 579 1078 q 628 1088 608 1097 q 649 1054 649 1078 q 626 1017 649 1033 l 458 906 q 438 900 451 900 z "},"ê":{"ha":846,"x_min":83,"x_max":790,"o":"m 461 -7 q 266 42 351 -7 q 132 179 181 92 q 83 379 83 267 q 129 580 83 493 q 256 717 175 667 q 440 767 336 767 q 622 719 543 767 q 746 587 701 671 q 790 393 790 503 q 779 365 790 375 q 750 354 768 354 l 139 354 l 139 426 l 772 426 l 711 381 q 681 540 714 471 q 585 649 647 610 q 440 689 524 689 q 299 649 361 689 q 202 540 238 610 q 167 379 167 471 q 204 219 167 289 q 308 110 242 150 q 461 71 375 71 q 570 90 515 71 q 657 139 625 108 q 684 151 668 150 q 711 142 700 151 q 727 114 726 129 q 714 86 728 99 q 598 19 669 46 q 461 -7 526 -7 m 271 900 q 240 912 253 900 q 226 942 226 924 q 249 979 226 965 l 417 1092 q 438 1097 428 1097 q 449 1096 444 1097 q 458 1092 454 1094 l 626 979 q 649 942 649 965 q 637 912 649 924 q 606 900 625 900 q 592 902 597 900 q 579 908 586 904 l 438 1003 l 296 908 q 271 900 283 900 z "}}}
